<svg height="9" viewBox="0 0 6 9" width="6" xmlns="http://www.w3.org/2000/svg"><path d="m.14406885 4.09091597h.90432568v3.46623183c0 .06843922.05955469.12388668.13306348.12388668h1.53332373c.07350879 0 .13306347-.05544746.13306347-.12388668v-3.44989463h1.0396128c.06759521 0 .1244751-.04722637.13219336-.10973978l.15789404-1.27608687c.00433447-.03510473-.00760547-.07026946-.03283887-.09661301-.02524951-.02635855-.0613916-.04145058-.09932226-.04145058h-1.19747461v-.79992274c0-.24112747.13944433-.36340894.41453027-.36340894h.78294434c.07350879 0 .13306347-.05547747.13306347-.12388669v-1.17134275c0-.06843922-.05955468-.12388669-.13306347-.12388669h-1.07902588c-.00760547-.00034504-.0245083-.00091512-.04941944-.00091512-.18722021 0-.8379873.03421961-1.35204931.47451391-.56957227.48792571-.4903916 1.07211939-.47147461 1.17341303v.93540598h-.94936231c-.07350878 0-.13306347.05544747-.13306347.12388669v1.25979467c0 .06842421.0595708.12390169.13307959.12390169z" fill-rule="evenodd" transform="translate(.9375 .400862)"/></svg>