<svg height="20" viewBox="0 0 20 20" width="20" xmlns="http://www.w3.org/2000/svg" xmlns:xlink="http://www.w3.org/1999/xlink"><linearGradient id="a"><stop offset="0" stop-color="#e09b3d"/><stop offset=".3" stop-color="#c74c4d"/><stop offset=".6" stop-color="#c21975"/><stop offset="1" stop-color="#7024c4"/></linearGradient><linearGradient id="b" x1="50%" x2="50%" xlink:href="#a" y1="99.708911%" y2=".776722%"/><linearGradient id="c" x1="50%" x2="50%" xlink:href="#a" y1="146.098873%" y2="-45.159683%"/><linearGradient id="d" x1="50%" x2="50%" xlink:href="#a" y1="658.140556%" y2="-140.029283%"/><g fill="none" fill-rule="evenodd" transform="translate(.625 .625)"><path d="m13.1412364 0h-7.56528531c-3.07459239 0-5.57595109 2.5013587-5.57595109 5.57595109v7.56528531c0 3.0745924 2.5013587 5.5759511 5.57595109 5.5759511h7.56528531c3.0745924 0 5.5759511-2.5013587 5.5759511-5.5759511v-7.56528531c0-3.07459239-2.5013927-5.57595109-5.5759511-5.57595109zm3.6930027 13.1412364c0 2.039572-1.6534307 3.6930027-3.6930027 3.6930027h-7.56528531c-2.03957201 0-3.69300272-1.6534307-3.69300272-3.6930027v-7.56528531c0-2.03960598 1.65343071-3.69300272 3.69300272-3.69300272h7.56528531c2.039572 0 3.6930027 1.65339674 3.6930027 3.69300272z" fill="url(#b)" fill-rule="nonzero"/><path d="m9.35859375 4.51766304c-2.66929348 0-4.84093071 2.17163723-4.84093071 4.84089674 0 2.66925952 2.17163723 4.84093072 4.84093071 4.84093072 2.66929345 0 4.84093075-2.1716372 4.84093075-4.84093072 0-2.66929348-2.1716373-4.84089674-4.84093075-4.84089674zm0 7.79891306c-1.63366168 0-2.95798234-1.3243207-2.95798234-2.95798235 0-1.63366168 1.32435462-2.95798234 2.95798234-2.95798234 1.63366165 0 2.95798235 1.32432066 2.95798235 2.95798234 0 1.63362775-1.3243546 2.95798235-2.95798235 2.95798235z" fill="url(#c)" fill-rule="nonzero"/><circle cx="14.2089" cy="4.554008" fill="url(#d)" r="1.159986"/></g></svg>