<svg height="8" viewBox="0 0 10 8" width="10" xmlns="http://www.w3.org/2000/svg"><g fill-rule="evenodd" transform="translate(.875 .103448)"><path d="m5.78214402 0h-3.32872554c-1.35282065 0-2.45341848 1.02469453-2.45341848 2.2842172v3.09915827c0 1.25952267 1.10059783 2.2842172 2.45341848 2.2842172h3.32872554c1.35282065 0 2.45341848-1.02469453 2.45341848-2.2842172v-3.09915827c0-1.25952267-1.10061277-2.2842172-2.45341848-2.2842172zm1.6249212 5.38337547c0 .83552122-.72750951 1.51285766-1.6249212 1.51285766h-3.32872554c-.89741169 0-1.6249212-.67733644-1.6249212-1.51285766v-3.09915827c0-.83553513.72750951-1.51285766 1.6249212-1.51285766h3.32872554c.89741169 0 1.6249212.67732253 1.6249212 1.51285766z" fill-rule="nonzero"/><path d="m4.11778125 1.85068403c-1.17448913 0-2.13000951.88962243-2.13000951 1.98309839 0 1.09347597.95552038 1.9831123 2.13000951 1.9831123s2.13000951-.88962242 2.13000951-1.9831123-.95552038-1.98309839-2.13000951-1.98309839zm0 3.19486507c-.71881114 0-1.30151223-.5425148-1.30151223-1.21175276s.58271603-1.21175277 1.30151223-1.21175277c.71881114 0 1.30151223.54251481 1.30151223 1.21175277 0 .66922404-.58271603 1.21175276-1.30151223 1.21175276z" fill-rule="nonzero"/><ellipse cx="6.251916" cy="1.865573" rx="1" ry="1"/></g></svg>