<?xml version="1.0" encoding="UTF-8"?>
<svg width="842px" height="666px" viewBox="0 0 842 666" version="1.1" xmlns="http://www.w3.org/2000/svg" xmlns:xlink="http://www.w3.org/1999/xlink">
    <title>Group</title>
    <defs>
        <polygon id="path-1" points="0.293902364 0.361565217 628.035079 0.361565217 628.035079 188.693609 0.293902364 188.693609"></polygon>
        <polygon id="path-3" points="0.0653461568 0.0461019231 246.951485 0.0461019231 246.951485 122 0.0653461568 122"></polygon>
        <polygon id="path-5" points="0 0.000162962963 43.3481481 0.000162962963 43.3481481 59.5018519 0 59.5018519"></polygon>
    </defs>
    <g id="Symbols" stroke="none" stroke-width="1" fill="none" fill-rule="evenodd" opacity="0.2">
        <g id="footer" transform="translate(151.000000, -278.000000)">
            <g id="Group" transform="translate(-151.000000, 278.000000)">
                <g id="map">
                    <g id="Group-3" transform="translate(126.000000, 0.000000)">
                        <mask id="mask-2" fill="white">
                            <use xlink:href="#path-1"></use>
                        </mask>
                        <g id="Clip-2"></g>
                        <path d="M12.363671,188.693609 C9.48908224,188.693609 5.97138505,188.262783 1.60718318,187.545522 C0.752448598,187.404652 0.174003738,186.599348 0.31508785,185.745913 C0.454996262,184.893652 1.24977009,184.314913 2.11743738,184.455783 C19.1733308,187.263783 20.8028523,186.064043 23.9266897,168.467087 L24.177114,167.053696 C25.686714,158.471217 27.2480449,149.596435 33.737914,141.584478 C47.2208523,124.937217 64.3531664,106.64413 89.1898486,97.1964783 C96.7084561,94.3356522 104.047181,91.3480435 111.18251,86.2673478 C117.260884,81.9379565 123.347488,77.3913913 129.234222,72.995087 C144.889856,61.302913 161.079258,49.2116087 178.948736,39.8179565 C183.678581,37.3316087 188.65885,35.1046957 193.474521,32.9505652 C205.39025,27.621 217.710421,22.1106522 227.10192,12.2521304 C228.690292,10.5828261 231.567232,10.5264783 234.104394,10.4748261 C234.566445,10.4654348 235.015563,10.4560435 235.437639,10.4372609 C246.101247,9.94656522 257.027036,9.531 268.838127,9.16943478 C290.935426,8.49326087 313.033901,7.84995652 335.132376,7.20782609 L352.904271,6.69013043 C365.547759,6.32152174 378.192422,5.96113043 390.838262,5.60073913 C420.136729,4.76726087 450.434542,3.90326087 480.227979,2.943 C491.528817,2.57908696 503.021293,1.98743478 514.132843,1.41573913 C520.131269,1.10817391 526.130871,0.799434783 532.130473,0.523565217 C576.944665,-1.52256522 606.609951,15.8196522 620.256312,52.122913 C622.891058,59.13 623.877471,66.4505217 624.833316,73.5303913 C625.589292,79.1334783 626.373484,84.9267391 627.972437,90.3983478 C628.138211,90.9665217 627.96891,91.5793043 627.536252,91.9831304 C622.304383,96.8466522 616.032019,98.9585217 609.965402,100.999957 C607.724516,101.753609 605.409561,102.533087 603.232163,103.433478 C595.827598,106.490348 588.217286,109.393435 580.858574,112.202609 C567.832983,117.171783 554.362978,122.311174 541.675989,128.44487 C517.235518,140.260304 498.2938,158.626174 485.375198,183.028304 C484.973108,183.793696 484.024318,184.084826 483.256585,183.681 C482.493555,183.277174 482.198454,182.329826 482.604071,181.565609 C495.838936,156.560087 515.255637,137.739913 540.309824,125.626304 C553.11791,119.433913 566.651404,114.271043 579.738131,109.277217 C587.079207,106.476261 594.668357,103.579043 602.034123,100.538609 C604.307929,99.5994783 606.675791,98.8023913 608.963705,98.0323043 C614.68349,96.107087 620.102295,94.284 624.692232,90.3232174 C623.207321,84.9220435 622.454873,79.3483043 621.725938,73.9483043 C620.793607,67.041 619.828357,59.898913 617.318236,53.2228696 C604.205643,18.3365217 575.593785,1.65052174 532.275084,3.65086957 C526.279009,3.92791304 520.285286,4.23547826 514.293914,4.54421739 C503.165905,5.11591304 491.660495,5.70756522 480.32909,6.07265217 C450.529774,7.03408696 420.230785,7.89691304 390.926439,8.73156522 C378.282951,9.09195652 365.638288,9.45117391 352.995976,9.81978261 L335.222905,10.3374783 C313.126781,10.9807826 291.029482,11.622913 268.934535,12.299087 C257.139903,12.6606522 246.229398,13.0750435 235.58225,13.5657391 C235.134308,13.5868696 234.656974,13.5962609 234.166707,13.6056522 C232.532482,13.6385217 230.061159,13.6878261 229.373374,14.4109565 C219.556271,24.7167391 206.94923,30.3550435 194.756036,35.8078696 C189.985041,37.9420435 185.0518,40.149 180.408957,42.5883913 C162.759335,51.8681739 146.671043,63.8831739 131.112993,75.5025652 C125.21215,79.9094348 119.111437,84.4665652 113.002495,88.815913 C105.566187,94.1126087 98.0228897,97.187087 90.3055888,100.123043 C66.1660972,109.305391 49.3958991,127.231043 36.1751421,143.554304 C30.1967028,150.93587 28.772929,159.027652 27.2656804,167.596043 L27.0152561,169.01413 C24.3675776,183.916957 21.9279981,188.693609 12.363671,188.693609" id="Fill-1" fill="#FFFFFF" mask="url(#mask-2)"></path>
                    </g>
                    <path d="M61.568948,526.624334 C61.1846978,526.624334 60.8016228,526.484461 60.4984529,526.202365 C59.8650865,525.609963 59.8310093,524.615575 60.4208979,523.982034 C68.4584236,515.346366 74.9671744,505.282587 81.260886,495.549095 C83.6321911,491.884196 86.0822264,488.09588 88.5851401,484.426279 C94.1303278,476.298385 99.3124168,467.710908 104.32412,459.405528 C112.359295,446.08824 120.668264,432.317248 130.77275,419.921473 C139.347286,409.402814 148.545787,399.14862 157.439944,389.231765 C173.737085,371.062424 190.588862,352.274822 204.169226,331.21517 C217.959928,309.827582 236.541418,298.510826 259.396663,297.578733 C265.984144,297.309566 272.685607,297.116801 279.166156,296.929912 C291.748879,296.569064 304.758155,296.195287 317.476012,295.244388 C341.728423,293.430745 362.019651,301.995888 380.334399,311.514282 C398.729052,321.07499 418.869869,330.645101 441.503025,335.893265 C445.276197,336.768938 449.22328,337.49416 453.04228,338.193523 C464.471077,340.29514 476.29,342.464929 486.672979,349.04247 C487.404594,349.506754 487.625967,350.476459 487.160636,351.211084 C486.698831,351.943359 485.723517,352.160808 484.996145,351.698876 C475.127849,345.44692 463.610921,343.331199 452.474718,341.287178 C448.622816,340.579586 444.639305,339.847312 440.794454,338.955183 C417.822876,333.628268 397.467019,323.959423 378.890229,314.304683 C360.984408,304.999037 341.178488,296.639588 317.708677,298.378006 C304.919141,299.334782 291.873437,299.709734 279.256637,300.072933 C272.784314,300.257471 266.093426,300.450237 259.523571,300.718228 C237.747047,301.606831 220.010437,312.441673 206.804923,332.920677 C193.089426,354.189549 176.153043,373.072359 159.774822,391.332206 C150.902991,401.222026 141.730341,411.449186 133.202809,421.911427 C123.239332,434.134417 114.989117,447.807851 107.00917,461.032283 C101.975141,469.372925 96.7707255,477.999189 91.1761846,486.198783 C88.6944223,489.835473 86.2549627,493.609684 83.8954084,497.256952 C77.5276668,507.105633 70.941361,517.288128 62.7169981,526.123614 C62.4079528,526.456252 61.9884504,526.624334 61.568948,526.624334 M713.431087,596 C713.013935,596 712.599133,595.835444 712.291262,595.507507 C710.082118,593.166109 707.820095,590.864675 705.560422,588.564416 C700.71323,583.628909 695.699177,578.526496 691.269137,573.052655 C679.806263,558.890254 668.358664,544.328217 657.288265,530.245743 C627.941895,492.912671 597.595535,454.308992 564.03534,419.440735 C554.120041,409.134823 544.430357,402.65719 533.546796,399.052237 C514.918302,392.881384 496.266307,384.209279 476.525016,372.536376 C463.97402,365.116073 456.408875,355.970281 453.395978,344.578299 C453.173888,343.739063 453.673296,342.87867 454.511126,342.656519 C455.34778,342.434368 456.205587,342.933914 456.430026,343.77315 C459.219659,354.327071 466.315948,362.8499 478.121945,369.829429 C497.668174,381.387142 516.120406,389.968742 534.53386,396.06907 C545.918005,399.839755 556.01074,406.57245 566.293838,417.258016 C599.96214,452.241462 630.359028,490.908613 659.755926,528.302806 C670.8181,542.375877 682.257473,556.927335 693.706247,571.07093 C698.041105,576.428406 703.001105,581.476751 707.796593,586.359365 C710.072717,588.676079 712.347666,590.991618 714.570912,593.350647 C715.166675,593.981837 715.138474,594.976226 714.508632,595.570979 C714.205463,595.858952 713.817687,596 713.431087,596" id="Fill-4" fill="#FFFFFF"></path>
                    <path d="M818.510055,525 C818.34323,525 818.171707,524.974177 818.004883,524.915488 C817.184859,524.63613 816.747826,523.747584 817.027433,522.92829 C821.838317,508.828926 824.670806,493.963089 827.40931,479.585541 C828.392633,474.425634 829.407677,469.092008 830.503783,463.859327 C832.136782,456.052562 833.472551,448.259881 834.887033,440.008256 C835.46152,436.657133 836.04423,433.261407 836.656311,429.802297 C825.950184,426.155384 814.478076,425.080208 803.371336,424.037897 C799.747019,423.698677 795.998171,423.347719 792.339784,422.913422 C759.220458,418.973066 726.168097,412.213306 694.202443,405.676563 C686.892719,404.181176 679.578295,402.685789 672.255647,401.22092 C655.722418,397.914401 638.822644,393.363682 619.070411,386.90206 C616.172132,385.955999 613.982269,384.122565 611.862895,382.348994 C609.198405,380.118825 606.89811,378.196184 603.536952,378.131627 C602.672285,378.112847 601.983841,377.399192 602,376.535295 C602.017911,375.680788 602.715754,375 603.567497,375 L603.598043,375 C608.06353,375.086859 611.0182,377.558826 613.874186,379.948628 C615.853756,381.603648 617.721718,383.167114 620.04551,383.926545 C639.675563,390.348259 656.461379,394.869633 672.871252,398.151503 C680.197424,399.617546 687.516548,401.114106 694.830971,402.609493 C726.733185,409.133325 759.720931,415.879 792.711027,419.804097 C796.32947,420.236046 800.058346,420.584656 803.663866,420.922703 C815.397959,422.021355 827.530316,423.156394 838.96718,427.293944 C839.682645,427.553348 840.110279,428.290478 839.975175,429.041692 C839.278507,432.94801 838.621783,436.772163 837.975633,440.537627 C836.557626,448.81625 835.214808,456.635927 833.570061,464.500207 C832.482179,469.704718 831.46831,475.025432 830.488511,480.171254 C827.727686,494.653267 824.875225,509.630614 819.992677,523.938909 C819.770636,524.589179 819.162079,525 818.510055,525" id="Fill-6" fill="#FFFFFF"></path>
                    <path d="M452.565705,158 C451.918008,158 451.312552,157.59246 451.087266,156.944637 C450.803312,156.124845 451.23511,155.229671 452.051772,154.944628 C487.881614,142.432211 525.753109,136.347381 567.799433,136.347381 C568.091601,136.347381 568.386115,136.348558 568.681803,136.348558 C575.157599,136.348558 578.668304,135.567637 582.657741,128.773734 C587.19514,121.04461 589.849289,113.151763 592.658322,104.793661 C593.173429,103.261264 593.689709,101.725333 594.218897,100.188225 C595.865126,95.4072866 597.006809,90.3036147 598.110945,85.3671991 C600.578529,74.323574 603.127076,62.9171677 611.47908,53.7051165 C604.819067,42.3163781 605.046699,30.2173896 605.264945,18.5059172 C605.34004,14.5977743 605.415136,10.5565331 605.222704,6.64839018 C605.179289,5.78148445 605.84576,5.04414344 606.710529,5 C607.560045,4.97818322 608.307478,5.6260068 608.349719,6.49291252 C608.546844,10.5094187 608.470575,14.6036636 608.39548,18.5648103 C608.167847,30.7073797 607.951948,42.1773905 614.76098,53.0749609 C615.143496,53.6874486 615.060187,54.4813269 614.559161,55.0019415 C606.153181,63.7275361 603.730185,74.5721027 601.164038,86.0550699 C600.042302,91.0751137 598.881845,96.2671251 597.179294,101.214141 C596.650107,102.745361 596.137347,104.273047 595.623413,105.798377 C592.885955,113.939752 590.055801,122.359103 585.352958,130.369736 C580.414269,138.784375 575.32539,139.489914 568.700577,139.489914 C568.396676,139.48638 568.099815,139.488736 567.799433,139.489914 C526.108638,139.489914 488.573898,145.517029 453.079638,157.91166 C452.909501,157.971731 452.737016,158 452.565705,158" id="Fill-8" fill="#FFFFFF"></path>
                    <path d="M838.545765,428 C838.432335,428 838.318905,427.988223 838.20193,427.96467 C837.352387,427.775068 836.817139,426.936578 837.005007,426.088666 C838.747812,418.280815 839.236979,410.948737 838.544583,403.008989 C837.235412,388.00449 835.431166,372.777414 833.688361,358.053197 C829.965257,326.62748 826.116907,294.132453 826.809303,261.699842 C827.761642,217.115011 818.410755,194.946839 810.159903,180.613603 C806.485243,174.233069 802.814128,169.876925 795.873629,167.873734 C791.356515,166.568892 787.762201,165.372395 784.554258,164.107594 C760.856837,154.767614 752.470106,142.726095 752.4961,118.096624 C752.503189,111.679583 752.230248,103.252286 750.051447,94.9686622 C749.831676,94.1289944 750.336203,93.2704841 751.179839,93.0514403 C752.009296,92.8323965 752.881289,93.3328998 753.103423,94.1725676 C755.370842,102.803599 755.655599,111.493513 755.648509,118.098979 C755.621333,141.443629 763.209329,152.315737 785.713371,161.188188 C788.824426,162.414127 792.332486,163.580005 796.749167,164.855405 C804.68336,167.145943 808.940531,172.186306 812.891676,179.050855 C828.990468,207.006023 830.468603,237.940658 829.961712,261.766968 C829.272861,293.980536 833.108214,326.366041 836.817139,357.685769 C838.565852,372.433539 840.371279,387.685345 841.683995,402.736951 C842.407112,411.004087 841.895495,418.642355 840.08416,426.769351 C839.918741,427.501852 839.2677,428 838.545765,428" id="Fill-10" fill="#FFFFFF"></path>
                    <path d="M444.638798,154 C444.545511,154 444.452224,153.991787 444.357771,153.975362 C443.513526,153.819319 442.952639,153.005081 443.107729,152.154473 C443.412077,150.475548 444.158371,148.875231 444.881343,147.32771 C446.782061,143.257695 448.036768,140.568599 442.866349,137.260025 C441.236163,136.218177 441.0286,132.963573 441.004112,131.990946 C440.957469,130.114914 441.24899,125.464139 444.975796,122.803201 C453.644469,116.615464 456.710105,105.578673 454.089913,89.9966987 C451.566506,74.9661537 455.900842,62.4322912 460.092916,50.3102405 C461.136562,47.2949801 462.21519,44.1764734 463.170213,41.0696993 C463.265832,40.7552675 463.34979,40.358708 463.443077,39.9175648 C463.965483,37.4947972 465.049942,32.4662346 470.31598,32.4662346 C470.382446,32.4662346 470.451245,32.4662346 470.520044,32.4674078 C471.543867,32.4674078 472.827726,32.3313105 473.396775,31.7141794 C474.04745,31.0055345 473.911018,29.4181231 473.779251,27.8823349 C473.705787,27.0223404 473.62766,26.135361 473.671971,25.2835793 C473.849216,21.8881849 473.808403,18.3977571 473.768756,15.0234812 C473.751265,13.5369696 473.73494,12.050458 473.73494,10.5651196 C473.73494,9.70160533 474.431092,9 475.290496,9 C476.148735,9 476.846053,9.70160533 476.846053,10.5651196 C476.846053,12.0387254 476.862378,13.5123313 476.877537,14.9859371 C476.91835,18.4106628 476.959163,21.9515406 476.779586,25.4466615 C476.746936,26.0813914 476.811071,26.8252338 476.877537,27.6124866 C477.059447,29.7243422 477.264678,32.1166052 475.677636,33.8412872 C474.567524,35.0462181 472.786913,35.6422306 470.370786,35.5964738 C467.959323,35.6058598 467.216527,37.1827119 466.484226,40.5804528 C466.367617,41.123669 466.259171,41.6082225 466.141397,41.9942227 C465.170048,45.1537932 464.083258,48.2981115 463.030283,51.3391834 C458.781071,63.6290093 454.766242,75.2371751 457.159048,89.4757743 C459.993799,106.341287 456.50021,118.414061 446.777397,125.355026 C445.064418,126.578729 444.444061,128.575606 444.22717,130.036306 C443.886673,132.319457 444.374096,134.231859 444.652791,134.695294 C451.989795,139.462221 449.509533,144.774711 447.697437,148.658179 C447.029271,150.088374 446.399585,151.437615 446.166368,152.716461 C446.029936,153.470863 445.375763,154 444.638798,154 L444.638798,154 Z" id="Fill-12" fill="#FFFFFF"></path>
                    <path d="M503.677632,145 C503.087835,145 502.521676,144.668779 502.252189,144.102991 C499.943822,139.26315 498.949794,132.560926 501.515828,129.115516 C509.926653,117.822161 512.950106,105.487994 511.031786,90.3024929 C510.393527,85.2398734 512.31303,80.6876414 514.171071,76.2839287 C515.509049,73.1143399 516.89076,69.8363086 517.261895,66.4404048 C518.849267,51.9149893 516.900215,37.4072547 515.01499,23.378082 C514.415736,18.9166118 513.795207,14.3030861 513.295238,9.74378182 C513.200682,8.87977715 513.824756,8.10417678 514.691133,8.00987886 C515.544508,7.91322349 516.335239,8.53676847 516.429795,9.40077314 C516.925037,13.923537 517.540838,18.5170243 518.140091,22.9608137 C520.050138,37.1750461 522.024011,51.8749127 520.396452,66.781056 C519.974493,70.633126 518.501771,74.1256851 517.077509,77.5027293 C515.302206,81.7095951 513.626187,85.6830736 514.160433,89.9087991 C516.187494,105.950054 512.973745,119.004422 504.046404,130.989687 C502.539405,133.012377 503.022827,138.397967 505.100712,142.752173 C505.474211,143.537204 505.139717,144.475468 504.353713,144.846766 C504.135051,144.950494 503.903387,145 503.677632,145" id="Fill-14" fill="#FFFFFF"></path>
                    <path d="M551.675671,137 C551.630882,137 551.584972,136.997639 551.540182,136.994098 C550.719408,136.915004 550.112505,136.150041 550.186408,135.283554 C550.604074,130.423439 551.252407,125.511381 551.880585,120.761053 C553.281388,110.174335 554.728101,99.2263855 553.619552,88.4389835 C550.380125,56.848824 548.913256,31.1517167 549.003956,7.56888348 C549.006195,6.70121655 549.674684,6 550.497698,6 L550.503297,6 C551.32855,6.004722 551.99368,6.71184104 551.99032,7.58068847 C551.900741,31.0454717 553.36201,56.6304316 556.59024,88.1001802 C557.735741,99.274786 556.262154,110.419879 554.838956,121.196657 C554.217496,125.90921 553.571403,130.782311 553.161575,135.566874 C553.093271,136.38496 552.440458,137 551.675671,137" id="Fill-16" fill="#FFFFFF"></path>
                    <path d="M764.438604,561 C764.038156,561 763.638878,560.845445 763.334444,560.537515 C761.318153,558.509424 759.280785,556.499031 757.242247,554.488637 C752.705006,550.015983 748.012035,545.392314 743.644575,540.583414 C741.428059,538.141211 739.107334,535.724963 736.865058,533.387763 C730.351337,526.600325 723.615144,519.582824 718.355457,510.884096 L715.459819,506.085815 C702.526048,484.655774 689.150847,462.496611 673.341343,442.555489 C672.802728,441.875919 672.913964,440.88606 673.587232,440.344527 C674.262842,439.800636 675.245228,439.913897 675.7815,440.591107 C691.717461,460.690325 705.143011,482.936793 718.127131,504.449421 L721.025111,509.246522 C726.100966,517.646758 732.713044,524.53684 739.109675,531.200398 C741.368343,533.551756 743.70312,535.985701 745.951249,538.460939 C750.257823,543.204949 754.918008,547.797943 759.425977,552.239922 C761.472712,554.257395 763.518276,556.273687 765.541592,558.313576 C766.152803,558.927077 766.152803,559.924015 765.541592,560.537515 C765.237158,560.845445 764.837881,561 764.438604,561" id="Fill-18" fill="#FFFFFF"></path>
                    <path d="M92.3929601,305 C90.4635023,305 88.6505179,304.527313 87.2551905,303.871461 C84.8692513,302.752375 83.3950985,301.02825 83.3115671,299.259221 C83.1233273,295.22484 80.9773938,292.43008 78.7055749,289.473425 C76.7631756,286.946915 74.7548925,284.331776 74.0336988,280.902434 C73.8560475,280.051598 74.3984134,279.216125 75.2454924,279.03414 C76.0972774,278.85452 76.9255325,279.401654 77.1055367,280.25249 C77.6761386,282.975165 79.3832381,285.195611 81.19034,287.548409 C83.5445138,290.611418 86.2116362,294.085665 86.446936,299.111506 C86.4645835,299.494382 87.1398937,300.33931 88.584634,301.017615 C90.7152731,302.019711 94.1577081,302.458128 96.8577725,300.401941 C113.008746,288.101452 129.750322,291.559155 145.937766,294.903413 C150.528464,295.852332 155.276813,296.833156 159.915747,297.425196 C162.548751,297.760804 165.175872,298.337482 167.717109,298.892888 C173.316066,300.11951 178.602075,301.277593 184.118677,300.154962 C184.964579,299.977704 185.795187,300.534293 185.968133,301.386311 C186.141078,302.240692 185.59283,303.071438 184.742221,303.245151 C178.579721,304.500134 172.718405,303.215608 167.048858,301.973624 C164.574681,301.431216 162.015797,300.871082 159.519267,300.552019 C154.761506,299.944616 149.954333,298.950793 145.305987,297.990057 C129.089129,294.63989 113.772293,291.477617 98.7531118,302.91427 C96.7601231,304.432776 94.5071282,305 92.3929601,305" id="Fill-20" fill="#FFFFFF"></path>
                    <path d="M61.3758531,532 L61.3439276,532 C60.4724784,531.981112 59.7807582,531.263387 59.7984946,530.394562 L59.8233256,529.620175 C59.9084604,527.420961 59.9226495,527.083347 57.4821187,526.781147 C54.31203,526.390412 51.1667723,525.691575 48.1255682,525.015166 C44.7036225,524.253764 41.1669812,523.466391 37.6208805,523.129957 C30.2945584,522.435842 22.8239801,521.138506 19.0106508,513.733425 C17.9594726,511.695936 16.8834633,509.680876 15.809819,507.670538 C9.33720971,495.551845 2.64348645,483.018807 3.01476875,467.065951 C3.16966678,460.383317 4.79077517,454.458544 6.35749188,448.728549 C7.32590017,445.187142 8.24109922,441.842874 8.84531978,438.30855 C8.99312324,437.45153 9.80308622,436.879003 10.6662585,437.021839 C11.524701,437.167037 12.1017257,437.981561 11.9551047,438.837401 C11.3248707,442.524005 10.347003,446.099645 9.4010608,449.557238 C7.88282363,455.104261 6.31492448,460.841339 6.16712102,467.139141 C5.81593999,482.266849 12.022503,493.887384 18.5932538,506.189049 C19.6739927,508.213553 20.7570965,510.241599 21.8153693,512.295614 C24.9038705,518.290035 31.1943859,519.358359 37.9188523,519.995813 C41.6600535,520.349953 45.2960187,521.158574 48.8113763,521.941225 C51.9164315,522.631799 54.8488522,523.284599 57.8687726,523.658807 C63.1873324,524.313967 63.0643599,527.451654 62.9756778,529.742944 L62.9520293,530.458308 C62.9342929,531.315328 62.2319308,532 61.3758531,532" id="Fill-22" fill="#FFFFFF"></path>
                    <g id="Group-26" transform="translate(460.000000, 543.000000)">
                        <mask id="mask-4" fill="white">
                            <use xlink:href="#path-3"></use>
                        </mask>
                        <g id="Clip-25"></g>
                        <path d="M22.6082629,122.000352 C19.8324533,122.000352 16.8308152,121.470121 13.5433629,120.24191 C13.37752,120.17739 13.223439,120.088237 13.0881771,119.974448 C9.53843429,117.011256 11.2274438,113.476775 12.235439,111.36641 C12.51302,110.784563 12.7753105,110.235563 12.8905771,109.816775 C15.62522,99.9969481 16.8131724,89.6093519 7.07196286,80.1965827 C3.35755333,76.6069673 0.637024762,70.1749865 0.45824381,64.5594673 C-0.0310514286,49.1956788 0.0454009524,33.5773327 0.120677143,18.4704481 C0.147729524,12.8502365 0.174781905,7.23119808 0.174781905,1.61098654 C0.174781905,0.746428846 0.876967619,0.0461019231 1.74382,0.0461019231 C2.61067238,0.0461019231 3.3128581,0.746428846 3.3128581,1.61098654 C3.3128581,7.23471731 3.28462952,12.8596212 3.25757714,18.4856981 C3.18230095,33.5620827 3.10584857,49.1546212 3.59279143,64.4574096 C3.74687238,69.2529481 6.1286581,74.9271212 9.25732476,77.9513135 C20.2017771,88.527775 18.7644724,100.418083 15.915739,110.655525 C15.7251962,111.33591 15.4064486,112.004563 15.0677057,112.711929 C13.9691438,115.009987 13.6092295,116.195967 14.9112724,117.408929 C26.8519581,121.739929 34.4701438,115.503852 42.5305771,108.901775 C46.8389629,105.37316 51.2931962,101.72489 56.4472629,99.8151212 C56.7977676,99.6837365 57.1870867,99.6837365 57.5387676,99.8151212 C62.252939,101.564179 64.7123533,105.180775 66.883601,108.371544 C67.3881867,109.116448 67.8892438,109.854313 68.415001,110.559333 C68.9125295,111.22916 69.4112343,111.963506 69.9193486,112.710756 C71.7318581,115.383025 73.602001,118.145621 75.6591581,118.145621 C75.7132629,118.145621 75.7650152,118.143275 75.8179438,118.138583 C80.51212,117.818333 85.2392295,118.050602 89.8134343,118.278179 C99.3441057,118.750929 108.347844,119.199044 117.45391,115.115563 C159.895568,96.0847365 193.969806,77.6216788 224.690725,57.0095442 C227.01723,55.4481788 229.658953,54.4123519 232.212463,53.4081981 C237.155991,51.4691019 241.82782,49.6355827 243.916734,44.2183135 C244.229601,43.4112365 245.141149,43.0135635 245.945663,43.3209096 C246.754882,43.6306019 247.157139,44.5373904 246.846625,45.3421212 C244.260182,52.0450827 238.719149,54.2176212 233.362777,56.3221212 C230.853963,57.3063327 228.485115,58.2342365 226.442072,59.6067365 C195.571777,80.3185827 161.346987,98.8625827 118.739487,117.968487 C108.944172,122.360487 99.1406248,121.874833 89.6558248,121.403256 C85.1721867,121.181544 80.5332914,120.945756 76.035539,121.262487 C72.1000057,121.514698 69.564139,117.776102 67.3187914,114.464506 C66.8389057,113.755967 66.3672533,113.05916 65.8932486,112.423352 C65.3427914,111.684313 64.8193867,110.90891 64.2877486,110.12764 C62.2964581,107.201987 60.4133771,104.431179 56.9847819,102.962487 C52.5528962,104.742044 48.64912,107.942198 44.5218676,111.319487 C38.0857533,116.591294 31.4837962,122.000352 22.6082629,122.000352" id="Fill-24" fill="#FFFFFF" mask="url(#mask-4)"></path>
                    </g>
                    <path d="M471.431914,663 C471.391908,663 471.351902,663 471.311895,662.995307 C466.970042,662.670319 462.627012,662.353544 458.283983,662.035596 C446.328001,661.161531 433.964898,660.256962 421.813592,659.204564 L420.882859,659.131823 C417.869448,658.907734 414.117099,658.628502 412.549795,656.292579 C412.052071,655.548744 411.586116,654.279297 412.190916,652.442 C412.929855,650.19759 413.05105,648.577343 412.539206,647.758421 C411.967352,646.839773 410.305916,646.602778 408.546819,646.354051 C407.465474,646.202703 406.347652,646.043142 405.3322,645.698209 C344.776879,625.063239 283.925042,604.431789 227.187963,585.210574 C216.834585,581.702583 207.768466,577.253651 199.474232,571.61036 C184.210676,561.22952 168.07169,551.665256 153.833,543.227304 C151.293781,541.724381 148.037979,540.094749 145.399921,540.850316 C143.765549,541.317267 142.395924,542.654762 141.214563,544.939063 C140.140278,547.0157 138.622394,548.735672 137.156283,550.402848 C136.227903,551.456419 135.350119,552.450154 134.585294,553.52367 C121.213798,572.262682 105.790218,578.591146 87.4367692,572.857516 C86.7790196,572.652198 86.3330677,572.044459 86.335421,571.358113 C86.3507175,568.07773 85.7494474,564.499344 85.1693569,561.039455 C83.4243791,550.657441 81.4570136,538.935586 96.6864462,533.328666 C93.0447021,525.194583 86.1365665,524.098776 78.8471951,522.946652 C75.9173266,522.480876 72.8874426,522.002193 70.0658264,521.048348 C69.2445219,520.769116 68.80563,519.882146 69.0833203,519.06205 C69.3621873,518.245474 70.2517377,517.806682 71.0742188,518.082394 C73.6428545,518.952939 76.4103447,519.390558 79.3390364,519.855161 C87.2237948,521.10349 96.1604818,522.518419 100.235235,533.741647 C100.379963,534.142895 100.355253,534.585207 100.166989,534.966511 C99.9775473,535.348987 99.6398477,535.636432 99.233902,535.765488 C84.8693102,540.305932 86.4424965,549.675438 88.2639569,560.523229 C88.8005111,563.717965 89.3535385,567.008907 89.4582607,570.194258 C106.082028,574.970523 119.639435,569.071465 132.027249,551.708666 C132.885029,550.506093 133.858122,549.403246 134.798269,548.33677 C136.20084,546.744681 137.526929,545.240586 138.424716,543.503015 C140.002609,540.453761 142.0594,538.548417 144.53508,537.840952 C148.332143,536.754531 152.355123,538.711497 155.43678,540.538234 C169.714299,548.999651 185.899175,558.588553 201.242743,569.024536 C209.300469,574.507093 218.117137,578.832834 228.197532,582.245793 C284.936964,601.469354 345.789978,622.101977 406.347652,642.736948 C407.083061,642.985675 408.009088,643.118251 408.988064,643.256693 C411.271949,643.580508 413.859411,643.946559 415.205503,646.106497 C416.265669,647.806524 416.256255,650.129542 415.173734,653.418137 C414.917223,654.19365 415.099605,654.463495 415.159614,654.553835 C415.876196,655.621485 419.284963,655.873732 421.117013,656.009828 L422.085399,656.084915 C434.215525,657.136139 446.566862,658.038362 458.51343,658.9136 C462.858813,659.231549 467.20302,659.549497 471.548403,659.874485 C472.413244,659.939013 473.059227,660.691061 472.995687,661.553393 C472.934501,662.373489 472.246159,663 471.431914,663" id="Fill-27" fill="#FFFFFF"></path>
                    <path d="M206.449261,325 C206.052783,325 205.655143,324.845636 205.352843,324.538086 L200.898574,320.019105 C197.498866,316.56889 194.097995,313.115139 190.680846,309.681421 L189.901844,308.903708 C186.835828,305.852954 183.665169,302.697327 182.890817,297.653979 C178.938831,271.895199 174.955452,246.141132 170.973235,220.387065 L167.018923,194.814464 C166.886376,193.956624 167.464234,193.151809 168.310673,193.018655 C169.152461,192.88668 169.950067,193.468786 170.082614,194.326626 L174.036926,219.900405 C178.020305,245.655651 182.003684,271.409718 185.956833,297.170855 C186.571897,301.184322 189.244923,303.845042 192.074913,306.660125 L192.865543,307.449621 C196.286179,310.886875 199.689376,314.344161 203.093735,317.799089 L207.545679,322.316892 C208.15144,322.929635 208.15144,323.925343 207.545679,324.538086 C207.243379,324.845636 206.845739,325 206.449261,325" id="Fill-29" fill="#FFFFFF"></path>
                    <path d="M625.577937,388 C625.459813,388 625.34287,387.988165 625.224746,387.959762 C624.375434,387.76567 623.846239,386.91948 624.039962,386.06974 C626.020902,377.399545 631.623525,373.625419 640.698994,374.84914 C646.810731,375.679945 652.538566,373.911821 658.606597,372.046653 C659.45709,371.785103 660.306402,371.52237 661.16162,371.269104 C666.78078,369.592109 672.41884,367.581372 677.873807,365.63691 C689.250333,361.579931 701.014305,357.385668 713.523639,355.853058 C718.046608,355.299188 723.094048,354.235237 726.226697,350.554606 C726.790149,349.889489 727.787116,349.812562 728.447429,350.378267 C729.108924,350.942788 729.188067,351.939281 728.622253,352.603215 C724.767866,357.13477 718.730547,358.395179 713.90518,358.986921 C701.74313,360.476925 690.145713,364.612014 678.931017,368.611002 C673.43825,370.568483 667.758847,372.594605 662.060544,374.294086 C661.215957,374.546168 660.372551,374.805351 659.530327,375.065717 C653.407958,376.947455 647.075329,378.8931 640.27611,377.978268 C632.788228,376.96639 628.731849,379.682483 627.112368,386.772728 C626.944632,387.505304 626.29495,388 625.577937,388" id="Fill-31" fill="#FFFFFF"></path>
                    <path d="M398.579054,640 C398.414556,640 398.245323,639.974187 398.079641,639.91904 C397.252415,639.646828 396.805074,638.760964 397.081999,637.939633 C397.479636,636.755743 397.911593,635.57772 398.342366,634.40087 C399.272551,631.861784 400.151849,629.464671 400.721085,626.971345 C407.425285,597.670952 415.924768,563.816865 432.018399,532.850343 C432.417219,532.080638 433.371074,531.776746 434.145045,532.175678 C434.9202,532.57109 435.223161,533.514447 434.824341,534.284152 C418.901125,564.923315 410.460815,598.552122 403.800401,627.66713 C403.186195,630.348188 402.23234,632.952981 401.309255,635.469773 C400.88795,636.62081 400.465461,637.771847 400.076108,638.929923 C399.855988,639.584641 399.240598,640 398.579054,640" id="Fill-33" fill="#FFFFFF"></path>
                    <path d="M591.428574,656 C590.9523,656 590.478384,655.782933 590.170692,655.371214 C589.792267,654.866297 589.385548,654.375538 588.982366,653.884778 C588.034533,652.738098 587.057229,651.551309 586.347534,650.15925 C565.161598,608.583865 544.019281,566.986066 522.879323,525.385908 L513.171116,506.286382 C512.777365,505.513671 513.086236,504.565183 513.86077,504.16998 C514.62941,503.778316 515.5796,504.086221 515.97453,504.860111 L525.680379,523.959637 C546.821517,565.558615 567.963833,607.155235 589.14859,648.730619 C589.701492,649.814774 590.530256,650.818708 591.404996,651.881628 C591.842367,652.410139 592.278558,652.938649 592.685277,653.481316 C593.20517,654.176166 593.067239,655.162405 592.37287,655.685017 C592.089935,655.897365 591.757486,656 591.428574,656" id="Fill-35" fill="#FFFFFF"></path>
                    <path d="M381.545812,115 C381.421938,115 381.295748,114.985928 381.169559,114.953095 C380.342961,114.744367 379.839361,113.895382 380.046589,113.055779 C380.304757,112.009793 380.571028,110.96498 380.837299,109.920166 C381.395311,107.729693 381.973003,105.465344 382.45808,103.232656 C387.496394,80.027478 392.517342,56.8176092 397.53829,33.6065677 L401.946815,13.2286007 C402.128574,12.384307 402.954015,11.8531056 403.785244,12.0360359 C404.618788,12.2213114 405.1467,13.0550515 404.963783,13.8981726 L400.554101,34.2761395 C395.53431,57.487181 390.512204,80.6982225 385.473891,103.905746 C384.977237,106.192375 384.392598,108.484867 383.82764,110.70231 C383.563684,111.740088 383.298571,112.775521 383.042719,113.815644 C382.866748,114.525085 382.236959,115 381.545812,115" id="Fill-37" fill="#FFFFFF"></path>
                    <path d="M314.442585,520 C313.911957,520 313.395354,519.728611 313.104326,519.240812 C310.407939,514.734815 306.660813,510.97046 301.311283,507.400288 C290.904419,500.451788 284.11027,490.335521 277.53936,480.553811 C274.57532,476.140227 271.509597,471.576911 268.176221,467.41717 L266.954841,465.878907 C263.358488,461.328459 260.51834,457.736061 254.99583,455.740415 C251.158708,454.351884 247.099517,453.640657 243.173567,452.950487 C240.208359,452.428764 237.142635,451.891835 234.14587,451.06363 C233.314864,450.835522 232.82748,449.976903 233.056562,449.146358 C233.285644,448.315814 234.143532,447.828015 234.97337,448.056122 C237.827543,448.844555 240.819634,449.368617 243.712377,449.877472 C247.769231,450.588699 251.964001,451.325661 256.055918,452.805434 C262.412941,455.102884 265.650476,459.199457 269.399939,463.94175 L270.608463,465.463635 C274.024823,469.727487 277.126779,474.346953 280.12705,478.813177 C286.528487,488.343384 293.147318,498.19762 303.042254,504.803374 C308.712031,508.587616 312.877582,512.78713 315.778507,517.638212 C316.220308,518.377514 315.980707,519.335564 315.242034,519.778911 C314.990745,519.928643 314.714912,520 314.442585,520" id="Fill-39" fill="#FFFFFF"></path>
                    <path d="M154.005106,541 C153.544538,541 153.088681,540.79922 152.778887,540.412923 C152.235864,539.737784 152.345411,538.753842 153.021539,538.211382 L170.733987,524.062817 L152.767108,513.381531 C152.281803,513.092688 151.989678,512.569015 152,512.006595 C152.012058,511.444175 152.325386,510.929895 152.820114,510.662188 C155.005164,509.476292 157.119538,508.451254 159.164415,507.460268 C163.44028,505.387885 167.133073,503.598473 170.172118,501.020029 C173.849597,497.902648 178.518889,496.376246 183.035051,494.900334 C188.261501,493.18959 193.198182,491.576302 195.320802,487.706287 C199.898216,479.361569 206.443941,473.238352 212.772929,467.313567 C216.931001,463.423592 220.858201,459.750835 224.293028,455.47926 C235.175871,441.944778 247.481647,429.532787 259.383394,417.531751 C262.696895,414.187758 266.012752,410.843765 269.302695,407.472767 C269.909326,406.856335 270.903494,406.838723 271.52426,407.443413 C272.146204,408.046928 272.160339,409.037915 271.554886,409.657869 C268.259054,413.034738 264.937307,416.383427 261.617916,419.733291 C249.772709,431.677968 237.524652,444.030077 226.744289,457.436576 C223.170467,461.880752 218.978234,465.804778 214.923818,469.598472 C208.773876,475.353005 202.414262,481.302447 198.078323,489.209205 C195.357317,494.165313 189.591378,496.05218 184.013906,497.875642 C179.786336,499.256448 175.415059,500.687743 172.208749,503.405911 C168.865799,506.240321 164.820807,508.199985 160.539052,510.277065 C159.311655,510.872362 158.058344,511.4794 156.785008,512.122837 L174.287785,522.530545 C174.729507,522.790033 175.015742,523.254998 175.049902,523.764582 C175.08524,524.277687 174.867324,524.775529 174.465652,525.096073 L154.987495,540.655973 C154.696548,540.886107 154.350238,541 154.005106,541" id="Fill-41" fill="#FFFFFF"></path>
                    <path d="M582.569064,429 C582.349062,429 582.126707,428.95406 581.912588,428.856291 C581.125522,428.492307 580.780814,427.559378 581.145523,426.771336 C582.31612,424.228161 583.523189,421.695588 584.732611,419.159482 C593.004443,401.804878 601.558631,383.861304 596.99977,363.393403 C594.499749,352.167626 597.415067,346.22727 607.752799,341.473101 C618.752889,336.413844 629.800038,330.950554 640.483655,325.663956 C656.804965,317.589171 673.681574,309.241103 690.829949,302.119273 C691.626427,301.789449 692.546434,302.16639 692.879378,302.969746 C693.212322,303.770746 692.832319,304.690718 692.031136,305.021719 C674.980408,312.104678 658.148506,320.429186 641.871902,328.48159 C631.169461,333.776435 620.102312,339.252682 609.062222,344.328429 C600.07156,348.46418 597.885659,352.930932 600.059795,362.709019 C604.855128,384.235889 596.065645,402.676554 587.565575,420.51058 C586.363212,423.034907 585.160849,425.555701 583.996134,428.088274 C583.729073,428.660753 583.163186,429 582.569064,429" id="Fill-43" fill="#FFFFFF"></path>
                    <path d="M331.421213,162 C330.693984,162 330.04007,161.49795 329.880434,160.763644 C328.333744,153.627029 323.508021,146.910353 316.640146,142.334427 C298.87212,130.499893 285.520677,114.348668 272.607937,98.731165 C266.780649,91.6825262 260.754703,84.3922466 254.421312,77.6298232 C253.828887,76.9963958 253.865544,76.0063723 254.504086,75.4175195 C255.142628,74.8298397 256.13828,74.8673761 256.733071,75.4996305 C263.132682,82.3336077 269.189372,89.6614238 275.047404,96.746426 C287.814699,112.190323 301.015966,128.158557 318.398501,139.737375 C325.939211,144.760219 331.247388,152.185395 332.964356,160.106756 C333.147642,160.951326 332.606063,161.784165 331.753491,161.96481 C331.642338,161.98827 331.531184,162 331.421213,162" id="Fill-45" fill="#FFFFFF"></path>
                    <path d="M437.448466,476 C437.069257,476 436.690048,475.859945 436.389938,475.579835 C429.565343,469.134955 424.912475,461.102393 420.413151,453.33464 C417.435315,448.193801 414.35628,442.875244 410.701451,438.146331 C408.896138,435.810121 408.904281,432.135738 409.068295,428.573165 C409.545214,418.170261 410.178004,407.604941 410.789856,397.387993 C411.008541,393.750096 411.226062,390.112199 411.437768,386.476655 C411.487786,385.609256 412.221776,384.95959 413.077904,385.001959 C413.932869,385.052567 414.585433,385.794035 414.535415,386.65908 C414.323709,390.300508 414.105025,393.939582 413.887503,397.578656 C413.275651,407.785012 412.644024,418.337386 412.168268,428.719104 C412.067068,430.918791 411.897239,434.597881 413.145371,436.211455 C416.928153,441.108669 420.060696,446.516672 423.089714,451.749313 C427.477369,459.321694 432.012752,467.153001 438.506993,473.282464 C439.132804,473.873284 439.1677,474.866614 438.583765,475.502158 C438.276676,475.832876 437.863734,476 437.448466,476" id="Fill-47" fill="#FFFFFF"></path>
                    <path d="M493.292485,245 C493.280776,245 493.267895,245 493.257356,244.998823 C492.394352,244.978806 491.710506,244.260579 491.730413,243.392819 C491.806526,240.141957 491.771397,236.805143 491.736268,233.579007 C491.622684,222.875064 491.505587,211.829669 495.237465,200.431047 L448.998246,200.431047 C448.512294,200.431047 448.055616,200.203805 447.759361,199.817611 C447.465448,199.431416 447.364745,198.928657 447.487697,198.457688 C448.0966,196.149941 448.672717,193.990549 449.223072,191.930061 C450.391699,187.554761 451.401074,183.776414 452.365953,179.906228 C456.15755,164.666856 453.710225,160.151443 438.588333,154.478624 C436.899796,153.845171 435.206575,153.218783 433.512183,152.592394 C424.904391,149.409823 416.005028,146.118928 407.746184,141.816629 C401.716866,138.677622 398.394827,140.324835 394.692224,144.231521 C394.098542,144.860264 393.107903,144.883813 392.484947,144.285682 C391.85965,143.688729 391.83623,142.694985 392.431083,142.066242 C397.729717,136.469956 402.583383,135.590421 409.182963,139.029671 C417.267332,143.240132 426.073018,146.495703 434.589475,149.64413 C436.289721,150.272873 437.987626,150.900439 439.680847,151.535069 C456.16926,157.721244 459.547505,163.983951 455.394078,180.66802 C454.425687,184.565287 453.412799,188.355408 452.240659,192.746014 C451.849556,194.203663 451.446742,195.713118 451.028706,197.289686 L497.437715,197.289686 C497.9506,197.289686 498.428355,197.541654 498.721097,197.963171 C499.011497,198.385865 499.080584,198.925125 498.902597,199.40669 C494.621535,211.011361 494.743316,222.466499 494.860413,233.546039 C494.895542,236.798079 494.930671,240.161973 494.854558,243.465819 C494.834651,244.321805 494.140267,245 493.292485,245" id="Fill-49" fill="#FFFFFF"></path>
                    <path d="M543.420688,204 C543.129775,204 542.834131,203.920057 542.568052,203.749591 C536.154955,199.638424 528.849016,198.759055 521.112619,197.829134 C513.552426,196.919198 505.740344,195.978697 498.760795,191.781708 C498.188429,191.437249 497.896334,190.771844 498.033512,190.119371 C501.015963,175.940133 503.687397,160.841555 500.838577,145.860539 C500.676564,145.009385 501.239469,144.189973 502.096835,144.028912 C502.951836,143.863149 503.777272,144.42745 503.938102,145.278604 C506.820034,160.42891 504.3047,175.485166 501.354179,189.651472 C507.502379,193.032575 514.30809,193.851987 521.48986,194.714897 C529.24163,195.64717 537.254749,196.61236 544.278054,201.113836 C545.010067,201.584086 545.219382,202.553979 544.748718,203.281692 C544.445979,203.746065 543.938655,204 543.420688,204" id="Fill-51" fill="#FFFFFF"></path>
                    <path d="M537.574722,550 C537.107438,550 536.646055,549.795646 536.335712,549.401032 C535.799988,548.722201 535.917989,547.73684 536.600034,547.202466 C542.182656,542.831173 548.557064,539.852775 554.719071,536.971855 C558.6662,535.127973 562.747851,533.22067 566.517979,530.985697 C572.471124,527.452959 578.801872,524.355941 584.922578,521.359926 C598.641361,514.646785 612.826248,507.704626 623.226846,495.551445 C623.79207,494.891405 624.784457,494.813892 625.446442,495.372929 C626.107247,495.935489 626.188668,496.923199 625.624624,497.582064 C614.801582,510.232037 600.318153,517.318653 586.312628,524.172728 C580.247383,527.139382 573.975635,530.208213 568.129871,533.67753 C564.225222,535.990017 560.072771,537.932553 556.058381,539.808146 C550.053316,542.615075 543.845289,545.514785 538.545869,549.665282 C538.259127,549.888427 537.914564,550 537.574722,550" id="Fill-53" fill="#FFFFFF"></path>
                    <path d="M145.424423,397 C145.049037,397 144.67247,396.868834 144.371453,396.598305 C143.043437,395.413128 141.749653,394.149486 140.498366,392.926834 C137.740813,390.234421 135.137901,387.688399 132.099399,385.797036 C117.364906,376.608403 101.658895,370.248033 85.029765,363.514074 C79.7212396,361.363892 74.232104,359.1411 68.8338637,356.838672 C68.1055203,356.528325 67.7230515,355.729619 67.9414364,354.974244 L70.1784068,347.227264 C67.7950595,343.770108 64.1663276,342.796905 60.3357373,341.76983 C57.7658774,341.080039 55.1086636,340.369167 52.7347599,338.88184 C52,338.42276 51.7785879,337.457754 52.2436889,336.728145 C52.7052484,336 53.6767664,335.780706 54.4145535,336.240957 C56.387101,337.47415 58.7043425,338.096017 61.1573369,338.754188 C65.403449,339.89252 70.2173619,341.183097 73.2381573,346.177938 C73.4624445,346.548013 73.5214675,346.995382 73.4010606,347.411131 L71.3506029,354.510479 C76.3120732,356.611474 81.3420102,358.646886 86.219668,360.622571 C102.240861,367.110594 118.808607,373.818787 133.775651,383.151468 C137.102185,385.225527 139.951814,388.009287 142.708186,390.700528 C143.934683,391.899758 145.202497,393.137636 146.478573,394.277139 C147.125465,394.853331 147.177405,395.841759 146.595439,396.483535 C146.284978,396.827845 145.855291,397 145.424423,397" id="Fill-55" fill="#FFFFFF"></path>
                    <path d="M681.437749,120 C680.662219,120 679.990795,119.420411 679.891368,118.628032 C676.983423,95.420966 659.33456,83.7175038 642.267052,72.3984748 L639.715874,70.7043825 C636.365772,68.4730243 632.038947,68.0168773 627.45595,67.5348663 C622.03192,66.9646825 616.423072,66.374513 611.636543,62.8311443 C610.940554,62.3173911 610.793168,61.3357346 611.30434,60.6397577 C611.815511,59.940254 612.789895,59.7921238 613.485883,60.3058769 C617.59163,63.3448975 622.771188,63.8892172 627.779965,64.4159024 C632.536081,64.9167236 637.45128,65.4340037 641.441224,68.0909424 L643.984214,69.7815078 C661.643604,81.4896725 679.900726,93.5975537 682.98764,118.236545 C683.095255,119.09476 682.488166,119.880085 681.634264,119.987068 C681.568759,119.996473 681.502084,120 681.437749,120" id="Fill-57" fill="#FFFFFF"></path>
                    <path d="M694.133168,213 C694.079415,213 694.025662,212.997648 693.97191,212.991767 C693.116541,212.904728 692.493711,212.133145 692.580183,211.272171 C693.905303,198.225823 695.271322,184.746637 700.643084,172.313087 L668.316693,129.518433 C667.797863,128.829183 667.929908,127.844709 668.61467,127.320126 C669.298264,126.795543 670.279834,126.92963 670.797496,127.620056 L703.682447,171.152183 C704.029502,171.610899 704.096109,172.22252 703.862401,172.747102 C698.384303,184.951294 697.010104,198.493996 695.682647,211.590919 C695.600849,212.397789 694.923098,213 694.133168,213" id="Fill-59" fill="#FFFFFF"></path>
                    <path d="M510.392011,507 C507.119275,507 503.666745,505.7855 500.493895,504.665329 C498.874566,504.092274 497.344548,503.553413 495.942618,503.204392 C476.219243,498.3063 455.272559,492.686583 435.096759,482.705277 C434.724243,482.520154 434.439862,482.194715 434.305897,481.800887 C434.173108,481.405879 434.201311,480.975498 434.384631,480.599357 C441.22036,466.691559 446.500217,451.966627 451.608505,437.728674 C455.963535,425.588388 460.458406,413.050735 465.956837,400.852671 C460.545365,399.171237 456.811979,395.235312 453.186704,391.417301 C449.103129,387.111131 445.244003,383.044323 439.126279,382.010229 C436.19433,381.516175 433.599644,381.721343 430.848666,381.943019 C430.009623,382.00905 429.16118,382.077439 428.291584,382.126963 C422.697967,382.445327 417.091424,383.765949 411.671727,385.041763 C408.736253,385.73509 405.698543,386.449641 402.719589,386.992039 C391.709801,388.9883 382.051411,396.329542 372.709131,403.429063 C370.137947,405.384054 367.480979,407.405077 364.836938,409.281068 C362.022502,411.278508 359.217468,413.400936 356.505269,415.452616 C349.131331,421.036959 341.50709,426.808784 332.638387,430.87677 C324.968317,434.398821 318.123187,436.575489 311.993711,427.531588 C310.535375,425.377324 309.000656,423.245463 307.376627,420.987436 C306.904225,420.330662 306.425947,419.665635 305.935918,418.980562 C289.529934,430.848471 280.796371,420.665534 273.743244,412.442306 C271.813681,410.191353 269.98988,408.068926 268.09087,406.401641 C252.137311,392.427812 236.75134,377.299619 221.870674,362.671375 C215.859886,356.761593 209.644626,350.651359 203.481072,344.705024 C202.857078,344.103669 202.837101,343.107307 203.438767,342.48237 C204.039258,341.853896 205.029892,341.839746 205.652711,342.438743 C211.829192,348.394511 218.049153,354.511819 224.065816,360.42396 C238.913578,375.022725 254.267821,390.117903 270.152048,404.033955 C272.220276,405.845093 274.114585,408.051239 276.119356,410.389447 C283.474492,418.966413 290.421858,427.068191 305.32015,415.516289 C305.658588,415.253344 306.091035,415.146043 306.507031,415.20382 C306.928903,415.267493 307.308469,415.498602 307.555247,415.846444 C308.368436,416.990197 309.154598,418.084426 309.918432,419.146819 C311.555388,421.422534 313.101858,423.570902 314.586047,425.762898 C319.01041,432.292901 323.148041,431.772906 331.333994,428.018567 C339.892462,424.092076 347.378038,418.422836 354.618011,412.942255 C357.349012,410.875247 360.172848,408.738669 363.026063,406.71293 C365.628975,404.866418 368.267141,402.861903 370.817172,400.92224 C380.450884,393.598685 390.413633,386.025155 402.160228,383.895652 C405.059272,383.369762 408.058203,382.664644 410.954897,381.980751 C416.50621,380.6731 422.246718,379.320642 428.114139,378.986949 C428.960233,378.939784 429.783999,378.872573 430.600714,378.806542 C433.418674,378.581329 436.334171,378.347862 439.646861,378.907947 C446.793999,380.116552 451.19721,384.757594 455.458229,389.248887 C459.323231,393.320411 462.973183,397.16908 468.465739,398.247981 C468.938141,398.339952 469.34121,398.645346 469.559784,399.075727 C469.778358,399.50493 469.787759,400.013133 469.587987,400.450589 C463.785198,413.063706 459.095255,426.144935 454.556905,438.794605 C449.594333,452.635192 444.464892,466.929743 437.886517,480.571058 C457.353713,489.987562 477.598846,495.408007 496.697051,500.151633 C498.243522,500.538387 499.841698,501.099651 501.533885,501.696289 C505.948846,503.252736 510.510699,504.863423 513.794011,503.065255 C519.239562,500.085602 525.092882,497.46912 530.753481,494.938715 C551.008015,485.884202 570.139124,477.330818 576.292102,452.321544 C576.741002,450.506869 577.813895,448.983437 578.853885,447.50835 C579.283982,446.898741 579.712905,446.291491 580.087771,445.666554 C580.533145,444.923704 581.494401,444.679625 582.238258,445.127693 C582.98094,445.574582 583.221842,446.542645 582.776467,447.285495 C582.362822,447.975284 581.889245,448.652103 581.413317,449.325384 C580.501417,450.617707 579.641222,451.839282 579.336863,453.077364 C572.813719,479.578233 552.080908,488.846168 532.028497,497.809888 C526.426654,500.315532 520.62974,502.907252 515.294652,505.826769 C513.750532,506.671024 512.095949,507 510.392011,507" id="Fill-61" fill="#FFFFFF"></path>
                    <path d="M258.636169,300 C258.416662,300 258.194832,299.95316 257.983455,299.854797 C257.207632,299.489447 256.871984,298.560849 257.232022,297.779796 C258.889357,294.190701 257.381844,292.690659 254.347073,290.136722 C252.44468,288.537145 250.289098,286.723276 249.798982,283.932798 C246.372816,264.394772 239.627333,245.212727 229.180428,225.291786 C228.779741,224.53064 229.068933,223.584478 229.825012,223.181656 C230.582253,222.777663 231.519513,223.070411 231.917877,223.832728 C242.519249,244.044076 249.365776,263.524724 252.850013,283.388286 C253.141527,285.055781 254.692013,286.360268 256.331927,287.738527 C259.053116,290.027819 262.780089,293.16374 260.041478,299.097164 C259.778999,299.666267 259.219198,300 258.636169,300" id="Fill-63" fill="#FFFFFF"></path>
                    <path d="M592.573911,308 C592.11178,308 591.656723,307.797626 591.346671,307.410629 C590.803196,306.731314 590.910476,305.737195 591.585989,305.191612 C600.549204,297.959393 610.706649,289.76264 623.213653,286.438257 C637.154205,282.735162 651.641769,277.551538 668.805447,270.128779 C669.59885,269.785571 670.527827,270.151265 670.870889,270.953661 C671.215129,271.753691 670.847311,272.682719 670.049192,273.027111 C652.739329,280.514961 638.115012,285.745924 624.020024,289.490441 C612.155524,292.64322 602.275121,300.616295 593.558297,307.652058 C593.265929,307.886386 592.91933,308 592.573911,308" id="Fill-65" fill="#FFFFFF"></path>
                    <path d="M644.569234,233 C644.064939,233 643.568873,232.759453 643.267942,232.312222 C642.783631,231.598754 642.974064,230.630726 643.692302,230.150799 C651.434222,224.970859 660.27172,222.515175 668.820041,220.140062 C676.799415,217.923758 685.050332,215.631553 692.349084,211.120707 C702.223383,205.01828 714.998845,202.740087 726.51886,205.024118 C729.652774,205.64417 733.665971,205.89873 738.478516,205.781959 C762.426042,205.193436 783.571147,195.106798 804.020349,185.352956 C806.263226,184.282171 808.509629,183.210217 810.759558,182.151109 C811.5448,181.780946 812.476981,182.11491 812.847267,182.890266 C813.219904,183.667958 812.887234,184.596283 812.104343,184.965278 C809.856765,186.023219 807.617415,187.091669 805.37689,188.16012 C784.630283,198.057589 763.177194,208.29019 738.554924,208.895061 C733.520208,209.023509 729.267206,208.744427 725.906418,208.077668 C715.144608,205.945438 703.222568,208.068326 694.00538,213.76556 C686.325762,218.511114 677.8562,220.86404 669.665234,223.141065 C660.974676,225.554712 652.767253,227.83524 645.443815,232.734931 C645.175798,232.91359 644.87134,233 644.569234,233" id="Fill-67" fill="#FFFFFF"></path>
                    <path d="M310.564076,227 C309.919088,227 309.315145,226.598228 309.088813,225.95516 C308.802673,225.141074 309.23071,224.248509 310.04574,223.962701 C330.366368,216.825692 354.643701,209.038586 380.630838,205.401558 C381.844587,205.231713 383.063027,205.070067 384.284986,204.908422 C392.978246,203.755817 401.9682,202.56573 409.538009,198.057221 C415.901105,194.266747 423.132002,193.1036 430.430917,194.688431 C433.947858,195.450977 437.244331,195.100745 440.7343,194.729428 C442.915531,194.49633 445.180024,194.256204 447.475007,194.315943 C448.338118,194.337027 449.020632,195.053891 449,195.917173 C448.978415,196.766398 448.281828,197.439922 447.435135,197.439922 C447.423408,197.439922 447.409336,197.439922 447.395263,197.43875 C445.301985,197.387211 443.241543,197.605082 441.065003,197.837008 C437.481217,198.217695 433.774298,198.611267 429.767166,197.740958 C423.2481,196.327143 416.808778,197.363784 411.141097,200.740774 C403.017771,205.578431 393.702977,206.811858 384.695432,208.006631 C383.482856,208.165934 382.271452,208.327579 381.064738,208.495082 C355.349669,212.094627 331.257623,219.824337 311.082411,226.910978 C310.911196,226.970716 310.736463,227 310.564076,227" id="Fill-69" fill="#FFFFFF"></path>
                    <path d="M348.196979,599 C347.121897,599 346.057424,598.63259 345.099045,597.896589 C343.744583,596.858155 342.596414,595.01638 343.136313,593.651884 C344.192534,590.984324 345.98198,588.685355 347.711306,586.460812 C348.222913,585.80042 348.73452,585.144753 349.223729,584.481998 C364.913796,563.198221 376.106673,539.411097 384.98553,518.947199 C385.330923,518.148585 386.257474,517.784719 387.054355,518.130864 C387.851236,518.477009 388.215491,519.406757 387.868918,520.203008 C378.919332,540.829936 367.629793,564.816714 351.752294,586.353307 C351.246581,587.03969 350.720828,587.716621 350.192717,588.395916 C348.610744,590.429074 347.113645,592.355908 346.203597,594.464675 C346.402818,594.846261 346.94861,595.504291 347.654722,595.753563 C348.037838,595.891784 348.652002,595.995746 349.540831,595.329446 C350.238691,594.808457 351.223004,594.952586 351.741684,595.64842 C352.261543,596.346616 352.118906,597.33307 351.422225,597.855241 C350.401368,598.619595 349.293279,599 348.196979,599" id="Fill-71" fill="#FFFFFF"></path>
                    <path d="M356.761537,413 C356.253483,413 355.754815,412.75392 355.454441,412.296915 C343.426571,394.115147 344.215053,374.806099 357.931353,351.533997 C362.862886,343.16729 368.119432,334.819331 373.203498,326.746748 C375.510277,323.082505 377.819402,319.417091 380.105061,315.739958 C380.561489,315.005234 381.525972,314.780247 382.26048,315.234909 C382.993815,315.691914 383.220269,316.653968 382.765015,317.386348 C380.474662,321.070511 378.164363,324.740613 375.852891,328.409543 C370.781732,336.465721 365.535745,344.793759 360.628853,353.118281 C347.587221,375.245527 346.772926,393.502291 358.066287,410.576702 C358.541488,411.29502 358.344368,412.266448 357.622766,412.739859 C357.356419,412.91563 357.057218,413 356.761537,413" id="Fill-73" fill="#FFFFFF"></path>
                    <path d="M493.430052,337 C493.198398,337 492.964392,336.948391 492.742145,336.841655 C482.003737,331.603363 471.282969,326.329884 460.561024,321.054058 C434.69689,308.328974 407.951999,295.169906 381.391727,282.794354 C372.674708,278.732508 363.401484,275.400222 354.433997,272.175846 C346.248489,269.234145 337.783115,266.192746 329.704616,262.588341 C323.673375,259.897647 318.73573,255.455772 315.451414,249.973512 C315.097465,250.501329 314.43778,250.776967 313.783974,250.625659 C311.4592,250.073211 310.203329,251.33528 308.184292,253.61545 C306.696766,255.295081 305.010512,257.198742 302.467019,257.708965 C302.136588,257.776995 301.790871,257.733597 301.482783,257.586981 L225.894131,221.646153 C225.148604,221.291929 224.806414,220.421617 225.110975,219.656869 L225.720096,218.125026 C233.891492,197.554233 242.313358,176.267955 270.362332,178.111796 C270.736271,178.136428 271.087868,178.2936 271.355976,178.55399 C272.404887,179.576782 273.489076,180.597228 274.585024,181.628231 C277.032092,183.93186 279.561474,186.312901 281.893303,188.887476 C283.75712,190.94479 285.656214,192.977472 287.555308,195.010155 C299.185055,207.456083 311.211084,220.324264 314.594176,238.93275 C316.265143,248.123806 322.392809,255.899139 330.985181,259.732264 C338.957849,263.288579 347.365603,266.310038 355.497019,269.232972 C364.531533,272.479634 373.87296,275.837724 382.719329,279.958216 C409.310175,292.349017 436.070352,305.515122 461.948597,318.248417 C472.667014,323.521896 483.385431,328.795376 494.120311,334.030149 C494.898763,334.410177 495.219787,335.346173 494.841144,336.122651 C494.568333,336.678618 494.010951,337 493.430052,337 L493.430052,337 Z M228.566973,219.450434 L302.309447,254.513912 C303.608827,254.055298 304.693016,252.831935 305.833648,251.542888 C307.735094,249.396432 310.073979,246.739752 314.115581,247.497463 C312.902042,244.986226 312.017758,242.297878 311.507413,239.491064 C308.288948,221.785731 297.103695,209.816012 285.261108,197.143709 C283.351431,195.099297 281.440577,193.054886 279.565001,190.98467 C277.317838,188.502756 274.834317,186.165113 272.431933,183.90371 C271.468863,182.997037 270.5152,182.098575 269.585056,181.200113 C244.31358,179.840691 236.690158,199.001625 228.636352,219.276841 L228.566973,219.450434 Z" id="Fill-75" fill="#FFFFFF"></path>
                    <path d="M299.554093,371 C299.518013,371 299.480768,370.998818 299.444688,370.996454 C298.588068,370.933804 297.944439,370.182009 298.003797,369.312007 L302.899102,298.467118 C302.959624,297.597116 303.702184,296.944614 304.556476,297.003718 C305.411932,297.065185 306.055561,297.819345 305.996203,298.686983 L301.100898,369.533053 C301.043867,370.365229 300.36183,371 299.554093,371" id="Fill-77" fill="#FFFFFF"></path>
                    <path d="M501.426908,559 C496.896409,559 492.308368,557.805666 487.324584,555.424064 C470.580055,547.42179 452.951269,540.532578 435.902594,533.871868 C429.414514,531.335969 422.720931,528.722332 416.147127,526.072182 C414.811933,528.458495 412.797986,530.325378 410.461103,531.304167 C410.038351,531.483199 409.559231,531.463176 409.151744,531.257053 C406.774935,530.052118 404.452144,528.863673 402.159885,527.688185 C397.124431,525.108705 392.367289,522.671745 387.506808,520.304278 C372.991125,513.236034 365.227742,503.815635 363.072878,490.661468 C362.870896,489.434155 362.701795,488.192707 362.532694,486.944191 C361.765868,481.289361 361.038968,475.949014 357.36924,471.582745 C356.811441,470.921974 356.894818,469.930229 357.55713,469.369575 C358.21592,468.810099 359.203517,468.896082 359.763664,469.55803 C364.020549,474.620406 364.842568,480.670992 365.636403,486.520167 C365.801981,487.740414 365.966385,488.952416 366.16367,490.151462 C368.165873,502.376309 375.17065,510.804963 388.874882,517.479807 C393.763547,519.860231 398.533607,522.30308 403.584327,524.889626 C405.652292,525.948509 407.747266,527.022703 409.882167,528.106319 C411.626022,527.174645 413.080995,525.51624 413.934721,523.464435 C414.264703,522.668212 415.168924,522.293657 415.966282,522.610498 C422.953445,525.440858 430.114405,528.238238 437.039328,530.943747 C454.140848,537.625658 471.823653,544.536071 488.671521,552.588993 C498.089511,557.089536 505.613334,556.962329 514.6438,552.155546 C518.346409,550.183835 522.037275,548.182677 525.726966,546.182697 L530.691961,543.496034 C531.451742,543.083789 532.402935,543.368827 532.81277,544.135604 C533.222606,544.896491 532.937248,545.850545 532.175118,546.263969 L527.217169,548.948276 C523.519258,550.951789 519.82252,552.952947 516.111692,554.92937 C511.012825,557.646657 506.25216,559 501.426908,559" id="Fill-79" fill="#FFFFFF"></path>
                    <path d="M225.438191,457 C225.210085,457 224.97613,456.948098 224.757382,456.840756 C198.259641,443.835821 174.93199,426.612686 155.422484,405.651443 C154.832917,405.016826 154.864501,404.021255 155.4915,403.426744 C156.120839,402.832233 157.108129,402.861722 157.697696,403.497519 C176.946342,424.180379 199.968682,441.174675 226.122509,454.012109 C226.8969,454.391935 227.219758,455.334425 226.841921,456.115311 C226.572873,456.674434 226.01723,457 225.438191,457" id="Fill-81" fill="#FFFFFF"></path>
                    <path d="M789.430904,308 C789.287454,308 789.141652,307.978745 788.99585,307.936234 C784.915756,306.754211 775.362219,303.985135 777.275278,296.232903 C778.42523,291.57684 776.824939,288.500745 774.971847,284.940504 C774.311036,283.669917 773.629061,282.35682 773.076425,280.950437 C767.946323,267.8667 760.546889,255.819743 753.335586,244.173091 L753.302663,244.190804 C747.723398,247.434579 741.401014,251.105819 733.680581,245.786123 C733.122067,245.402349 732.872793,244.700928 733.063276,244.049103 C736.187429,233.250297 738.800101,221.744166 733.604153,210.226226 C733.245528,209.435061 733.595922,208.502196 734.384897,208.14322 C735.175048,207.778339 736.10277,208.136135 736.460219,208.927299 C741.903089,220.988426 739.406824,233.186531 736.399077,243.791679 C742.039484,247.096858 746.549929,244.476568 751.730592,241.465419 L753.092191,240.680159 C753.818848,240.26096 754.751273,240.497128 755.19926,241.216261 L755.559061,241.798417 C762.97966,253.78397 770.656588,266.178095 775.99481,279.795573 C776.485127,281.048447 777.102433,282.23047 777.751485,283.480983 C779.628094,287.088457 781.756328,291.175353 780.319476,296.992185 C779.488171,300.361129 782.344237,302.728718 789.865957,304.910916 C790.697262,305.151807 791.178172,306.02445 790.938305,306.860487 C790.738415,307.550099 790.112879,308 789.430904,308" id="Fill-83" fill="#FFFFFF"></path>
                    <path d="M602.423541,252 C601.722602,252 601.085385,251.527364 600.90012,250.817229 C594.64241,226.520205 573.849068,218.791428 555.505472,211.971294 L554.024532,211.419492 C553.230371,211.124094 552.81382,210.252081 553.080507,209.446237 C562.565603,180.816325 580.897399,159.524083 597.57833,142.472566 C598.187226,141.85105 599.183173,141.841597 599.80505,142.450115 C600.426927,143.058634 600.435187,144.055896 599.828651,144.678593 C583.679914,161.183035 565.972355,181.700154 556.555701,208.998415 L556.600542,209.016139 C575.667497,216.104494 597.280962,224.139302 603.949322,250.029109 C604.167628,250.872764 603.660214,251.731779 602.820031,251.949192 C602.687868,251.983458 602.554524,251.998818 602.423541,252" id="Fill-85" fill="#FFFFFF"></path>
                    <path d="M523.163784,452 C519.372119,452 515.484314,450.971747 511.427678,449.702386 C508.60093,448.819506 505.762457,447.967356 502.925157,447.116388 L499.114733,445.971126 C498.286991,445.721745 497.818016,444.843593 498.066573,444.009172 C498.313957,443.17475 499.180389,442.704354 500.01282,442.952553 L503.817382,444.096632 C506.667579,444.948782 509.516604,445.804478 512.353904,446.692085 C521.375816,449.510918 528.329547,450.859466 535.742873,442.492793 C540.663596,436.939044 547.136627,432.768117 553.39393,428.733109 C556.109296,426.985079 558.913768,425.177953 561.529478,423.295186 C562.230596,422.785787 563.206065,422.953617 563.707868,423.660393 C564.210844,424.368351 564.047875,425.352874 563.345585,425.85991 C560.666563,427.791135 557.825746,429.619535 555.081068,431.390021 C548.997287,435.309203 542.709501,439.361939 538.077198,444.591849 C533.14475,450.159781 528.235752,452 523.163784,452" id="Fill-87" fill="#FFFFFF"></path>
                    <path d="M802.429177,549 C801.902374,549 801.38382,548.732831 801.08683,548.250278 C796.963148,541.531029 790.056953,540.935489 782.746522,540.30464 L782.470746,540.279924 C775.321774,539.662021 770.466224,536.027577 768.423829,529.767342 C768.272977,529.298913 768.346046,528.785759 768.628893,528.38324 C769.865173,526.613096 771.658898,525.739794 773.240487,524.968887 C775.351237,523.941403 776.908077,523.182266 777.390097,520.731841 C776.072498,518.093103 774.736044,515.393163 773.380732,512.65556 C769.913493,505.651487 766.330757,498.410846 762.566527,491.264362 C758.48763,483.522337 757.677978,477.218554 759.861797,470.185058 C762.124578,462.890277 763.834627,455.289487 765.491642,447.939389 C766.146906,445.032304 766.798634,442.134635 767.483361,439.261683 L751.568471,423.368052 C751.287981,423.09029 751.124165,422.713664 751.107665,422.318206 C751.003954,419.645336 750.995705,417.189026 750.987455,414.813927 C750.97567,411.125343 750.960349,407.643903 750.589111,403.981212 C749.634501,394.632641 745.49432,386.496335 741.490848,378.627199 C739.24221,374.207724 736.91461,369.637599 735.147991,364.866215 C731.22466,354.281838 723.19886,346.27029 711.294513,341.057546 C705.536208,338.537681 702.351816,334.654899 700.307064,327.657888 C695.380802,310.819161 686.544173,296.300216 677.725222,283.120649 C671.687605,274.102802 664.688306,265.66755 657.921178,257.510059 C652.316082,250.755501 646.522421,243.771437 641.294455,236.483718 C640.788865,235.77872 640.950324,234.798315 641.656264,234.2934 C642.362205,233.788486 643.347457,233.952083 643.848333,234.654726 C649.012658,241.854174 654.77332,248.79469 660.341882,255.506878 C667.160865,263.72557 674.212019,272.224379 680.336847,281.376398 C689.296044,294.764287 698.281168,309.530393 703.324105,326.777524 C705.124901,332.933011 707.626923,336.0237 712.555542,338.18224 C725.273076,343.749248 733.865749,352.361044 738.095499,363.776352 C739.800834,368.378255 742.084828,372.864816 744.293396,377.205435 C748.428863,385.329971 752.704575,393.732268 753.715755,403.664611 C754.104671,407.479129 754.117635,411.037071 754.131777,414.803334 C754.13767,416.966581 754.145919,419.198092 754.228417,421.584962 L770.328336,437.663375 C770.714894,438.049417 770.872817,438.608471 770.744357,439.139279 C769.990097,442.279401 769.275907,445.448947 768.55936,448.626732 C766.890559,456.039208 765.164011,463.700023 762.864696,471.114854 C760.951939,477.279756 761.694414,482.867949 765.346683,489.801404 C769.130948,496.984374 772.725469,504.243847 776.198601,511.264397 C777.629339,514.156181 779.037684,517.00324 780.429529,519.780859 C780.568596,520.062152 780.622809,520.377577 780.58156,520.688293 C779.986402,525.176031 777.011788,526.626043 774.61819,527.79123 C773.475015,528.349108 772.454407,528.845784 771.700146,529.595506 C773.476193,534.131499 777.187389,536.671373 782.741808,537.153925 L783.017585,537.176287 C790.782929,537.847153 798.8158,538.540381 803.769168,546.6096 C804.221724,547.348729 803.988375,548.315011 803.248257,548.768139 C802.993694,548.925852 802.708489,549 802.429177,549" id="Fill-89" fill="#FFFFFF"></path>
                    <path d="M733.569026,352 C732.829554,352 732.171329,351.475388 732.027673,350.716829 C731.866355,349.862563 732.426847,349.037835 733.278183,348.875962 L734.434491,348.656192 C742.263715,347.176882 749.657261,345.7791 756.267768,340.653504 C774.000976,326.901356 785.181376,314.685233 792.523112,301.042971 C800.649066,285.948574 813.675792,283.854854 826.324538,283.005314 C827.191181,282.933239 827.940073,283.603182 827.996594,284.47399 C828.053114,285.341254 827.399599,286.092724 826.532956,286.15062 C814.272786,286.972984 802.657888,288.846935 795.286714,302.541186 C785.598212,320.545758 770.371909,333.698856 758.188277,343.14659 C750.980776,348.736538 742.865419,350.2702 735.016178,351.754236 L733.863402,351.974006 C733.764492,351.991729 733.665581,352 733.569026,352" id="Fill-91" fill="#FFFFFF"></path>
                    <path d="M674.557266,273 C673.948222,273 673.369513,272.63491 673.120995,272.029971 C672.78847,271.226537 673.165331,270.303769 673.957556,269.969399 L732.844698,245.122012 C733.636922,244.78646 734.549322,245.16691 734.879513,245.970344 C735.210871,246.773778 734.835177,247.696546 734.041785,248.030917 L675.15581,272.878303 C674.959796,272.96101 674.757948,273 674.557266,273" id="Fill-93" fill="#FFFFFF"></path>
                    <path d="M435.42803,481 C435.256034,481 435.082861,480.972869 434.910865,480.912708 C422.143147,476.460797 410.092862,470.114407 398.43958,463.980349 C392.522229,460.866136 386.40461,457.644576 380.285812,454.721461 C378.451586,453.844999 376.610292,452.977973 374.768999,452.109768 C361.636084,445.920268 348.057867,439.519615 336.556554,429.773541 C335.894489,429.212039 335.810847,428.218794 336.3716,427.555844 C336.93353,426.892894 337.924271,426.812679 338.586336,427.370642 C349.770753,436.85012 363.159304,443.159942 376.107265,449.26215 C377.953271,450.132714 379.799277,451.003279 381.639393,451.880921 C387.812381,454.829987 393.958274,458.066882 399.901542,461.195251 C411.453511,467.277405 423.397772,473.565994 435.945194,477.941229 C436.76394,478.225519 437.197463,479.124394 436.912374,479.943055 C436.686189,480.593029 436.078314,481 435.42803,481" id="Fill-95" fill="#FFFFFF"></path>
                    <path d="M387.679359,207 C387.655461,207 387.631564,206.998829 387.606409,206.998829 C386.680702,206.961352 385.962525,206.232901 386.001515,205.37094 L388.646571,147.495387 C388.686819,146.633426 389.456565,145.970559 390.393591,146.001008 C391.319298,146.037314 392.037475,146.765765 391.998485,147.627726 L389.353429,205.50445 C389.315696,206.342989 388.572364,207 387.679359,207" id="Fill-97" fill="#FFFFFF"></path>
                    <path d="M273.567796,179 C272.977108,179 272.41108,178.663598 272.145681,178.093948 C271.781639,177.309799 272.123369,176.38148 272.908996,176.018123 C283.502636,171.121003 294.13268,167.829689 305.401561,165.957813 C332.903218,161.391232 360.017346,153.135987 386.238983,145.152675 L389.828913,144.061431 C386.668788,139.491333 385.197351,134.291807 383.767016,129.242312 C382.052493,123.185966 380.285125,116.943253 375.604241,111.406156 L371.052534,120.920257 C370.842329,121.360975 370.438359,121.678619 369.959232,121.778249 C369.480105,121.87788 368.983363,121.747774 368.613449,121.428957 L310.239804,70.88478 C309.773595,70.4815706 309.588051,69.8404207 309.767723,69.2508441 C310.79174,65.8774815 313.235523,64.5236824 315.020506,63.5344128 C316.090321,62.942492 316.500163,62.6564946 316.639908,62.4279311 L300.859248,46.6687718 C300.248596,46.0580971 300.248596,45.0676553 300.860423,44.4569806 C301.472249,43.8474779 302.463384,43.8474779 303.075211,44.4581527 L319.346741,60.7084304 C319.581607,60.9428545 319.735445,61.2440894 319.785941,61.5699389 C320.206351,64.237685 318.086684,65.4121497 316.54009,66.2689698 C315.242454,66.9874796 313.90724,67.7270876 313.129833,69.2473278 L369.111365,117.721541 L373.779331,107.963638 C374.000105,107.502995 374.42991,107.179489 374.933698,107.095097 C375.442184,107.011876 375.951843,107.177145 376.30884,107.540502 C382.719513,114.044599 384.785161,121.338704 386.782698,128.392525 C388.389183,134.069104 389.907593,139.431555 393.637268,143.903195 C393.973127,144.305232 394.084688,144.849096 393.934374,145.350763 C393.784059,145.852431 393.391833,146.246263 392.889219,146.398639 L387.153787,148.142754 C360.834681,156.156542 333.61956,164.441089 305.915918,169.042834 C294.927702,170.867825 284.560708,174.077091 274.225421,178.854654 C274.011693,178.953112 273.78857,179 273.567796,179" id="Fill-99" fill="#FFFFFF"></path>
                    <path d="M525.552218,255 C525.359197,255 525.165014,254.963615 524.976644,254.887324 C524.180143,254.565729 523.792939,253.654933 524.11154,252.852118 C525.727797,248.771143 527.35452,244.69369 528.980079,240.613888 C533.018397,230.481286 537.193923,220.004788 541.168289,209.652703 C541.421774,208.98956 541.653166,208.298247 541.882233,207.617498 C542.83222,204.773608 543.81709,201.832302 546.3938,201.137468 C548.349588,200.617516 550.592581,201.563523 553.475101,204.129244 C554.116953,204.700839 554.17858,205.690273 553.613471,206.339332 C553.0472,206.989565 552.063492,207.049424 551.425128,206.477829 C548.736792,204.084643 547.574017,204.059995 547.19379,204.163281 C546.222872,204.425018 545.478696,206.652711 544.81824,208.619842 C544.576383,209.344019 544.329874,210.078759 544.061273,210.784156 C540.078768,221.153846 535.898592,231.640908 531.859111,241.782899 C530.232388,245.859179 528.607991,249.936633 526.991734,254.015261 C526.748714,254.626762 526.166163,255 525.552218,255" id="Fill-101" fill="#FFFFFF"></path>
                    <path d="M556.899297,411 C556.595416,411 556.28918,410.913785 556.015922,410.729545 C555.2892,410.238239 555.094857,409.24972 555.583658,408.516304 C556.914609,406.527457 556.741467,404.336655 556.542414,401.802174 C556.408141,400.096774 556.270334,398.331141 556.620151,396.537163 C557.597752,391.497728 555.230308,389.61045 549.977174,386.773627 C535.197729,378.789895 520.357036,370.343202 506.001611,362.176412 C500.607137,359.108108 495.212663,356.037442 489.808767,352.984491 C489.046709,352.553417 488.773452,351.580252 489.204538,350.813767 C489.632092,350.047281 490.597915,349.772102 491.365862,350.205539 C496.772114,353.25967 502.170121,356.331517 507.566951,359.403364 C521.904709,367.561887 536.731267,375.99677 551.481266,383.965148 C555.841603,386.321294 561.269056,389.250237 559.73434,397.147754 C559.470506,398.515381 559.583578,399.991663 559.706072,401.551797 C559.921616,404.285871 560.163072,407.382519 558.21847,410.294928 C557.913411,410.751985 557.411654,411 556.899297,411" id="Fill-103" fill="#FFFFFF"></path>
                    <path d="M257.568903,394 C257.188767,394 256.806277,393.861108 256.504993,393.579764 C255.868294,392.987397 255.82828,391.985478 256.415549,391.342066 L278.235117,367.509695 C278.627022,367.082336 279.218999,366.905457 279.776845,367.049097 C286.709913,368.836881 293.58649,369.222691 300.867918,369.631056 C308.955516,370.084531 317.31733,370.552252 325.697975,373.123527 C325.982782,373.211373 326.236991,373.378755 326.431178,373.60668 C327.985852,375.433638 327.699867,377.711697 327.445659,379.722658 C327.086707,382.575277 326.98314,384.437849 329.293378,386.219697 C332.24973,387.257229 336.267637,387.18719 340.515039,387.114776 C342.143856,387.08866 343.802097,387.058982 345.45916,387.089847 C346.326529,387.106466 347.016187,387.829415 347,388.703126 C346.984411,389.578024 346.286515,390.309283 345.401492,390.25705 C343.782089,390.227372 342.160333,390.254676 340.569176,390.281979 C335.916924,390.356767 331.524764,390.435116 327.996444,389.113865 C327.862278,389.064007 327.736351,388.995155 327.621015,388.912057 C323.504249,385.896804 323.982067,382.096873 324.331604,379.323789 C324.526968,377.779363 324.632888,376.722837 324.266875,375.997514 C316.414655,373.673158 308.425915,373.225618 300.693738,372.792324 C293.880713,372.410075 286.846432,372.015955 279.912188,370.345695 L258.723433,393.491918 C258.413911,393.827869 257.991407,394 257.568903,394" id="Fill-105" fill="#FFFFFF"></path>
                    <path d="M225.436192,221 C225.201998,221 224.963119,220.947388 224.739464,220.835149 L150.863984,183.95529 C150.092313,183.570638 149.779664,182.634144 150.164914,181.86367 C150.550164,181.093196 151.488113,180.778693 152.260954,181.165684 L226.136434,218.045543 C226.908104,218.431364 227.220754,219.367858 226.834333,220.138332 C226.561497,220.684328 226.009969,221 225.436192,221" id="Fill-107" fill="#FFFFFF"></path>
                    <path d="M641.444493,235 C640.971954,235 640.504083,234.784388 640.199558,234.375429 C639.033963,232.814588 637.898704,231.225623 636.765779,229.636659 C634.376251,226.287646 631.90505,222.826141 629.180662,219.739612 C614.12127,202.688709 600.836523,183.257875 605.543239,156.768101 C605.831429,155.149842 605.095203,153.735476 604.243467,152.098467 C603.926108,151.484442 603.604082,150.865731 603.325226,150.227098 C599.957952,142.465076 593.608435,141.633096 586.257838,140.671046 C584.932396,140.497619 583.608122,140.323021 582.301349,140.105065 C581.451947,139.963277 580.880234,139.158249 581.021412,138.30752 C581.160256,137.455619 581.962988,136.87792 582.811224,137.022052 C584.081827,137.232977 585.372266,137.401716 586.659204,137.570456 C593.900126,138.519616 602.108293,139.594159 606.179124,148.977956 C606.427645,149.548624 606.715835,150.101715 607.001691,150.651291 C607.975937,152.525003 609.082027,154.64831 608.605988,157.316505 C604.133791,182.497375 616.970502,201.202864 631.508351,217.665521 C634.341248,220.873917 636.85912,224.403387 639.295318,227.815677 C640.415409,229.385893 641.5355,230.95728 642.687094,232.499373 C643.205136,233.189565 643.065124,234.169192 642.376735,234.687129 C642.097879,234.898053 641.770019,235 641.444493,235" id="Fill-109" fill="#FFFFFF"></path>
                    <path d="M400.559946,386 C400.45831,386 400.355506,385.990563 400.252702,385.96933 C399.409241,385.798286 398.861343,384.970195 399.030736,384.117333 C399.279568,382.862221 399.465316,381.529255 399.645223,380.241115 C400.058776,377.27556 400.486347,374.207379 401.725837,371.435281 C405.940802,362.014868 410.513245,352.5803 414.936155,343.45597 C416.641767,339.935996 418.348547,336.416022 420.037805,332.89015 C420.412806,332.105705 421.348556,331.778951 422.119586,332.157608 C422.895289,332.536265 423.218888,333.476419 422.843887,334.258504 C421.151125,337.790274 419.443177,341.313787 417.735228,344.839659 C413.322832,353.941576 408.760903,363.353732 404.566966,372.731679 C403.510888,375.093271 403.132383,377.806387 402.731681,380.678752 C402.544764,382.012898 402.353175,383.390689 402.085651,384.735452 C401.937286,385.484508 401.287751,386 400.559946,386" id="Fill-111" fill="#FFFFFF"></path>
                    <path d="M712.568127,587 C712.114743,587 711.664884,586.802942 711.354797,586.425346 C710.807448,585.753932 710.903763,584.760382 711.572093,584.209328 C720.259203,577.045619 730.457984,572.764621 740.322012,568.624042 C744.770104,566.754941 749.37089,564.82448 753.74146,562.662741 C763.774627,557.698531 775.523838,554.175086 786.56361,565.725991 C787.16264,566.352565 787.142672,567.348475 786.517802,567.950269 C785.896455,568.550883 784.905119,568.533183 784.302565,567.904249 C775.220799,558.405344 766.070909,560.071487 755.125102,565.487633 C750.668789,567.691852 746.023369,569.641192 741.530644,571.527993 C731.875688,575.580073 721.890679,579.773752 713.561812,586.643644 C713.269344,586.882001 712.916974,587 712.568127,587" id="Fill-113" fill="#FFFFFF"></path>
                    <path d="M623.582461,475 C623.107161,475 622.637788,474.787225 622.326057,474.382951 C621.795049,473.692613 621.926616,472.703208 622.618823,472.172452 C638.499296,460.017067 654.306282,448.384164 672.97929,439.671012 L676.844511,402.415224 C676.934593,401.548756 677.726364,400.924614 678.579771,401.00736 C679.449771,401.097199 680.081529,401.873829 679.991447,402.737934 L676.032589,440.885014 C675.97451,441.43823 675.628407,441.921702 675.121104,442.155755 C656.387645,450.773158 640.507172,462.454527 624.542544,474.673744 C624.255704,474.893612 623.917898,475 623.582461,475" id="Fill-115" fill="#FFFFFF"></path>
                    <path d="M458.553336,543 C458.49864,543 458.443944,542.996481 458.389248,542.990616 C457.536224,542.900291 456.917113,542.130768 457.009049,541.272094 L461.904918,494.401609 C461.994526,493.541761 462.763761,492.910659 463.609803,493.010368 C464.462827,493.09952 465.081938,493.870216 464.991166,494.72889 L460.095297,541.599375 C460.011507,542.402916 459.338863,543 458.553336,543" id="Fill-117" fill="#FFFFFF"></path>
                    <path d="M572.430376,268 C572.300818,268.001123 572.171261,267.984572 572.040525,267.951471 C553.803504,263.290044 535.512303,257.753787 517.824136,252.398406 C506.72928,249.039767 495.256352,245.567637 483.925937,242.350862 C481.213469,241.580066 478.413843,240.595291 475.707264,239.642435 C467.316632,236.691656 458.642151,233.638025 450.369299,236.016618 C443.867855,237.885681 437.170897,239.37171 430.694187,240.809269 C419.499218,243.293078 407.922644,245.862005 397.189372,250.470233 C396.393181,250.810708 395.467432,250.44186 395.127048,249.640327 C394.785487,248.838793 395.156493,247.913128 395.953862,247.570289 C406.95685,242.846205 418.680649,240.245358 430.015775,237.72963 C436.447729,236.302711 443.096398,234.827322 449.503618,232.985449 C458.734019,230.327857 467.891397,233.551725 476.746081,236.66683 C479.530395,237.646876 482.161596,238.572541 484.783374,239.316147 C496.138522,242.540015 507.624407,246.016874 518.73104,249.37906 C536.388585,254.7238 554.644451,260.250599 572.816694,264.895475 C573.657641,265.109454 574.165272,265.967734 573.950913,266.811827 C573.769532,267.525877 573.131166,268 572.430376,268" id="Fill-119" fill="#FFFFFF"></path>
                    <path d="M487.635448,292 C487.547199,292 487.456499,291.992893 487.365799,291.978678 C486.475959,291.835345 485.874153,291.021546 486.02246,290.160364 L493.75279,245.320877 C493.899871,244.46088 494.745587,243.875703 495.634201,244.022589 C496.524041,244.165922 497.125847,244.979721 496.97754,245.840902 L489.245984,290.68039 C489.113611,291.452729 488.422331,292 487.635448,292" id="Fill-121" fill="#FFFFFF"></path>
                    <path d="M254.446076,183 C253.864517,183.001169 253.307432,182.670648 253.04171,182.10806 C247.228451,169.806122 238.474766,159.22008 230.010111,148.982139 C224.298247,142.071675 218.390587,134.927972 213.391977,127.279111 C213.136744,126.889987 213.067982,126.407099 213.20434,125.961716 C214.018988,123.298797 215.947806,121.721204 217.651692,120.32997 C219.174934,119.08407 220.148083,118.239015 220.328728,117.139623 C219.504756,113.764092 217.342848,111.705955 215.057403,109.530612 C213.136744,107.702199 211.149653,105.810495 210.107742,103.134683 C209.794236,102.33065 210.188158,101.423476 210.987656,101.108192 C211.788319,100.792908 212.690377,101.190236 213.002717,101.994269 C213.791726,104.019588 215.444332,105.593664 217.194836,107.260333 C219.651602,109.599764 222.437025,112.250963 223.419498,116.708305 C223.452131,116.855985 223.463785,117.008353 223.453296,117.159548 C223.264494,119.770897 221.324021,121.356694 219.611977,122.757305 C218.313667,123.816847 217.079457,124.82599 216.426805,126.226602 C221.237778,133.482823 226.910017,140.342887 232.400447,146.982605 C240.988639,157.369397 249.869358,168.10898 255.849276,180.766051 C256.217558,181.545471 255.887736,182.477258 255.112712,182.848801 C254.897104,182.951942 254.669842,183 254.446076,183" id="Fill-123" fill="#FFFFFF"></path>
                    <path d="M384.40575,252 C383.937708,252 383.47856,251.76808 383.189508,251.333523 C381.530794,248.836283 381.979936,246.303903 382.34014,244.26816 C382.492448,243.404903 382.636974,242.589668 382.631415,241.829486 C382.60251,237.595188 383.501907,233.427655 384.371286,229.397166 C385.866575,222.472361 387.277371,215.932919 384.236766,209.23652 C383.882121,208.458768 384.19452,207.526403 384.933826,207.153925 C385.668685,206.780276 386.556965,207.110587 386.910497,207.888339 C390.398022,215.565126 388.803788,222.949086 387.262919,230.089412 C386.392427,234.123415 385.569741,237.934869 385.597534,241.807231 C385.604204,242.86727 385.427438,243.871085 385.255119,244.842104 C384.894915,246.874333 384.720372,248.188546 385.618657,249.542585 C386.087811,250.248887 385.925497,251.222248 385.254007,251.717713 C384.996083,251.908638 384.699249,252 384.40575,252" id="Fill-125" fill="#FFFFFF"></path>
                    <path d="M438.023496,381 C437.565226,381 437.112544,380.77861 436.819699,380.357026 C436.333485,379.657527 436.475437,378.675402 437.141606,378.163142 C438.28281,377.281114 438.124092,376.029316 437.729533,374.073309 L437.627819,373.572826 C435.216871,361.005392 434.473579,349.511937 435.362176,338.436532 C435.432593,337.572168 436.175885,336.939792 436.972828,337.004561 C437.793243,337.076395 438.402407,337.83713 438.33199,338.700316 C437.470219,349.474253 438.195627,360.676839 440.551806,372.949871 L440.645696,373.419737 C441.032431,375.33806 441.682951,378.549398 438.903151,380.696177 C438.638249,380.902259 438.329755,381 438.023496,381" id="Fill-127" fill="#FFFFFF"></path>
                    <path d="M458.566302,282 C458.444289,282 458.319929,281.984692 458.196742,281.955254 C457.355553,281.751541 456.840515,280.901366 457.044653,280.059432 L466.914842,239.200357 C467.11546,238.357246 467.963689,237.839133 468.802531,238.045201 C469.643721,238.248913 470.158758,239.097912 469.955794,239.941023 L460.085605,280.798921 C459.91197,281.518391 459.270226,282 458.566302,282" id="Fill-129" fill="#FFFFFF"></path>
                    <path d="M498.779971,445 C498.611541,445 498.439742,444.971671 498.272435,444.906751 C497.493165,444.610477 497.091178,443.709854 497.371895,442.893036 C499.150517,437.705303 498.382476,432.482158 497.441513,427.572992 C494.499601,412.235241 496.051403,398.908844 502.182258,386.833641 C502.57077,386.065219 503.481416,385.776028 504.207911,386.186797 C504.936652,386.595206 505.212877,387.547766 504.823242,388.316188 C499.034861,399.72094 497.580748,412.35918 500.378934,426.952116 C501.401866,432.295659 502.230542,438.011019 500.188046,443.958912 C499.969087,444.602215 499.393056,445 498.779971,445" id="Fill-131" fill="#FFFFFF"></path>
                    <path d="M596.430985,358 C596.389795,358 596.346251,357.998827 596.30506,357.994135 C578.810983,356.589995 564.035461,350.349375 553.576674,339.946777 C539.281312,325.731771 522.485115,317.335087 507.942611,310.998277 C507.147051,310.652227 506.784577,309.730211 507.131752,308.938403 C507.478927,308.146595 508.406295,307.785296 509.198325,308.131345 C524.01033,314.58546 541.128988,323.148717 555.792708,337.732061 C565.718376,347.603268 579.814848,353.531857 596.555732,354.876171 C597.41955,354.945381 598.063295,355.699651 597.995037,356.560669 C597.929132,357.379457 597.240667,358 596.430985,358" id="Fill-133" fill="#FFFFFF"></path>
                    <path d="M499.419924,446 L499.385585,446 C483.333853,445.633043 471.745015,436.342307 460.537458,427.359532 L458.593158,425.80203 C457.909929,425.260444 457.802175,424.269306 458.346864,423.590849 C458.891552,422.914751 459.885016,422.799118 460.565877,423.346604 L462.517282,424.907646 C473.811279,433.960037 484.477699,442.512139 499.455447,442.851958 C500.329317,442.872017 501.020834,443.592951 500.99952,444.461377 C500.97939,445.319183 500.277216,446 499.419924,446" id="Fill-135" fill="#FFFFFF"></path>
                    <path d="M499.486914,501 C499.305147,501 499.122265,500.96594 498.946074,500.890773 C498.179978,500.576012 497.801947,499.668138 498.104148,498.862444 C504.110257,482.712153 502.250214,466.866052 499.193634,447.827711 C499.056472,446.972689 499.602888,446.16582 500.412475,446.020185 C501.228752,445.883945 501.989273,446.451219 502.12755,447.303893 C504.590879,462.657886 507.657496,481.763172 500.870794,500.00404 C500.642192,500.621817 500.08128,501 499.486914,501" id="Fill-137" fill="#FFFFFF"></path>
                    <path d="M507.436332,301 C507.264056,301 507.088264,300.970337 506.915988,300.908637 C498.909264,298.047913 490.900196,295.200241 482.888785,292.352568 C463.282155,285.384077 443.008689,278.177093 423.1372,270.883492 C422.138704,270.516854 421.134347,270.157335 420.128819,269.79663 C409.806333,266.095843 399.141639,262.271656 393.727256,251.19777 C384.450144,251.660517 380.773755,256.801752 377.929446,264.885582 C374.896454,273.505723 370.545024,281.748548 366.336572,289.719658 C364.539981,293.12144 362.683621,296.638315 360.962035,300.124341 C360.576465,300.903891 359.637738,301.224254 358.865426,300.832699 C358.091943,300.441144 357.779034,299.490734 358.165775,298.70881 C359.906113,295.184816 361.77302,291.647769 363.578987,288.227003 C367.734701,280.359121 372.029878,272.221898 374.984349,263.823637 C377.839206,255.707771 382.201183,248.173305 394.681219,248 C395.256643,247.994139 395.870742,248.35959 396.127398,248.93387 C400.836271,259.522465 410.71459,263.063071 421.171849,266.812507 C422.184409,267.175585 423.196969,267.538663 424.202498,267.908861 C444.058751,275.196529 464.326358,282.399953 483.924783,289.366072 C491.936195,292.214931 499.948779,295.062603 507.956675,297.924514 C508.770004,298.215214 509.197764,299.11935 508.910638,299.943988 C508.682109,300.59302 508.080901,301 507.436332,301" id="Fill-139" fill="#FFFFFF"></path>
                    <path d="M441.673344,237 C440.843276,237 440.143834,236.357845 440.093958,235.525161 C439.260328,221.748239 444.117235,209.285028 448.978891,198.909409 C449.344644,198.122593 450.288713,197.781522 451.081968,198.146115 C451.875223,198.510708 452.220788,199.443362 451.85266,200.229001 C447.158442,210.250613 442.465411,222.257493 443.255104,235.33816 C443.308542,236.202599 442.643538,236.945899 441.769532,236.996472 C441.736282,236.998824 441.705406,237 441.673344,237" id="Fill-141" fill="#FFFFFF"></path>
                    <path d="M597.439722,349 C596.727104,349 596.08458,348.502499 595.91986,347.773932 C594.321727,340.623833 593.112613,333.26153 591.940882,326.143261 C588.871952,307.488163 585.697882,288.19999 575.239922,271.408752 C574.780809,270.673111 575.000435,269.701688 575.729409,269.240733 C576.456045,268.779779 577.418663,269 577.877776,269.735876 C588.671017,287.061161 591.895321,306.667641 595.014485,325.630435 C596.178038,332.703904 597.382479,340.019051 598.961921,347.080732 C599.150005,347.928369 598.623135,348.770112 597.783181,348.961096 C597.668695,348.987032 597.554208,349 597.439722,349" id="Fill-143" fill="#FFFFFF"></path>
                    <path d="M590.435625,317 C590.414482,317 590.395689,317 590.374546,316.998837 C577.236772,316.513942 563.362531,314.691806 550.921288,304.721803 C539.653459,295.694845 528.703944,290.909849 517.45021,290.097039 C516.588062,290.035409 515.940863,289.292368 516.004291,288.43886 C516.066544,287.583026 516.79244,286.952778 517.680429,287.002779 C529.593107,287.864428 541.109949,292.871523 552.893422,302.311281 C564.620515,311.708014 577.893367,313.434799 590.492005,313.898764 C591.355328,313.931323 592.029541,314.651107 591.999002,315.508104 C591.968463,316.344171 591.274281,317 590.435625,317" id="Fill-145" fill="#FFFFFF"></path>
                    <path d="M519.57516,364 C519.387535,364 519.195191,363.966862 519.009926,363.894669 C518.199246,363.581041 517.792136,362.668564 518.106023,361.8555 C522.625536,350.067854 527.749224,336.707338 538.332908,326.444038 C538.959504,325.836903 539.955449,325.855839 540.557264,326.479543 C541.162619,327.106797 541.143739,328.10567 540.521863,328.712805 C531.17957,337.771303 526.36505,349.108037 521.043117,362.988109 C520.802391,363.615363 520.205296,364 519.57516,364" id="Fill-147" fill="#FFFFFF"></path>
                    <path d="M577.559008,268 C577.065475,268 576.580109,267.766711 576.277922,267.331627 C575.787889,266.625928 575.962901,265.656612 576.668781,265.166705 C586.579111,258.288179 597.517344,253.014681 608.095052,247.914984 C617.321669,243.467329 626.865642,238.86687 635.602227,233.246938 C636.323275,232.783859 637.284672,232.99032 637.752537,233.713516 C638.216902,234.436712 638.009221,235.399029 637.284672,235.863274 C628.387077,241.58702 618.759099,246.229471 609.448476,250.719118 C598.978108,255.766325 588.15305,260.985 578.444567,267.722386 C578.173882,267.910184 577.864695,268 577.559008,268" id="Fill-149" fill="#FFFFFF"></path>
                    <path d="M546.562124,300 C546.20592,300 545.846201,299.877004 545.55327,299.627465 C544.89359,299.062158 544.812741,298.06755 545.370481,297.404083 C548.023263,294.245224 550.340931,290.631045 552.584781,287.136313 C557.506019,279.464461 562.597156,271.530061 571.768234,267.15189 C572.55446,266.778172 573.481293,267.118776 573.850386,267.902873 C574.218307,268.690518 573.884366,269.631907 573.103998,270.00326 C564.737894,273.998252 560.108416,281.213601 555.208269,288.851156 C552.91052,292.431039 550.537781,296.130368 547.75611,299.442972 C547.446775,299.810776 547.006207,300 546.562124,300" id="Fill-151" fill="#FFFFFF"></path>
                    <path d="M478.556458,370 C478.261024,370 477.96092,369.916261 477.697015,369.738168 C476.980034,369.256963 476.783857,368.281578 477.260287,367.558591 C488.064044,351.105618 495.243195,332.520245 502.182962,314.544635 C503.2958,311.666839 504.408639,308.789043 505.53549,305.914786 C507.849913,300.012945 509.851388,293.850451 511.787469,287.88964 C515.396896,276.774742 519.131268,265.278891 525.091318,254.790268 C525.518704,254.036616 526.468061,253.775963 527.217738,254.209991 C527.963912,254.64284 528.220811,255.604071 527.793425,256.357723 C521.98985,266.565643 518.308025,277.90581 514.746475,288.870921 C512.795213,294.876551 510.780894,301.083862 508.431439,307.07298 C507.305755,309.94252 506.19642,312.816778 505.087085,315.688677 C498.085428,333.817612 490.843221,352.564566 479.853796,369.297063 C479.55486,369.752321 479.060914,370 478.556458,370" id="Fill-153" fill="#FFFFFF"></path>
                    <path d="M556.571555,386 C556.212821,386 555.855267,385.878177 555.560255,385.629801 C554.894709,385.067998 554.810926,384.073312 555.369088,383.405062 C563.759216,373.428624 570.183387,363.770344 575.010956,353.882612 C575.393291,353.100819 576.336147,352.780295 577.117338,353.158773 C577.897348,353.541982 578.221861,354.486994 577.839526,355.26997 C572.896313,365.393067 566.332896,375.261876 557.776382,385.43938 C557.46721,385.808396 557.021152,386 556.571555,386" id="Fill-155" fill="#FFFFFF"></path>
                    <path d="M433.532295,272 C433.2954,272 433.055055,271.942796 432.829659,271.82362 C432.077574,271.420805 431.78318,270.461439 432.170722,269.680836 C436.883328,260.223034 437.175422,250.205104 436.838479,241.653039 C436.80398,240.775904 437.460617,240.037013 438.307,240.00126 C439.128083,239.966699 439.868669,240.647194 439.903168,241.524329 C440.235511,249.966752 439.967567,260.963116 434.897318,271.13955 C434.624773,271.686567 434.087734,272 433.532295,272" id="Fill-157" fill="#FFFFFF"></path>
                    <path d="M467.596784,398 C467.412497,398 467.227013,397.969 467.045119,397.90223 C466.217025,397.596999 465.794601,396.683688 466.098554,395.858608 L474.906036,372.039791 C475.211186,371.214711 476.130228,370.79621 476.955929,371.097865 C477.784024,371.399519 478.205251,372.315215 477.901297,373.139103 L469.095013,396.959112 C468.855679,397.60296 468.246575,398 467.596784,398" id="Fill-159" fill="#FFFFFF"></path>
                    <path d="M450.566499,314 C450.521913,314 450.476154,313.998817 450.430395,313.994087 C449.570356,313.919581 448.9309,313.155597 449.005992,312.287542 C450.091307,299.5943 453.319093,289.862381 459.163367,281.657247 C459.665545,280.948847 460.641742,280.788008 461.346903,281.297725 C462.049718,281.805076 462.210462,282.791395 461.705937,283.498612 C456.203097,291.221231 453.158349,300.45526 452.123486,312.558366 C452.053087,313.381481 451.370219,314 450.566499,314" id="Fill-161" fill="#FFFFFF"></path>
                    <path d="M410.564739,295 C410.352371,295 410.136483,294.957166 409.929982,294.866869 C409.140349,294.51957 408.784838,293.60733 409.134483,292.828223 L419.004305,270.91712 C419.356296,270.138012 420.279685,269.78724 421.070491,270.133381 C421.860124,270.479523 422.215635,271.391762 421.864817,272.172027 L411.996168,294.08313 C411.735695,294.657332 411.164296,295 410.564739,295" id="Fill-163" fill="#FFFFFF"></path>
                    <path d="M324.559477,616 C324.089828,616 323.62602,615.79064 323.31993,615.390529 C322.797709,614.711272 322.928556,613.736585 323.612001,613.216674 L344.495032,597.3181 C345.179645,596.799352 346.157497,596.928458 346.679719,597.607715 C347.20194,598.286972 347.072261,599.262823 346.387648,599.782734 L325.504617,615.680144 C325.221893,615.89532 324.888932,616 324.559477,616" id="Fill-165" fill="#FFFFFF"></path>
                    <path d="M520.381757,392 L520.339341,392 C519.447399,391.976139 518.742087,391.245978 518.763901,390.36907 C518.817223,388.282387 518.154327,386.171842 517.453862,383.939604 C516.211688,379.984569 514.802275,375.502197 517.726534,370.764507 C518.189471,370.012871 519.181998,369.77545 519.946693,370.232397 C520.710175,370.68815 520.951339,371.66647 520.48719,372.418105 C518.320354,375.928124 519.349237,379.2043 520.541724,382.997077 C521.289452,385.378449 522.06263,387.84095 521.995977,390.449006 C521.974163,391.313983 521.254308,392 520.381757,392" id="Fill-167" fill="#FFFFFF"></path>
                    <path d="M540.592008,325 C540.227728,325 539.863448,324.87905 539.564857,324.632497 C538.892432,324.080079 538.808826,323.099682 539.376148,322.447247 L553.191331,306.549238 C553.757458,305.89564 554.764305,305.813068 555.435537,306.367812 C556.106768,306.92023 556.191568,307.899464 555.624246,308.553061 L541.810257,324.449908 C541.493752,324.813922 541.044672,325 540.592008,325" id="Fill-169" fill="#FFFFFF"></path>
                    <path d="M26.4237667,438 L1.57505169,438 C0.705405748,438 0,437.327586 0,436.5 C0,435.671289 0.705405748,435 1.57505169,435 L26.4237667,435 C27.2945943,435 28,435.671289 28,436.5 C28,437.327586 27.2945943,438 26.4237667,438" id="Fill-171" fill="#FFFFFF"></path>
                    <path d="M832.425264,532 C832.145608,532 831.860052,531.927922 831.606356,531.770977 C826.173719,528.497228 819.965835,526.960333 812.602748,527.110303 C811.724841,527.128903 811.015672,526.44416 811.000332,525.588521 C810.982633,524.732882 811.674102,524.027212 812.543749,524.009774 C820.495647,523.855155 827.288802,525.533881 833.246531,529.127332 C833.98874,529.573752 834.222376,530.528208 833.768083,531.258291 C833.471907,531.7361 832.953895,532 832.425264,532" id="Fill-173" fill="#FFFFFF"></path>
                    <path d="M363.537522,465 C362.718145,465 362.036101,464.34288 362.001479,463.502704 C361.96455,462.63906 362.623513,461.908013 363.472895,461.871637 C366.394954,461.74608 367.660948,459.974202 369.48435,457.094606 C370.60378,455.323901 371.762447,453.494524 373.6147,452.25773 C374.32675,451.782491 375.278843,451.983147 375.747387,452.70598 C376.213624,453.427639 376.016281,454.396891 375.305386,454.873304 C373.997845,455.745162 373.061909,457.223683 372.072887,458.786691 C370.288724,461.604095 368.269133,464.79465 363.605611,464.998827 C363.58253,465 363.560603,465 363.537522,465" id="Fill-175" fill="#FFFFFF"></path>
                    <path d="M60.6959274,354 C59.9564085,354 59.2972206,353.482649 59.1507344,352.735364 C58.5128107,349.479922 60.0237448,347.090252 61.3586593,344.983306 C61.993039,343.980278 62.5919784,343.032388 62.9357484,342.052822 C63.2228141,341.237495 64.11827,340.80109 64.9416641,341.088508 C65.7638769,341.372406 66.1986101,342.263986 65.9115444,343.080486 C65.4508217,344.39674 64.7278415,345.541717 64.0261254,346.649154 C62.8554173,348.499183 61.8441901,350.096989 62.2434831,352.135893 C62.410052,352.985241 61.8524595,353.806433 60.9995318,353.971845 C60.8967553,353.990615 60.7963413,354 60.6959274,354" id="Fill-177" fill="#FFFFFF"></path>
                </g>
                <g id="pin" transform="translate(785.000000, 78.000000)">
                    <mask id="mask-6" fill="white">
                        <use xlink:href="#path-5"></use>
                    </mask>
                    <g id="Clip-2"></g>
                    <path d="M21.6740741,28.600163 C17.1111111,28.600163 13.4444444,24.9334963 13.4444444,20.3705333 C13.4444444,15.8890519 17.1111111,12.2223852 21.6740741,12.2223852 C26.237037,12.2223852 29.9037037,15.8890519 29.9037037,20.3705333 C29.9037037,24.9334963 26.237037,28.600163 21.6740741,28.600163 M21.6740741,0.000162962963 C9.6962963,0.000162962963 0,9.69645926 0,21.674237 C0,30.5557185 11.8962963,48.8067556 18.0888889,57.6075704 C19.8,60.1334963 23.5481481,60.1334963 25.2592593,57.6075704 C31.4518519,48.8067556 43.3481481,30.5557185 43.3481481,21.674237 C43.3481481,9.69645926 33.6518519,0.000162962963 21.6740741,0.000162962963" id="Fill-1" fill="#FFFFFF" mask="url(#mask-6)"></path>
                </g>
            </g>
        </g>
    </g>
</svg>