<svg height="666" viewBox="0 0 842 666" width="842" xmlns="http://www.w3.org/2000/svg" xmlns:xlink="http://www.w3.org/1999/xlink"><mask id="a" fill="#fff"><path d="m.29390236.36156522h627.74117664v188.33204378h-627.74117664z" fill="#fff" fill-rule="evenodd"/></mask><mask id="b" fill="#fff"><path d="m.06534616.04610192h246.88613884v121.95389808h-246.88613884z" fill="#fff" fill-rule="evenodd"/></mask><mask id="c" fill="#fff"><path d="m0 .00016296h43.3481481v59.50168894h-43.3481481z" fill="#fff" fill-rule="evenodd"/></mask><g fill="#fff" fill-rule="evenodd" opacity=".2"><g><path d="m12.363671 188.693609c-2.87458876 0-6.39228595-.430826-10.75648782-1.148087-.85473458-.14087-1.43317944-.946174-1.29209533-1.799609.13990841-.852261.93468224-1.431 1.80234953-1.29013 17.05589342 2.808 18.68541492 1.60826 21.80925232-15.988696l.2504243-1.413391c1.5096-8.582479 3.0709309-17.457261 9.5608-25.469218 13.4829383-16.647261 30.6152524-34.940348 55.4519346-44.3879997 7.5186075-2.8608261 14.8573324-5.8484348 21.9926614-10.9291305 6.078374-4.3293913 12.164978-8.8759565 18.051712-13.2722608 15.655634-11.692174 31.845036-23.7834783 49.714514-33.1771305 4.729845-2.4863478 9.710114-4.7132608 14.525785-6.8673913 11.915729-5.3295652 24.2359-10.839913 33.627399-20.6984348 1.588372-1.6693043 4.465312-1.7256521 7.002474-1.7773043.462051-.0093913.911169-.0187826 1.333245-.0375652 10.663608-.49069568 21.589397-.9062609 33.400488-1.26782612 22.097299-.67617391 44.195774-1.31947826 66.294249-1.96160869l17.771895-.51769566c12.643488-.36860869 25.288151-.729 37.933991-1.0893913 29.298467-.83347826 59.59628-1.69747826 89.389717-2.65773913 11.300838-.36391304 22.793314-.95556522 33.904864-1.52726087 5.998426-.30756522 11.998028-.61630435 17.99763-.89217391 44.814192-2.04613044 74.479478 15.29608698 88.125839 51.59934778 2.634746 7.007087 3.621159 14.3276087 4.577004 21.4074783.755976 5.603087 1.540168 11.3963478 3.139121 16.8679565.165774.5681739-.003527 1.1809565-.436185 1.5847826-5.231869 4.8635218-11.504233 6.9753913-17.57085 9.0168266-2.240886.753652-4.555841 1.53313-6.733239 2.433521-7.404565 3.05687-15.014877 5.959957-22.373589 8.769131-13.025591 4.969174-26.495596 10.108565-39.182585 16.242261-24.440471 11.815434-43.382189 30.181304-56.300791 54.583434-.40209.765392-1.35088 1.056522-2.118613.652696-.76303-.403826-1.058131-1.351174-.652514-2.115391 13.234865-25.005522 32.651566-43.825696 57.705753-55.939305 12.808086-6.192391 26.34158-11.355261 39.428307-16.349087 7.341076-2.800956 14.930226-5.698174 22.295992-8.738608 2.273806-.9391307 4.641668-1.7362177 6.929582-2.5063047 5.719785-1.9252173 11.13859-3.7483043 15.728527-7.7090869-1.484911-5.4011739-2.237359-10.9749131-2.966294-16.3749131-.932331-6.9073043-1.897581-14.0493913-4.407702-20.7254347-13.112593-34.8863479-41.724451-51.57234786-85.043152-49.57200003-5.996075.27704347-11.989798.58460869-17.98117.89334782-11.128009.57169565-22.633419 1.16334783-33.964824 1.52843478-29.799316.96143479-60.098305 1.82426087-89.402651 2.65891305-12.643488.3603913-25.288151.71960869-37.930463 1.08821739l-17.773071.51769569c-22.096124.6433043-44.193423 1.2854347-66.28837 1.9616087-11.794632.3615652-22.705137.7759565-33.352285 1.2666521-.447942.0211305-.925276.0305218-1.415543.0399131-1.634225.0328695-4.105548.0821739-4.793333.8053043-9.817103 10.3057826-22.424144 15.944087-34.617338 21.3969131-4.770995 2.1341739-9.704236 4.3411304-14.347079 6.7805217-17.649622 9.2797826-33.737914 21.2947826-49.295964 32.9141739-5.900843 4.4068696-12.001556 8.964-18.110498 13.3133478-7.436308 5.2966957-14.9796053 8.371174-22.6969062 11.30713-24.1394916 9.182348-40.9096897 27.108-54.1304467 43.431261-5.9784393 7.381566-7.4022131 15.473348-8.9094617 24.041739l-.2504243 1.418087c-2.6476785 14.902827-5.087258 19.679479-14.6515851 19.679479" mask="url(#a)" transform="translate(126)"/><path d="m61.568948 526.624334c-.3842502 0-.7673252-.139873-1.0704951-.421969-.6333664-.592402-.6674436-1.58679-.077555-2.220331 8.0375257-8.635668 14.5462765-18.699447 20.8399881-28.432939 2.3713051-3.664899 4.8213404-7.453215 7.3242541-11.122816 5.5451877-8.127894 10.7272767-16.715371 15.7389799-25.020751 8.035175-13.317288 16.344144-27.08828 26.44863-39.484055 8.574536-10.518659 17.773037-20.772853 26.667194-30.689708 16.297141-18.169341 33.148918-36.956943 46.729282-58.016595 13.790702-21.387588 32.372192-32.704344 55.227437-33.636437 6.587481-.269167 13.288944-.461932 19.769493-.648821 12.582723-.360848 25.591999-.734625 38.309856-1.685524 24.252411-1.813643 44.543639 6.7515 62.858387 16.269894 18.394653 9.560708 38.53547 19.130819 61.168626 24.378983 3.773172.875673 7.720255 1.600895 11.539255 2.300258 11.428797 2.101617 23.24772 4.271406 33.630699 10.848947.731615.464284.952988 1.433989.487657 2.168614-.461805.732275-1.437119.949724-2.164491.487792-9.868296-6.251956-21.385224-8.367677-32.521427-10.411698-3.851902-.707592-7.835413-1.439866-11.680264-2.331995-22.971578-5.326915-43.327435-14.99576-61.904225-24.6505-17.905821-9.305646-37.711741-17.665095-61.181552-15.926677-12.789536.956776-25.83524 1.331728-38.45204 1.694927-6.472323.184538-13.163211.377304-19.733066.645295-21.776524.888603-39.513134 11.723445-52.718648 32.202449-13.715497 21.268872-30.65188 40.151682-47.030101 58.411529-8.871831 9.88982-18.044481 20.11698-26.572013 30.579221-9.963477 12.22299-18.213692 25.896424-26.193639 39.120856-5.034029 8.340642-10.2384445 16.966906-15.8329854 25.1665-2.4817623 3.63669-4.9212219 7.410901-7.2807762 11.058169-6.3677416 9.848681-12.9540474 20.031176-21.1784103 28.866662-.3090453.332638-.7285477.50072-1.1480501.50072m651.862139 69.375666c-.417152 0-.831954-.164556-1.139825-.492493-2.209144-2.341398-4.471167-4.642832-6.73084-6.943091-4.847192-4.935507-9.861245-10.03792-14.291285-15.511761-11.462874-14.162401-22.910473-28.724438-33.980872-42.806912-29.34637-37.333072-59.69273-75.936751-93.252925-110.805008-9.915299-10.305912-19.604983-16.783545-30.488544-20.388498-18.628494-6.170853-37.280489-14.842958-57.02178-26.515861-12.550996-7.420303-20.116141-16.566095-23.129038-27.958077-.22209-.839236.277318-1.699629 1.115148-1.92178.836654-.222151 1.694461.277395 1.9189 1.116631 2.789633 10.553921 9.885922 19.07675 21.691919 26.056279 19.546229 11.557713 37.998461 20.139313 56.411915 26.239641 11.384145 3.770685 21.47688 10.50338 31.759978 21.188946 33.668302 34.983446 64.06519 73.650597 93.462088 111.04479 11.062174 14.073071 22.501547 28.624529 33.950321 42.768124 4.334858 5.357476 9.294858 10.405821 14.090346 15.288435 2.276124 2.316714 4.551073 4.632253 6.774319 6.991282.595763.63119.567562 1.625579-.06228 2.220332-.303169.287973-.690945.429021-1.077545.429021"/><path d="m818.510055 525c-.166825 0-.338348-.025823-.505172-.084512-.820024-.279358-1.257057-1.167904-.97745-1.987198 4.810884-14.099364 7.643373-28.965201 10.381877-43.342749.983323-5.159907 1.998367-10.493533 3.094473-15.726214 1.632999-7.806765 2.968768-15.599446 4.38325-23.851071.574487-3.351123 1.157197-6.746849 1.769278-10.205959-10.706127-3.646913-22.178235-4.722089-33.284975-5.7644-3.624317-.33922-7.373165-.690178-11.031552-1.124475-33.119326-3.940356-66.171687-10.700116-98.137341-17.236859-7.309724-1.495387-14.624148-2.990774-21.946796-4.455643-16.533229-3.306519-33.433003-7.857238-53.185236-14.31886-2.898279-.946061-5.088142-2.779495-7.207516-4.553066-2.66449-2.230169-4.964785-4.15281-8.325943-4.217367-.864667-.01878-1.553111-.732435-1.536952-1.596332.017911-.854507.715754-1.535295 1.567497-1.535295h.030546c4.465487.086859 7.420157 2.558826 10.276143 4.948628 1.97957 1.65502 3.847532 3.218486 6.171324 3.977917 19.630053 6.421714 36.415869 10.943088 52.825742 14.224958 7.326172 1.466043 14.645296 2.962603 21.959719 4.45799 31.902214 6.523832 64.88996 13.269507 97.880056 17.194604 3.618443.431949 7.347319.780559 10.952839 1.118606 11.734093 1.098652 23.86645 2.233691 35.303314 6.371241.715465.259404 1.143099.996534 1.007995 1.747748-.696668 3.906318-1.353392 7.730471-1.999542 11.495935-1.418007 8.278623-2.760825 16.0983-4.405572 23.96258-1.087882 5.204511-2.101751 10.525225-3.08155 15.671047-2.760825 14.482013-5.613286 29.45936-10.495834 43.767655-.222041.65027-.830598 1.061091-1.482622 1.061091"/><path d="m452.565705 158c-.647697 0-1.253153-.40754-1.478439-1.055363-.283954-.819792.147844-1.714966.964506-2.000009 35.829842-12.512417 73.701337-18.597247 115.747661-18.597247.292168 0 .586682.001177.88237.001177 6.475796 0 9.986501-.780921 13.975938-7.574824 4.537399-7.729124 7.191548-15.621971 10.000581-23.980073.515107-1.532397 1.031387-3.068328 1.560575-4.605436 1.646229-4.7809384 2.787912-9.8846103 3.892048-14.8210259 2.467584-11.0436251 5.016131-22.4500314 13.368135-31.6620826-6.660013-11.3887384-6.432381-23.4877269-6.214135-35.1991993.075095-3.9081429.150191-7.9493841-.042241-11.85752702-.043415-.86690573.623056-1.60424674 1.487825-1.64839018.849516-.02181678 1.596949.6260068 1.63919 1.49291252.197125 4.01650618.120856 8.11075108.045761 12.07189778-.227633 12.1425694-.443532 23.6125802 6.3655 34.5101506.382516.6124877.299207 1.406366-.201819 1.9269806-8.40598 8.7255946-10.828976 19.5701612-13.395123 31.0531284-1.121736 5.0200438-2.282193 10.2120552-3.984744 15.1590711-.529187 1.53122-1.041947 3.058906-1.555881 4.584236-2.737458 8.141375-5.567612 16.560726-10.270455 24.571359-4.938689 8.414639-10.027568 9.120178-16.652381 9.120178-.303901-.003534-.600762-.001178-.901144 0-41.690795 0-79.225535 6.027115-114.719795 18.421746-.170137.060071-.342622.08834-.513933.08834"/><path d="m838.545765 428c-.11343 0-.22686-.011777-.343835-.03533-.849543-.189602-1.384791-1.028092-1.196923-1.876004 1.742805-7.807851 2.231972-15.139929 1.539576-23.079677-1.309171-15.004499-3.113417-30.231575-4.856222-44.955792-3.723104-31.425717-7.571454-63.920744-6.879058-96.353355.952339-44.584831-8.398548-66.753003-16.6494-81.086239-3.67466-6.380534-7.345775-10.736678-14.286274-12.739869-4.517114-1.304842-8.111428-2.501339-11.319371-3.76614-23.697421-9.33998-32.084152-21.381499-32.058158-46.01097.007089-6.417041-.265852-14.844338-2.444653-23.1279618-.219771-.8396678.284756-1.6981781 1.128392-1.9172219.829457-.2190438 1.70145.2814595 1.923584 1.1211273 2.267419 8.6310314 2.552176 17.3209454 2.545086 23.9264114-.027176 23.34465 7.56082 34.216758 30.064862 43.089209 3.111055 1.225939 6.619115 2.391817 11.035796 3.667217 7.934193 2.290538 12.191364 7.330901 16.142509 14.19545 16.098792 27.955168 17.576927 58.889803 17.070036 82.716113-.688851 32.213568 3.146502 64.599073 6.855427 95.918801 1.748713 14.74777 3.55414 29.999576 4.866856 45.051182.723117 8.267136.2115 15.905404-1.599835 24.0324-.165419.732501-.81646 1.230649-1.538395 1.230649"/><path d="m444.638798 154c-.093287 0-.186574-.008213-.281027-.024638-.844245-.156043-1.405132-.970281-1.250042-1.820889.304348-1.678925 1.050642-3.279242 1.773614-4.826763 1.900718-4.070015 3.155425-6.759111-2.014994-10.067685-1.630186-1.041848-1.837749-4.296452-1.862237-5.269079-.046643-1.876032.244878-6.526807 3.971684-9.187745 8.668673-6.187737 11.734309-17.224528 9.114117-32.8065023-2.523407-15.030545 1.810929-27.5644075 6.003003-39.6864582 1.043646-3.0152604 2.122274-6.1337671 3.077297-9.2405412.095619-.3144318.179577-.7109913.272864-1.1521345.522406-2.4227676 1.606865-7.4513302 6.872903-7.4513302.066466 0 .135265 0 .204064.0011732 1.023823 0 2.307682-.1360973 2.876731-.7532284.650675-.7086449.514243-2.2960563.382476-3.8318445-.073464-.8599945-.151591-1.7469739-.10728-2.5987556.177245-3.3953944.136432-6.8858222.096785-10.2600981-.017491-1.4865116-.033816-2.9730232-.033816-4.4583616 0-.86351427.696152-1.5651196 1.555556-1.5651196.858239 0 1.555557.70160533 1.555557 1.5651196 0 1.4736058.016325 2.9472117.031484 4.4208175.040813 3.4247257.081626 6.9656035-.097951 10.4607244-.03265.6347299.031485 1.3785723.097951 2.1658251.18191 2.1118556.387141 4.5041186-1.199901 6.2288006-1.110112 1.2049309-2.890723 1.8009434-5.30685 1.7551866-2.411463.009386-3.154259 1.5862381-3.88656 4.983979-.116609.5432162-.225055 1.0277697-.342829 1.4137699-.971349 3.1595705-2.058139 6.3038888-3.111114 9.3449607-4.249212 12.2898259-8.264041 23.8979917-5.871235 38.1365909 2.834751 16.8655127-.658838 28.9382867-10.381651 35.8792517-1.712979 1.223703-2.333336 3.22058-2.550227 4.68128-.340497 2.283151.146926 4.195553.425621 4.658988 7.337004 4.766927 4.856742 10.079417 3.044646 13.962885-.668166 1.430195-1.297852 2.779436-1.531069 4.058282-.136432.754402-.790605 1.283539-1.52757 1.283539z"/><path d="m503.677632 145c-.589797 0-1.155956-.331221-1.425443-.897009-2.308367-4.839841-3.302395-11.542065-.736361-14.987475 8.410825-11.293355 11.434278-23.627522 9.515958-38.8130231-.638259-5.0626195 1.281244-9.6148515 3.139285-14.0185642 1.337978-3.1695888 2.719689-6.4476201 3.090824-9.8435239 1.587372-14.5254155-.36168-29.0331501-2.246905-43.0623228-.599254-4.4614702-1.219783-9.0749959-1.719752-13.63430018-.094556-.86400467.529518-1.63960504 1.395895-1.73390296.853375-.09665537 1.644106.52688961 1.738662 1.39089428.495242 4.52276386 1.111043 9.11625116 1.710296 13.56004056 1.910047 14.2142324 3.88392 28.914099 2.256361 43.8202423-.421959 3.85207-1.894681 7.3446291-3.318943 10.7216733-1.775303 4.2068658-3.451322 8.1803443-2.917076 12.4060698 2.027061 16.0412549-1.186688 29.0956229-10.114029 41.0808879-1.506999 2.02269-1.023577 7.40828 1.054308 11.762486.373499.785031.039005 1.723295-.746999 2.094593-.218662.103728-.450326.153234-.676081.153234"/><path d="m551.675671 137c-.044789 0-.090699-.002361-.135489-.005902-.820774-.079094-1.427677-.844057-1.353774-1.710544.417666-4.860115 1.065999-9.772173 1.694177-14.522501 1.400803-10.586718 2.847516-21.5346675 1.738967-32.3220695-3.239427-31.5901595-4.706296-57.2872668-4.615596-80.87010002.002239-.86766693.670728-1.56888348 1.493742-1.56888348h.005599c.825253.004722 1.490383.71184104 1.487023 1.58068847-.089579 23.46478323 1.37169 49.04974313 4.59992 80.51949173 1.145501 11.1746058-.328086 22.3196988-1.751284 33.0964768-.62146 4.712553-1.267553 9.585654-1.677381 14.370217-.068304.818086-.721117 1.433126-1.485904 1.433126"/><path d="m764.438604 561c-.400448 0-.799726-.154555-1.10416-.462485-2.016291-2.028091-4.053659-4.038484-6.092197-6.048878-4.537241-4.472654-9.230212-9.096323-13.597672-13.905223-2.216516-2.442203-4.537241-4.858451-6.779517-7.195651-6.513721-6.787438-13.249914-13.804939-18.509601-22.503667l-2.895638-4.798281c-12.933771-21.430041-26.308972-43.589204-42.118476-63.530326-.538615-.67957-.427379-1.669429.245889-2.210962.67561-.543891 1.657996-.43063 2.194268.24658 15.935961 20.099218 29.361511 42.345686 42.345631 63.858314l2.89798 4.797101c5.075855 8.400236 11.687933 15.290318 18.084564 21.953876 2.258668 2.351358 4.593445 4.785303 6.841574 7.260541 4.306574 4.74401 8.966759 9.337004 13.474728 13.778983 2.046735 2.017473 4.092299 4.033765 6.115615 6.073654.611211.613501.611211 1.610439 0 2.223939-.304434.30793-.703711.462485-1.102988.462485"/><path d="m92.3929601 305c-1.9294578 0-3.7424422-.472687-5.1377696-1.128539-2.3859392-1.119086-3.860092-2.843211-3.9436234-4.61224-.1882398-4.034381-2.3341733-6.829141-4.6059922-9.785796-1.9423993-2.52651-3.9506824-5.141649-4.6718761-8.570991-.1776513-.850836.3647146-1.686309 1.2117936-1.868294.851785-.17962 1.6800401.367514 1.8600443 1.21835.5706019 2.722675 2.2777014 4.943121 4.0848033 7.295919 2.3541738 3.063009 5.0212962 6.537256 5.256596 11.563097.0176475.382876.6929577 1.227804 2.137698 1.906109 2.1306391 1.002096 5.5730741 1.440513 8.2731385-.615674 16.1509735-12.300489 32.8925495-8.842786 49.0799935-5.498528 4.590698.948919 9.339047 1.929743 13.977981 2.521783 2.633004.335608 5.260125.912286 7.801362 1.467692 5.598957 1.226622 10.884966 2.384705 16.401568 1.262074.845902-.177258 1.67651.379331 1.849456 1.231349.172945.854381-.375303 1.685127-1.225912 1.85884-6.1625 1.254983-12.023816-.029543-17.693363-1.271527-2.474177-.542408-5.033061-1.102542-7.529591-1.421605-4.757761-.607403-9.564934-1.601226-14.21328-2.561962-16.216858-3.350167-31.533694-6.51244-46.5528752 4.924213-1.9929887 1.518506-4.2459836 2.08573-6.3601517 2.08573"/><path d="m61.3758531 532h-.0319255c-.8714492-.018888-1.5631694-.736613-1.545433-1.605438l.024831-.774387c.0851348-2.199214.0993239-2.536828-2.3412069-2.839028-3.1700887-.390735-6.3153464-1.089572-9.3565505-1.765981-3.4219457-.761402-6.958587-1.548775-10.5046877-1.885209-7.3263221-.694115-14.7969004-1.991451-18.6102297-9.396532-1.0511782-2.037489-2.1271875-4.052549-3.2008318-6.062887-6.47260929-12.118693-13.16633255-24.651731-12.79505025-40.604587.15489803-6.682634 1.77600642-12.607407 3.34272313-18.337402.96840829-3.541407 1.88360734-6.885675 2.4878279-10.419999.14780346-.85702.95776644-1.429547 1.82093872-1.286711.8584425.145198 1.4354672.959722 1.2888462 1.815562-.630234 3.686604-1.6081017 7.262244-2.5540439 10.719837-1.51823717 5.547023-3.08613632 11.284101-3.23393978 17.581903-.35118103 15.127708 5.85538198 26.748243 12.42613278 39.049908 1.0807389 2.024504 2.1638427 4.05255 3.2221155 6.106565 3.0885012 5.994421 9.3790166 7.062745 16.103483 7.700199 3.7412012.35414 7.3771664 1.162761 10.892524 1.945412 3.1050552.690574 6.0374759 1.343374 9.0573963 1.717582 5.3185598.65516 5.1955873 3.792847 5.1069052 6.084137l-.0236485.715364c-.0177364.85702-.7200985 1.541692-1.5761762 1.541692"/><path d="m22.6082629 122.000352c-2.7758096 0-5.7774477-.530231-9.0649-1.758442-.1658429-.06452-.3199239-.153673-.4551858-.267462-3.54974281-2.963192-1.8607333-6.497673-.8527381-8.608038.277581-.581847.5398715-1.130847.6551381-1.549635 2.7346429-9.8198269 3.9225953-20.2074231-5.81861424-29.6201923-3.71440953-3.5896154-6.4349381-10.0215962-6.61371905-15.6371154-.48929524-15.3637885-.41284286-30.9821346-.33756667-46.0890192.02705238-5.6202116.05410477-11.23925002.05410477-16.85946156 0-.86455769.70218571-1.56488462 1.56903809-1.56488462s1.5690381.70032693 1.5690381 1.56488462c0 5.62373077-.02822858 11.24863466-.05528096 16.87471156-.07527619 15.0763846-.15172857 30.6689231.33521429 45.9717115.15408095 4.7955385 2.53586667 10.4697116 5.66453333 13.4939039 10.94445234 10.5764615 9.50714764 22.4667695 6.65841424 32.7042115-.1905428.680385-.5092904 1.349038-.8480333 2.056404-1.0985619 2.298058-1.4584762 3.484038-.1564333 4.697 11.9406857 4.331 19.5588714-1.905077 27.6193047-8.507154 4.3083858-3.528615 8.7626191-7.176885 13.9166858-9.0866538.3505047-.1313847.7398238-.1313847 1.0915047 0 4.7141714 1.7490578 7.1735857 5.3656538 9.3448334 8.5564228.5045857.744904 1.0056428 1.482769 1.5314 2.187789.4975285.669827.9962333 1.404173 1.5043476 2.151423 1.8125095 2.672269 3.6826524 5.434865 5.7398095 5.434865.0541048 0 .1058571-.002346.1587857-.007038 4.6941762-.32025 9.4212857-.087981 13.9954905.139596 9.5306714.47275 18.5344097.920865 27.6404757-3.162616 42.441658-19.0308265 76.515896-37.4938842 107.236815-58.1060188 2.326505-1.5613654 4.968228-2.5971923 7.521738-3.6013461 4.943528-1.9390962 9.615357-3.7726154 11.704271-9.1898846.312867-.807077 1.224415-1.20475 2.028929-.8974039.809219.3096923 1.211476 1.2164808.900962 2.0212116-2.586443 6.7029615-8.127476 8.8755-13.483848 10.98-2.508814.9842115-4.877662 1.9121153-6.920705 3.2846153-30.870295 20.7118462-65.095085 39.2558462-107.702585 58.3617505-9.795315 4.392-19.5988622 3.906346-29.0836622 3.434769-4.4836381-.221712-9.1225334-.4575-13.6202858-.140769-3.9355333.252211-6.4714-3.486385-8.7167476-6.797981-.4798857-.708539-.9515381-1.405346-1.4255428-2.041154-.5504572-.739039-1.0738619-1.514442-1.6055-2.295712-1.9912905-2.925653-3.8743715-5.696461-7.3029667-7.165153-4.4318857 1.779557-8.3356619 4.979711-12.4629143 8.357-6.4361143 5.271807-13.0380714 10.680865-21.9136047 10.680865" mask="url(#b)" transform="translate(460 543)"/><path d="m471.431914 663c-.040006 0-.080012 0-.120019-.004693-4.341853-.324988-8.684883-.641763-13.027912-.959711-11.955982-.874065-24.319085-1.778634-36.470391-2.831032l-.930733-.072741c-3.013411-.224089-6.76576-.503321-8.333064-2.839244-.497724-.743835-.963679-2.013282-.358879-3.850579.738939-2.24441.860134-3.864657.34829-4.683579-.571854-.918648-2.23329-1.155643-3.992387-1.40437-1.081345-.151348-2.199167-.310909-3.214619-.655842-60.555321-20.63497-121.407158-41.26642-178.144237-60.487635-10.353378-3.507991-19.419497-7.956923-27.713731-13.600214-15.263556-10.38084-31.402542-19.945104-45.641232-28.383056-2.539219-1.502923-5.795021-3.132555-8.433079-2.376988-1.634372.466951-3.003997 1.804446-4.185358 4.088747-1.074285 2.076637-2.592169 3.796609-4.05828 5.463785-.92838 1.053571-1.806164 2.047306-2.570989 3.120822-13.371496 18.739012-28.795076 25.067476-47.1485248 19.333846-.6577496-.205318-1.1037015-.813057-1.1013482-1.499403.0152965-3.280383-.5859736-6.858769-1.1660641-10.318658-1.7449778-10.382014-3.7123433-22.103869 11.5170893-27.710789-3.6417441-8.134083-10.5498797-9.22989-17.8392511-10.382014-2.9298685-.465776-5.9597525-.944459-8.7813687-1.898304-.8213045-.279232-1.2601964-1.166202-.9825061-1.986298.278867-.816576 1.1684174-1.255368 1.9908985-.979656 2.5686357.870545 5.3361259 1.308164 8.2648176 1.772767 7.8847584 1.248329 16.8214454 2.663258 20.8961986 13.886486.144728.401248.120018.84356-.068246 1.224864-.1894417.382476-.5271413.669921-.933087.798977-14.3645918 4.540444-12.7914055 13.90995-10.9699451 24.757741.5365542 3.194736 1.0895816 6.485678 1.1943038 9.671029 16.6237673 4.776265 30.1811743-1.122793 42.5689883-18.485592.85778-1.202573 1.830873-2.30542 2.77102-3.371896 1.402571-1.592089 2.72866-3.096184 3.626447-4.833755 1.577893-3.049254 3.634684-4.954598 6.110364-5.662063 3.797063-1.086421 7.820043.870545 10.9017 2.697282 14.277519 8.461417 30.462395 18.050319 45.805963 28.486302 8.057726 5.482557 16.874394 9.808298 26.954789 13.221257 56.739432 19.223561 117.592446 39.856184 178.15012 60.491155.735409.248727 1.661436.381303 2.640412.519745 2.283885.323815 4.871347.689866 6.217439 2.849804 1.060166 1.700027 1.050752 4.023045-.031769 7.31164-.256511.775513-.074129 1.045358-.01412 1.135698.716582 1.06765 4.125349 1.319897 5.957399 1.455993l.968386.075087c12.130126 1.051224 24.481463 1.953447 36.428031 2.828685 4.345383.317949 8.68959.635897 13.034973.960885.864841.064528 1.510824.816576 1.447284 1.678908-.061186.820096-.749528 1.446607-1.563773 1.446607"/><path d="m206.449261 325c-.396478 0-.794118-.154364-1.096418-.461914l-4.454269-4.518981c-3.399708-3.450215-6.800579-6.903966-10.217728-10.337684l-.779002-.777713c-3.066016-3.050754-6.236675-6.206381-7.011027-11.249729-3.951986-25.75878-7.935365-51.512847-11.917582-77.266914l-3.954312-25.572601c-.132547-.85784.445311-1.662655 1.29175-1.795809.841788-.131975 1.639394.450131 1.771941 1.307971l3.954312 25.573779c3.983379 25.755246 7.966758 51.509313 11.919907 77.27045.615064 4.013467 3.28809 6.674187 6.11808 9.48927l.79063.789496c3.420636 3.437254 6.823833 6.89454 10.228192 10.349468l4.451944 4.517803c.605761.612743.605761 1.608451 0 2.221194-.3023.30755-.69994.461914-1.096418.461914"/><path d="m625.577937 388c-.118124 0-.235067-.011835-.353191-.040238-.849312-.194092-1.378507-1.040282-1.184784-1.890022 1.98094-8.670195 7.583563-12.444321 16.659032-11.2206 6.111737.830805 11.839572-.937319 17.907603-2.802487.850493-.26155 1.699805-.524283 2.555023-.777549 5.61916-1.676995 11.25722-3.687732 16.712187-5.632194 11.376526-4.056979 23.140498-8.251242 35.649832-9.783852 4.522969-.55387 9.570409-1.617821 12.703058-5.298452.563452-.665117 1.560419-.742044 2.220732-.176339.661495.564521.740638 1.561014.174824 2.224948-3.854387 4.531555-9.891706 5.791964-14.717073 6.383706-12.16205 1.490004-23.759467 5.625093-34.974163 9.624081-5.492767 1.957481-11.17217 3.983603-16.870473 5.683084-.844587.252082-1.687993.511265-2.530217.771631-6.122369 1.881738-12.454998 3.827383-19.254217 2.912551-7.487882-1.011878-11.544261 1.704215-13.163742 8.79446-.167736.732576-.817418 1.227272-1.534431 1.227272"/><path d="m398.579054 640c-.164498 0-.333731-.025813-.499413-.08096-.827226-.272212-1.274567-1.158076-.997642-1.979407.397637-1.18389.829594-2.361913 1.260367-3.538763.930185-2.539086 1.809483-4.936199 2.378719-7.429525 6.7042-29.300393 15.203683-63.15448 31.297314-94.121002.39882-.769705 1.352675-1.073597 2.126646-.674665.775155.395412 1.078116 1.338769.679296 2.108474-15.923216 30.639163-24.363526 64.26797-31.02394 93.382978-.614206 2.681058-1.568061 5.285851-2.491146 7.802643-.421305 1.151037-.843794 2.302074-1.233147 3.46015-.22012.654718-.83551 1.070077-1.497054 1.070077"/><path d="m591.428574 656c-.476274 0-.95019-.217067-1.257882-.628786-.378425-.504917-.785144-.995676-1.188326-1.486436-.947833-1.14668-1.925137-2.333469-2.634832-3.725528-21.185936-41.575385-42.328253-83.173184-63.468211-124.773342l-9.708207-19.099526c-.393751-.772711-.08488-1.721199.689654-2.116402.76864-.391664 1.71883-.083759 2.11376.690131l9.705849 19.099526c21.141138 41.598978 42.283454 83.195598 63.468211 124.770982.552902 1.084155 1.381666 2.088089 2.256406 3.151009.437371.528511.873562 1.057021 1.280281 1.599688.519893.69485.381962 1.681089-.312407 2.203701-.282935.212348-.615384.314983-.944296.314983"/><path d="m381.545812 115c-.123874 0-.250064-.014072-.376253-.046905-.826598-.208728-1.330198-1.057713-1.12297-1.897316.258168-1.045986.524439-2.090799.79071-3.135613.558012-2.190473 1.135704-4.454822 1.620781-6.68751 5.038314-23.205178 10.059262-46.4150468 15.08021-69.6260883l4.408525-20.377967c.181759-.8442937 1.0072-1.3754951 1.838429-1.1925648.833544.1852755 1.361456 1.0190156 1.178539 1.8621367l-4.409682 20.3779669c-5.019791 23.2110415-10.041897 46.422083-15.08021 69.6296065-.496654 2.286629-1.081293 4.579121-1.646251 6.796564-.263956 1.037778-.529069 2.073211-.784921 3.113334-.175971.709441-.80576 1.184356-1.496907 1.184356"/><path d="m314.442585 520c-.530628 0-1.047231-.271389-1.338259-.759188-2.696387-4.505997-6.443513-8.270352-11.793043-11.840524-10.406864-6.9485-17.201013-17.064767-23.771923-26.846477-2.96404-4.413584-6.029763-8.9769-9.363139-13.136641l-1.22138-1.538263c-3.596353-4.550448-6.436501-8.142846-11.959011-10.138492-3.837122-1.388531-7.896313-2.099758-11.822263-2.789928-2.965208-.521723-6.030932-1.058652-9.027697-1.886857-.831006-.228108-1.31839-1.086727-1.089308-1.917272.229082-.830544 1.08697-1.318343 1.916808-1.090236 2.854173.788433 5.846264 1.312495 8.739007 1.82135 4.056854.711227 8.251624 1.448189 12.343541 2.927962 6.357023 2.29745 9.594558 6.394023 13.344021 11.136316l1.208524 1.521885c3.41636 4.263852 6.518316 8.883318 9.518587 13.349542 6.401437 9.530207 13.020268 19.384443 22.915204 25.990197 5.669777 3.784242 9.835328 7.983756 12.736253 12.834838.441801.739302.2022 1.697352-.536473 2.140699-.251289.149732-.527122.221089-.799449.221089"/><path d="m154.005106 541c-.460568 0-.916425-.20078-1.226219-.587077-.543023-.675139-.433476-1.659081.242652-2.201541l17.712448-14.148565-17.966879-10.681286c-.485305-.288843-.77743-.812516-.767108-1.374936.012058-.56242.325386-1.0767.820114-1.344407 2.18505-1.185896 4.299424-2.210934 6.344301-3.20192 4.275865-2.072383 7.968658-3.861795 11.007703-6.440239 3.677479-3.117381 8.346771-4.643783 12.862933-6.119695 5.22645-1.710744 10.163131-3.324032 12.285751-7.194047 4.577414-8.344718 11.123139-14.467935 17.452127-20.39272 4.158072-3.889975 8.085272-7.562732 11.520099-11.834307 10.882843-13.534482 23.188619-25.946473 35.090366-37.947509 3.313501-3.343993 6.629358-6.687986 9.919301-10.058984.606631-.616432 1.600799-.634044 2.221565-.029354.621944.603515.636079 1.594502.030626 2.214456-3.295832 3.376869-6.617579 6.725558-9.93697 10.075422-11.845207 11.944677-24.093264 24.296786-34.873627 37.703285-3.573822 4.444176-7.766055 8.368202-11.820471 12.161896-6.149942 5.754533-12.509556 11.703975-16.845495 19.610733-2.721006 4.956108-8.486945 6.842975-14.064417 8.666437-4.22757 1.380806-8.598847 2.812101-11.805157 5.530269-3.34295 2.83441-7.387942 4.794074-11.669697 6.871154-1.227397.595297-2.480708 1.202335-3.754044 1.845772l17.502777 10.407708c.441722.259488.727957.724453.762117 1.234037.035338.513105-.182578 1.010947-.58425 1.331491l-19.478157 15.5599c-.290947.230134-.637257.344027-.982389.344027"/><path d="m582.569064 429c-.220002 0-.442357-.04594-.656476-.143709-.787066-.363984-1.131774-1.296913-.767065-2.084955 1.170597-2.543175 2.377666-5.075748 3.587088-7.611854 8.271832-17.354604 16.82602-35.298178 12.267159-55.766079-2.500021-11.225777.415297-17.166133 10.753029-21.920302 11.00009-5.059257 22.047239-10.522547 32.730856-15.809145 16.32131-8.074785 33.197919-16.422853 50.346294-23.544683.796478-.329824 1.716485.047117 2.049429.850473.332944.801-.047059 1.720972-.848242 2.051973-17.050728 7.082959-33.88263 15.407467-50.159234 23.459871-10.702441 5.294845-21.76959 10.771092-32.80968 15.846839-8.990662 4.135751-11.176563 8.602503-9.002427 18.38059 4.795333 21.52687-3.99415 39.967535-12.49422 57.801561-1.202363 2.524327-2.404726 5.045121-3.569441 7.577694-.267061.572479-.832948.911726-1.42707.911726"/><path d="m331.421213 162c-.727229 0-1.381143-.50205-1.540779-1.236356-1.54669-7.136615-6.372413-13.853291-13.240288-18.429217-17.768026-11.834534-31.119469-27.985759-44.032209-43.603262-5.827288-7.0486388-11.853234-14.3389184-18.186625-21.1013418-.592425-.6334274-.555768-1.6234509.082774-2.2123037.638542-.5876798 1.634194-.5501434 2.228985.082111 6.399611 6.8339772 12.456301 14.1617933 18.314333 21.2467955 12.767295 15.443897 25.968562 31.412131 43.351097 42.990949 7.54071 5.022844 12.848887 12.44802 14.565855 20.369381.183286.84457-.358293 1.677409-1.210865 1.858054-.111153.02346-.222307.03519-.332278.03519"/><path d="m437.448466 476c-.379209 0-.758418-.140055-1.058528-.420165-6.824595-6.44488-11.477463-14.477442-15.976787-22.245195-2.977836-5.140839-6.056871-10.459396-9.7117-15.188309-1.805313-2.33621-1.79717-6.010593-1.633156-9.573166.476919-10.402904 1.109709-20.968224 1.721561-31.185172.218685-3.637897.436206-7.275794.647912-10.911338.050018-.867399.784008-1.517065 1.640136-1.474696.854965.050608 1.507529.792076 1.457511 1.657121-.211706 3.641428-.43039 7.280502-.647912 10.919576-.611852 10.206356-1.243479 20.75873-1.719235 31.140448-.1012 2.199687-.271029 5.878777.977103 7.492351 3.782782 4.897214 6.915325 10.305217 9.944343 15.537858 4.387655 7.572381 8.923038 15.403688 15.417279 21.533151.625811.59082.660707 1.58415.076772 2.219694-.307089.330718-.720031.497842-1.135299.497842"/><path d="m493.292485 245c-.011709 0-.02459 0-.035129-.001177-.863004-.020017-1.54685-.738244-1.526943-1.606004.076113-3.250862.040984-6.587676.005855-9.813812-.113584-10.703943-.230681-21.749338 3.501197-33.14796h-46.239219c-.485952 0-.94263-.227242-1.238885-.613436-.293913-.386195-.394616-.888954-.271664-1.359923.608903-2.307747 1.18502-4.467139 1.735375-6.527627 1.168627-4.3753 2.178002-8.153647 3.142881-12.023833 3.791597-15.239372 1.344272-19.754785-13.77762-25.427604-1.688537-.633453-3.381758-1.259841-5.07615-1.88623-8.607792-3.182571-17.507155-6.473466-25.765999-10.775765-6.029318-3.139007-9.351357-1.491794-13.05396 2.414892-.593682.628743-1.584321.652292-2.207277.054161-.625297-.596953-.648717-1.590697-.053864-2.21944 5.298634-5.596286 10.1523-6.475821 16.75188-3.036571 8.084369 4.210461 16.890055 7.466032 25.406512 10.614459 1.700246.628743 3.398151 1.256309 5.091372 1.890939 16.488413 6.186175 19.866658 12.448882 15.713231 29.132951-.968391 3.897267-1.981279 7.687388-3.153419 12.077994-.391103 1.457649-.793917 2.967104-1.211953 4.543672h46.409009c.512885 0 .99064.251968 1.283382.673485.2904.422694.359487.961954.1815 1.443519-4.281062 11.604671-4.159281 23.059809-4.042184 34.139349.035129 3.25204.070258 6.615934-.005855 9.91978-.019907.855986-.714291 1.534181-1.562073 1.534181"/><path d="m543.420688 204c-.290913 0-.586557-.079943-.852636-.250409-6.413097-4.111167-13.719036-4.990536-21.455433-5.920457-7.560193-.909936-15.372275-1.850437-22.351824-6.047426-.572366-.344459-.864461-1.009864-.727283-1.662337 2.982451-14.179238 5.653885-29.277816 2.805065-44.258832-.162013-.851154.400892-1.670566 1.258258-1.831627.855001-.165763 1.680437.398538 1.841267 1.249692 2.881932 15.150306.366598 30.206562-2.583923 44.372868 6.1482 3.381103 12.953911 4.200515 20.135681 5.063425 7.75177.932273 15.764889 1.897463 22.788194 6.398939.732013.47025.941328 1.440143.470664 2.167856-.302739.464373-.810063.718308-1.32803.718308"/><path d="m537.574722 550c-.467284 0-.928667-.204354-1.23901-.598968-.535724-.678831-.417723-1.664192.264322-2.198566 5.582622-4.371293 11.95703-7.349691 18.119037-10.230611 3.947129-1.843882 8.02878-3.751185 11.798908-5.986158 5.953145-3.532738 12.283893-6.629756 18.404599-9.625771 13.718783-6.713141 27.90367-13.6553 38.304268-25.808481.565224-.66004 1.557611-.737553 2.219596-.178516.660805.56256.742226 1.55027.178182 2.209135-10.823042 12.649973-25.306471 19.736589-39.311996 26.590664-6.065245 2.966654-12.336993 6.035485-18.182757 9.504802-3.904649 2.312487-8.0571 4.255023-12.07149 6.130616-6.005065 2.806929-12.213092 5.706639-17.512512 9.857136-.286742.223145-.631305.334718-.971147.334718"/><path d="m145.424423 397c-.375386 0-.751953-.131166-1.05297-.401695-1.328016-1.185177-2.6218-2.448819-3.873087-3.671471-2.757553-2.692413-5.360465-5.238435-8.398967-7.129798-14.734493-9.188633-30.440504-15.549003-47.069634-22.282962-5.3085254-2.150182-10.797661-4.372974-16.1959013-6.675402-.7283434-.310347-1.1108122-1.109053-.8924273-1.864428l2.2369704-7.74698c-2.3833473-3.457156-6.0120792-4.430359-9.8426695-5.457434-2.5698599-.689791-5.2270737-1.400663-7.6009774-2.88799-.7347599-.45908-.956172-1.424086-.491071-2.153695.4615595-.728145 1.4330775-.947439 2.1708646-.487188 1.9725475 1.233193 4.289789 1.85506 6.7427834 2.513231 4.2461121 1.138332 9.060025 2.428909 12.0808204 7.42375.2242872.370075.2833102.817444.1629033 1.233193l-2.0504577 7.099348c4.9614703 2.100995 9.9914073 4.136407 14.8690651 6.112092 16.021193 6.488023 32.588939 13.196216 47.555983 22.528897 3.326534 2.074059 6.176163 4.857819 8.932535 7.54906 1.226497 1.19923 2.494311 2.437108 3.770387 3.576611.646892.576192.698832 1.56462.116866 2.206396-.310461.34431-.740148.516465-1.171016.516465"/><path d="m681.437749 120c-.77553 0-1.446954-.579589-1.546381-1.371968-2.907945-23.207066-20.556808-34.9105282-37.624316-46.2295572l-2.551178-1.6940923c-3.350102-2.2313582-7.676927-2.6875052-12.259924-3.1695162-5.42403-.5701838-11.032878-1.1603533-15.819407-4.703722-.695989-.5137532-.843375-1.4954097-.332203-2.1913866.511171-.6995037 1.485555-.8476339 2.181543-.3338808 4.105747 3.0390206 9.285305 3.5833403 14.294082 4.1100255 4.756116.5008212 9.671315 1.0181013 13.661259 3.67504l2.54299 1.6905654c17.65939 11.7081647 35.916512 23.8160459 39.003426 48.4550372.107615.858215-.499474 1.64354-1.353376 1.750523-.065505.009405-.13218.012932-.196515.012932"/><path d="m694.133168 213c-.053753 0-.107506-.002352-.161258-.008233-.855369-.087039-1.478199-.858622-1.391727-1.719596 1.32512-13.046348 2.691139-26.525534 8.062901-38.959084l-32.326391-42.794654c-.51883-.68925-.386785-1.673724.297977-2.198307.683594-.524583 1.665164-.390496 2.182826.29993l32.884951 43.532127c.347055.458716.413662 1.070337.179954 1.594919-5.478098 12.204192-6.852297 25.746894-8.179754 38.843817-.081798.80687-.759549 1.409081-1.549479 1.409081"/><path d="m510.392011 507c-3.272736 0-6.725266-1.2145-9.898116-2.334671-1.619329-.573055-3.149347-1.111916-4.551277-1.460937-19.723375-4.898092-40.670059-10.517809-60.845859-20.499115-.372516-.185123-.656897-.510562-.790862-.90439-.132789-.395008-.104586-.825389.078734-1.20153 6.835729-13.907798 12.115586-28.63273 17.223874-42.870683 4.35503-12.140286 8.849901-24.677939 14.348332-36.876003-5.411472-1.681434-9.144858-5.617359-12.770133-9.43537-4.083575-4.30617-7.942701-8.372978-14.060425-9.407072-2.931949-.494054-5.526635-.288886-8.277613-.06721-.839043.066031-1.687486.13442-2.557082.183944-5.593617.318364-11.20016 1.638986-16.619857 2.9148-2.935474.693327-5.973184 1.407878-8.952138 1.950276-11.009788 1.996261-20.668178 9.337503-30.010458 16.437024-2.571184 1.954991-5.228152 3.976014-7.872193 5.852005-2.814436 1.99744-5.61947 4.119868-8.331669 6.171548-7.373938 5.584343-14.998179 11.356168-23.866882 15.424154-7.67007 3.522051-14.5152 5.698719-20.644676-3.345182-1.458336-2.154264-2.993055-4.286125-4.617084-6.544152-.472402-.656774-.95068-1.321801-1.440709-2.006874-16.405984 11.867909-25.139547 1.684972-32.192674-6.538256-1.929563-2.250953-3.753364-4.37338-5.652374-6.040665-15.953559-13.973829-31.33953-29.102022-46.220196-43.730266-6.010788-5.909782-12.226048-12.020016-18.389602-17.966351-.623994-.601355-.643971-1.597717-.042305-2.222654.600491-.628474 1.591125-.642624 2.213944-.043627 6.176481 5.955768 12.396442 12.073076 18.413105 17.985217 14.847762 14.598765 30.202005 29.693943 46.086232 43.609995 2.068228 1.811138 3.962537 4.017284 5.967308 6.355492 7.355136 8.576966 14.302502 16.678744 29.200794 5.126842.338438-.262945.770885-.370246 1.186881-.312469.421872.063673.801438.294782 1.048216.642624.813189 1.143753 1.599351 2.237982 2.363185 3.300375 1.636956 2.275715 3.183426 4.424083 4.667615 6.616079 4.424363 6.530003 8.561994 6.010008 16.747947 2.255669 8.558468-3.926491 16.044044-9.595731 23.284017-15.076312 2.731001-2.067008 5.554837-4.203586 8.408052-6.229325 2.602912-1.846512 5.241078-3.851027 7.791109-5.79069 9.633712-7.323555 19.596461-14.897085 31.343056-17.026588 2.899044-.52589 5.897975-1.231008 8.794669-1.914901 5.551313-1.307651 11.291821-2.660109 17.159242-2.993802.846094-.047165 1.66986-.114376 2.486575-.180407 2.81796-.225213 5.733457-.45868 9.046147.101405 7.147138 1.208605 11.550349 5.849647 15.811368 10.34094 3.865002 4.071524 7.514954 7.920193 13.00751 8.999094.472402.091971.875471.397365 1.094045.827746.218574.429203.227975.937406.028203 1.374862-5.802789 12.613117-10.492732 25.694346-15.031082 38.344016-4.962572 13.840587-10.092013 28.135138-16.670388 41.776453 19.467196 9.416504 39.712329 14.836949 58.810534 19.580575 1.546471.386754 3.144647.948018 4.836834 1.544656 4.414961 1.556447 8.976814 3.167134 12.260126 1.368966 5.445551-2.979653 11.298871-5.596135 16.95947-8.12654 20.254534-9.054513 39.385643-17.607897 45.538621-42.617171.4489-1.814675 1.521793-3.338107 2.561783-4.813194.430097-.609609.85902-1.216859 1.233886-1.841796.445374-.74285 1.40663-.986929 2.150487-.538861.742682.446889.983584 1.414952.538209 2.157802-.413645.689789-.887222 1.366608-1.36315 2.039889-.9119 1.292323-1.772095 2.513898-2.076454 3.75198-6.523144 26.500869-27.255955 35.768804-47.308366 44.732524-5.601843 2.505644-11.398757 5.097364-16.733845 8.016881-1.54412.844255-3.198703 1.173231-4.902641 1.173231"/><path d="m258.636169 300c-.219507 0-.441337-.04684-.652714-.145203-.775823-.36535-1.111471-1.293948-.751433-2.075001 1.657335-3.589095.149822-5.089137-2.884949-7.643074-1.902393-1.599577-4.057975-3.413446-4.548091-6.203924-3.426166-19.538026-10.171649-38.720071-20.618554-58.641012-.400687-.761146-.111495-1.707308.644584-2.11013.757241-.403993 1.694501-.111245 2.092865.651072 10.601372 20.211348 17.447899 39.691996 20.932136 59.555558.291514 1.667495 1.842 2.971982 3.481914 4.350241 2.721189 2.289292 6.448162 5.425213 3.709551 11.358637-.262479.569103-.82228.902836-1.405309.902836"/><path d="m592.573911 308c-.462131 0-.917188-.202374-1.22724-.589371-.543475-.679315-.436195-1.673434.239318-2.219017 8.963215-7.232219 19.12066-15.428972 31.627664-18.753355 13.940552-3.703095 28.428116-8.886719 45.591794-16.309478.793403-.343208 1.72238.022486 2.065442.824882.34424.80003-.023578 1.729058-.821697 2.07345-17.309863 7.48785-31.93418 12.718813-46.029168 16.46333-11.8645 3.152779-21.744903 11.125854-30.461727 18.161617-.292368.234328-.638967.347942-.984386.347942"/><path d="m644.569234 233c-.504295 0-1.000361-.240547-1.301292-.687778-.484311-.713468-.293878-1.681496.42436-2.161423 7.74192-5.17994 16.579418-7.635624 25.127739-10.010737 7.979374-2.216304 16.230291-4.508509 23.529043-9.019355 9.874299-6.102427 22.649761-8.38062 34.169776-6.096589 3.133914.620052 7.147111.874612 11.959656.757841 23.947526-.588523 45.092631-10.675161 65.541833-20.429003 2.242877-1.070785 4.48928-2.142739 6.739209-3.201847.785242-.370163 1.717423-.036199 2.087709.739157.372637.777692.039967 1.706017-.742924 2.075012-2.247578 1.057941-4.486928 2.126391-6.727453 3.194842-20.746607 9.897469-42.199696 20.13007-66.821966 20.734941-5.034716.128448-9.287718-.150634-12.648506-.817393-10.76181-2.13223-22.68385-.009342-31.901038 5.687892-7.679618 4.745554-16.14918 7.09848-24.340146 9.375505-8.690558 2.413647-16.897981 4.694175-24.221419 9.593866-.268017.178659-.572475.265069-.874581.265069"/><path d="m310.564076 227c-.644988 0-1.248931-.401772-1.475263-1.04484-.28614-.814086.141897-1.706651.956927-1.992459 20.320628-7.137009 44.597961-14.924115 70.585098-18.561143 1.213749-.169845 2.432189-.331491 3.654148-.493136 8.69326-1.152605 17.683214-2.342692 25.253023-6.851201 6.363096-3.790474 13.593993-4.953621 20.892908-3.36879 3.516941.762546 6.813414.412314 10.303383.040997 2.181231-.233098 4.445724-.473224 6.740707-.413485.863111.021084 1.545625.737948 1.524993 1.60123-.021585.849225-.718172 1.522749-1.564865 1.522749-.011727 0-.025799 0-.039872-.001172-2.093278-.051539-4.15372.166332-6.33026.398258-3.583786.380687-7.290705.774259-11.297837-.09605-6.519066-1.413815-12.958388-.377174-18.626069 2.999816-8.123326 4.837657-17.43812 6.071084-26.445665 7.265857-1.212576.159303-2.42398.320948-3.630694.488451-25.715069 3.599545-49.807115 11.329255-69.982327 18.415896-.171215.059738-.345948.089022-.518335.089022"/><path d="m348.196979 599c-1.075082 0-2.139555-.36741-3.097934-1.103411-1.354462-1.038434-2.502631-2.880209-1.962732-4.244705 1.056221-2.66756 2.845667-4.966529 4.574993-7.191072.511607-.660392 1.023214-1.316059 1.512423-1.978814 15.690067-21.283777 26.882944-45.070901 35.761801-65.534799.345393-.798614 1.271944-1.16248 2.068825-.816335s1.161136 1.275893.814563 2.072144c-8.949586 20.626928-20.239125 44.613706-36.116624 66.150299-.505713.686383-1.031466 1.363314-1.559577 2.042609-1.581973 2.033158-3.079072 3.959992-3.98912 6.068759.199221.381586.745013 1.039616 1.451125 1.288888.383116.138221.99728.242183 1.886109-.424117.69786-.520989 1.682173-.37686 2.200853.318974.519859.698196.377222 1.68465-.319459 2.206821-1.020857.764354-2.128946 1.144759-3.225246 1.144759"/><path d="m356.761537 413c-.508054 0-1.006722-.24608-1.307096-.703085-12.02787-18.181768-11.239388-37.490816 2.476912-60.762918 4.931533-8.366707 10.188079-16.714666 15.272145-24.787249 2.306779-3.664243 4.615904-7.329657 6.901563-11.00679.456428-.734724 1.420911-.959711 2.155419-.505049.733335.457005.959789 1.419059.504535 2.151439-2.290353 3.684163-4.600652 7.354265-6.912124 11.023195-5.071159 8.056178-10.317146 16.384216-15.224038 24.708738-13.041632 22.127246-13.855927 40.38401-2.562566 57.458421.475201.718318.278081 1.689746-.443521 2.163157-.266347.175771-.565548.260141-.861229.260141"/><path d="m493.430052 337c-.231654 0-.46566-.051609-.687907-.158345-10.738408-5.238292-21.459176-10.511771-32.181121-15.787597-25.864134-12.725084-52.609025-25.884152-79.169297-38.259704-8.717019-4.061846-17.990243-7.394132-26.95773-10.618508-8.185508-2.941701-16.650882-5.9831-24.729381-9.587505-6.031241-2.690694-10.968886-7.132569-14.253202-12.614829-.353949.527817-1.013634.803455-1.66744.652147-2.324774-.552448-3.580645.709621-5.599682 2.989791-1.487526 1.679631-3.17378 3.583292-5.717273 4.093515-.330431.06803-.676148.024632-.984236-.121984l-75.588652-35.940828c-.745527-.354224-1.087717-1.224536-.783156-1.989284l.609121-1.531843c8.171396-20.570793 16.593262-41.857071 44.642236-40.01323.373939.024632.725536.181804.993644.442194 1.048911 1.022792 2.1331 2.043238 3.229048 3.074241 2.447068 2.303629 4.97645 4.68467 7.308279 7.259245 1.863817 2.057314 3.762911 4.089996 5.662005 6.122679 11.629747 12.445928 23.655776 25.314109 27.038868 43.922595 1.670967 9.191056 7.798633 16.966389 16.391005 20.799514 7.972668 3.556315 16.380422 6.577774 24.511838 9.500708 9.034514 3.246662 18.375941 6.604752 27.22231 10.725244 26.590846 12.390801 53.351023 25.556906 79.229268 38.290201 10.718417 5.273479 21.436834 10.546959 32.171714 15.781732.778452.380028 1.099476 1.316024.720833 2.092502-.272811.555967-.830193.877349-1.411092.877349zm-264.863079-117.549566 73.742474 35.063478c1.29938-.458614 2.383569-1.681977 3.524201-2.971024 1.901446-2.146456 4.240331-4.803136 8.281933-4.045425-1.213539-2.511237-2.097823-5.199585-2.608168-8.006399-3.218465-17.705333-14.403718-29.675052-26.246305-42.347355-1.909677-2.044412-3.820531-4.088823-5.696107-6.159039-2.247163-2.481914-4.730684-4.819557-7.133068-7.08096-.96307-.906673-1.916733-1.805135-2.846877-2.703597-25.271476-1.359422-32.894898 17.801512-40.948704 38.076728z"/><path d="m299.554093 371c-.03608 0-.073325-.001182-.109405-.003546-.85662-.06265-1.500249-.814445-1.440891-1.684447l4.895305-70.844889c.060522-.870002.803082-1.522504 1.657374-1.4634.855456.061467 1.499085.815627 1.439727 1.683265l-4.895305 70.84607c-.057031.832176-.739068 1.466947-1.546805 1.466947"/><path d="m501.426908 559c-4.530499 0-9.11854-1.194334-14.102324-3.575936-16.744529-8.002274-34.373315-14.891486-51.42199-21.552196-6.48808-2.535899-13.181663-5.149536-19.755467-7.799686-1.335194 2.386313-3.349141 4.253196-5.686024 5.231985-.422752.179032-.901872.159009-1.309359-.047114-2.376809-1.204935-4.6996-2.39338-6.991859-3.568868-5.035454-2.57948-9.792596-5.01644-14.653077-7.383907-14.515683-7.068244-22.279066-16.488643-24.43393-29.64281-.201982-1.227313-.371083-2.468761-.540184-3.717277-.766826-5.65483-1.493726-10.995177-5.163454-15.361446-.557799-.660771-.474422-1.652516.18789-2.21317.65879-.559476 1.646387-.473493 2.206534.188455 4.256885 5.062376 5.078904 11.112962 5.872739 16.962137.165578 1.220247.329982 2.432249.527267 3.631295 2.002203 12.224847 9.00698 20.653501 22.711212 27.328345 4.888665 2.380424 9.658725 4.823273 14.709445 7.409819 2.067965 1.058883 4.162939 2.133077 6.29784 3.216693 1.743855-.931674 3.198828-2.590079 4.052554-4.641884.329982-.796223 1.234203-1.170778 2.031561-.853937 6.987163 2.83036 14.148123 5.62774 21.073046 8.333249 17.10152 6.681911 34.784325 13.592324 51.632193 21.645246 9.41799 4.500543 16.941813 4.373336 25.972279-.433447 3.702609-1.971711 7.393475-3.972869 11.083166-5.972849l4.964995-2.686663c.759781-.412245 1.710974-.127207 2.120809.63957.409836.760887.124478 1.714941-.637652 2.128365l-4.957949 2.684307c-3.697911 2.003513-7.394649 4.004671-11.105477 5.981094-5.098867 2.717287-9.859532 4.07063-14.684784 4.07063"/><path d="m225.438191 457c-.228106 0-.462061-.051902-.680809-.159244-26.497741-13.004935-49.825392-30.22807-69.334898-51.189313-.589567-.634617-.557983-1.630188.069016-2.224699.629339-.594511 1.616629-.565022 2.206196.070775 19.248646 20.68286 42.270986 37.677156 68.424813 50.51459.774391.379826 1.097249 1.322316.719412 2.103202-.269048.559123-.824691.884689-1.40373.884689"/><path d="m789.430904 308c-.14345 0-.289252-.021255-.435054-.063766-4.080094-1.182023-13.633631-3.951099-11.720572-11.703331 1.149952-4.656063-.450339-7.732158-2.303431-11.292399-.660811-1.270587-1.342786-2.583684-1.895422-3.990067-5.130102-13.083737-12.529536-25.130694-19.740839-36.777346l-.032923.017713c-5.579265 3.243775-11.901649 6.915015-19.622082 1.595319-.558514-.383774-.807788-1.085195-.617305-1.73702 3.124153-10.798806 5.736825-22.304937.540877-33.822877-.358625-.791165-.008231-1.72403.780744-2.083006.790151-.364881 1.717873-.007085 2.075322.784079 5.44287 12.061127 2.946605 24.259232-.061142 34.86438 5.640407 3.305179 10.150852.684889 15.331515-2.32626l1.361599-.78526c.726657-.419199 1.659082-.183031 2.107069.536102l.359801.582156c7.420599 11.985553 15.097527 24.379678 20.435749 37.997156.490317 1.252874 1.107623 2.434897 1.756675 3.68541 1.876609 3.607474 4.004843 7.69437 2.567991 13.511202-.831305 3.368944 2.024761 5.736533 9.546481 7.918731.831305.240891 1.312215 1.113534 1.072348 1.949571-.19989.689612-.825426 1.139513-1.507401 1.139513"/><path d="m602.423541 252c-.700939 0-1.338156-.472636-1.523421-1.182771-6.25771-24.297024-27.051052-32.025801-45.394648-38.845935l-1.48094-.551802c-.794161-.295398-1.210712-1.167411-.944025-1.973255 9.485096-28.629912 27.816892-49.922154 44.497823-66.973671.608896-.621516 1.604843-.630969 2.22672-.022451.621877.608519.630137 1.605781.023601 2.228478-16.148737 16.504442-33.856296 37.021561-43.27295 64.319822l.044841.017724c19.066955 7.088355 40.68042 15.123163 47.34878 41.01297.218306.843655-.289108 1.70267-1.129291 1.920083-.132163.034266-.265507.049626-.39649.050808"/><path d="m523.163784 452c-3.791665 0-7.67947-1.028253-11.736106-2.297614-2.826748-.88288-5.665221-1.73503-8.502521-2.585998l-3.810424-1.145262c-.827742-.249381-1.296717-1.127533-1.04816-1.961954.247384-.834422 1.113816-1.304818 1.946247-1.056619l3.804562 1.144079c2.850197.85215 5.699222 1.707846 8.536522 2.595453 9.021912 2.818833 15.975643 4.167381 23.388969-4.199292 4.920723-5.553749 11.393754-9.724676 17.651057-13.759684 2.715366-1.74803 5.519838-3.555156 8.135548-5.437923.701118-.509399 1.676587-.341569 2.17839.365207.502976.707958.340007 1.692481-.362283 2.199517-2.679022 1.931225-5.519839 3.759625-8.264517 5.530111-6.083781 3.919182-12.371567 7.971918-17.00387 13.201828-4.932448 5.567932-9.841446 7.408151-14.913414 7.408151"/><path d="m802.429177 549c-.526803 0-1.045357-.267169-1.342347-.749722-4.123682-6.719249-11.029877-7.314789-18.340308-7.945638l-.275776-.024716c-7.148972-.617903-12.004522-4.252347-14.046917-10.512582-.150852-.468429-.077783-.981583.205064-1.384102 1.23628-1.770144 3.030005-2.643446 4.611594-3.414353 2.11075-1.027484 3.66759-1.786621 4.14961-4.237046-1.317599-2.638738-2.654053-5.338678-4.009365-8.076281-3.467239-7.004073-7.049975-14.244714-10.814205-21.391198-4.078897-7.742025-4.888549-14.045808-2.70473-21.079304 2.262781-7.294781 3.97283-14.895571 5.629845-22.245669.655264-2.907085 1.306992-5.804754 1.991719-8.677706l-15.91489-15.893631c-.28049-.277762-.444306-.654388-.460806-1.049846-.103711-2.67287-.11196-5.12918-.12021-7.504279-.011785-3.688584-.027106-7.170024-.398344-10.832715-.95461-9.348571-5.094791-17.484877-9.098263-25.354013-2.248638-4.419475-4.576238-8.9896-6.342857-13.760984-3.923331-10.584377-11.949131-18.595925-23.853478-23.808669-5.758305-2.519865-8.942697-6.402647-10.987449-13.399658-4.926262-16.838727-13.762891-31.357672-22.581842-44.537239-6.037617-9.017847-13.036916-17.453099-19.804044-25.61059-5.605096-6.754558-11.398757-13.738622-16.626723-21.026341-.50559-.704998-.344131-1.685403.361809-2.190318.705941-.504914 1.691193-.341317 2.192069.361326 5.164325 7.199448 10.924987 14.139964 16.493549 20.852152 6.818983 8.218692 13.870137 16.717501 19.994965 25.86952 8.959197 13.387889 17.944321 28.153995 22.987258 45.401126 1.800796 6.155487 4.302818 9.246176 9.231437 11.404716 12.717534 5.567008 21.310207 14.178804 25.539957 25.594112 1.705335 4.601903 3.989329 9.088464 6.197897 13.429083 4.135467 8.124536 8.411179 16.526833 9.422359 26.459176.388916 3.814518.40188 7.37246.416022 11.138723.005893 2.163247.014142 4.394758.09664 6.781628l16.099919 16.078413c.386558.386042.544481.945096.416021 1.475904-.75426 3.140122-1.46845 6.309668-2.184997 9.487453-1.668801 7.412476-3.395349 15.073291-5.694664 22.488122-1.912757 6.164902-1.170282 11.753095 2.481987 18.68655 3.784265 7.18297 7.378786 14.442443 10.851918 21.462993 1.430738 2.891784 2.839083 5.738843 4.230928 8.516462.139067.281293.19328.596718.152031.907434-.595158 4.487738-3.569772 5.93775-5.96337 7.102937-1.143175.557878-2.163783 1.054554-2.918044 1.804276 1.776047 4.535993 5.487243 7.075867 11.041662 7.558419l.275777.022362c7.765344.670866 15.798215 1.364094 20.751583 9.433313.452556.739129.219207 1.705411-.520911 2.158539-.254563.157713-.539768.231861-.81908.231861"/><path d="m733.569026 352c-.739472 0-1.397697-.524612-1.541353-1.283171-.161318-.854266.399174-1.678994 1.25051-1.840867l1.156308-.21977c7.829224-1.47931 15.22277-2.877092 21.833277-8.002688 17.733208-13.752148 28.913608-25.968271 36.255344-39.610533 8.125954-15.094397 21.15268-17.188117 33.801426-18.037657.866643-.072075 1.615535.597868 1.672056 1.468676.05652.867264-.596995 1.618734-1.463638 1.67663-12.26017.822364-23.875068 2.696315-31.246242 16.390566-9.688502 18.004572-24.914805 31.15767-37.098437 40.605404-7.207501 5.589948-15.322858 7.12361-23.172099 8.607646l-1.152776.21977c-.09891.017723-.197821.025994-.294376.025994"/><path d="m674.557266 273c-.609044 0-1.187753-.36509-1.436271-.970029-.332525-.803434.044336-1.726202.836561-2.060572l58.887142-24.847387c.792224-.335552 1.704624.044898 2.034815.848332.331358.803434-.044336 1.726202-.837728 2.060573l-58.885975 24.847386c-.196014.082707-.397862.121697-.598544.121697"/><path d="m435.42803 481c-.171996 0-.345169-.027131-.517165-.087292-12.767718-4.451911-24.818003-10.798301-36.471285-16.932359-5.917351-3.114213-12.03497-6.335773-18.153768-9.258888-1.834226-.876462-3.67552-1.743488-5.516813-2.611693-13.132915-6.1895-26.711132-12.590153-38.212445-22.336227-.662065-.561502-.745707-1.554747-.184954-2.217697.56193-.66295 1.552671-.743165 2.214736-.185202 11.184417 9.479478 24.572968 15.7893 37.520929 21.891508 1.846006.870564 3.692012 1.741129 5.532128 2.618771 6.172988 2.949066 12.318881 6.185961 18.262149 9.31433 11.551969 6.082154 23.49623 12.370743 36.043652 16.745978.818746.28429 1.252269 1.183165.96718 2.001826-.226185.649974-.83406 1.056945-1.484344 1.056945"/><path d="m387.679359 207c-.023898 0-.047795-.001171-.07295-.001171-.925707-.037477-1.643884-.765928-1.604894-1.627889l2.645056-57.875553c.040248-.861961.809994-1.524828 1.74702-1.494379.925707.036306 1.643884.764757 1.604894 1.626718l-2.645056 57.876724c-.037733.838539-.781065 1.49555-1.67407 1.49555"/><path d="m273.567796 179c-.590688 0-1.156716-.336402-1.422115-.906052-.364042-.784149-.022312-1.712468.763315-2.075825 10.59364-4.89712 21.223684-8.188434 32.492565-10.06031 27.501657-4.566581 54.615785-12.821826 80.837422-20.805138l3.58993-1.091244c-3.160125-4.570098-4.631562-9.769624-6.061897-14.819119-1.714523-6.056346-3.481891-12.299059-8.162775-17.836156l-4.551707 9.514101c-.210205.440718-.614175.758362-1.093302.857992-.479127.099631-.975869-.030475-1.345783-.349292l-58.373645-50.544177c-.466209-.4032094-.651753-1.0443593-.472081-1.6339359 1.024017-3.3733626 3.4678-4.7271617 5.252783-5.7164313 1.069815-.5919208 1.479657-.8779182 1.619402-1.1064817l-15.78066-15.7591593c-.610652-.6106747-.610652-1.6011165.001175-2.2117912.611826-.6095027 1.602961-.6095027 2.214788.0011721l16.27153 16.2502777c.234866.2344241.388704.535659.4392.8615085.42041 2.6677461-1.699257 3.8422108-3.245851 4.6990309-1.297636.7185098-2.63285 1.4581178-3.410257 2.978358l55.981532 48.4742132 4.667966-9.757903c.220774-.460643.650579-.784149 1.154367-.868541.508486-.083221 1.018145.082048 1.375142.445405 6.410673 6.504097 8.476321 13.798202 10.473858 20.852023 1.606485 5.676579 3.124895 11.03903 6.85457 15.51067.335859.402037.44742.945901.297106 1.447568-.150315.501668-.542541.8955-1.045155 1.047876l-5.735432 1.744115c-26.319106 8.013788-53.534227 16.298335-81.237869 20.90008-10.988216 1.824991-21.35521 5.034257-31.690497 9.81182-.213728.098458-.436851.145346-.657625.145346"/><path d="m525.552218 255c-.193021 0-.387204-.036385-.575574-.112676-.796501-.321595-1.183705-1.232391-.865104-2.035206 1.616257-4.080975 3.24298-8.158428 4.868539-12.23823 4.038318-10.132602 8.213844-20.6091 12.18821-30.961185.253485-.663143.484877-1.354456.713944-2.035205.949987-2.84389 1.934857-5.785196 4.511567-6.48003 1.955788-.519952 4.198781.426055 7.081301 2.991776.641852.571595.703479 1.561029.13837 2.210088-.566271.650233-1.549979.710092-2.188343.138497-2.688336-2.393186-3.851111-2.417834-4.231338-2.314548-.970918.261737-1.715094 2.48943-2.37555 4.456561-.241857.724177-.488366 1.458917-.756967 2.164314-3.982505 10.36969-8.162681 20.856752-12.202162 30.998743-1.626723 4.07628-3.25112 8.153734-4.867377 12.232362-.24302.611501-.825571.984739-1.439516.984739"/><path d="m556.899297 411c-.303881 0-.610117-.086215-.883375-.270455-.726722-.491306-.921065-1.479825-.432264-2.213241 1.330951-1.988847 1.157809-4.179649.958756-6.71413-.134273-1.7054-.27208-3.471033.077737-5.265011.977601-5.039435-1.389843-6.926713-6.642977-9.763536-14.779445-7.983732-29.620138-16.430425-43.975563-24.597215-5.394474-3.068304-10.788948-6.13897-16.192844-9.191921-.762058-.431074-1.035315-1.404239-.604229-2.170724.427554-.766486 1.393377-1.041665 2.161324-.608228 5.406252 3.054131 10.804259 6.125978 16.201089 9.197825 14.337758 8.158523 29.164316 16.593406 43.914315 24.561784 4.360337 2.356146 9.78779 5.285089 8.253074 13.182606-.263834 1.367627-.150762 2.843909-.028268 4.404043.215544 2.734074.457 5.830722-1.487602 8.743131-.305059.457057-.806816.705072-1.319173.705072"/><path d="m257.568903 394c-.380136 0-.762626-.138892-1.06391-.420236-.636699-.592367-.676713-1.594286-.089444-2.237698l21.819568-23.832371c.391905-.427359.983882-.604238 1.541728-.460598 6.933068 1.787784 13.809645 2.173594 21.091073 2.581959 8.087598.453475 16.449412.921196 24.830057 3.492471.284807.087846.539016.255228.733203.483153 1.554674 1.826958 1.268689 4.105017 1.014481 6.115978-.358952 2.852619-.462519 4.715191 1.847719 6.497039 2.956352 1.037532 6.974259.967493 11.221661.895079 1.628817-.026116 3.287058-.055794 4.944121-.024929.867369.016619 1.557027.739568 1.54084 1.613279-.015589.874898-.713485 1.606157-1.598508 1.553924-1.619403-.029678-3.241159-.002374-4.832316.024929-4.652252.074788-9.044412.153137-12.572732-1.168114-.134166-.049858-.260093-.11871-.375429-.201808-4.116766-3.015253-3.638948-6.815184-3.289411-9.588268.195364-1.544426.301284-2.600952-.064729-3.326275-7.85222-2.324356-15.84096-2.771896-23.573137-3.20519-6.813025-.382249-13.847306-.776369-20.78155-2.446629l-21.188755 23.146223c-.309522.335951-.732026.508082-1.15453.508082"/><path d="m225.436192 221c-.234194 0-.473073-.052612-.696728-.164851l-73.87548-36.879859c-.771671-.384652-1.08432-1.321146-.69907-2.09162s1.323199-1.084977 2.09604-.697986l73.87548 36.879859c.77167.385821 1.08432 1.322315.697899 2.092789-.272836.545996-.824364.861668-1.398141.861668"/><path d="m641.444493 235c-.472539 0-.94041-.215612-1.244935-.624571-1.165595-1.560841-2.300854-3.149806-3.433779-4.73877-2.389528-3.349013-4.860729-6.810518-7.585117-9.897047-15.059392-17.050903-28.344139-36.481737-23.637423-62.971511.28819-1.618259-.448036-3.032625-1.299772-4.669634-.317359-.614025-.639385-1.232736-.918241-1.871369-3.367274-7.762022-9.716791-8.594002-17.067388-9.556052-1.325442-.173427-2.649716-.348025-3.956489-.565981-.849402-.141788-1.421115-.946816-1.279937-1.797545.138844-.851901.941576-1.4296 1.789812-1.285468 1.270603.210925 2.561042.379664 3.84798.548404 7.240922.94916 15.449089 2.023703 19.51992 11.4075.248521.570668.536711 1.123759.822567 1.673335.974246 1.873712 2.080336 3.997019 1.604297 6.665214-4.472197 25.18087 8.364514 43.886359 22.902363 60.349016 2.832897 3.208396 5.350769 6.737866 7.786967 10.150156 1.120091 1.570216 2.240182 3.141603 3.391776 4.683696.518042.690192.37803 1.669819-.310359 2.187756-.278856.210924-.606716.312871-.932242.312871"/><path d="m400.559946 386c-.101636 0-.20444-.009437-.307244-.03067-.843461-.171044-1.391359-.999135-1.221966-1.851997.248832-1.255112.43458-2.588078.614487-3.876218.413553-2.965555.841124-6.033736 2.080614-8.805834 4.214965-9.420413 8.787408-18.854981 13.210318-27.979311 1.705612-3.519974 3.412392-7.039948 5.10165-10.56582.375001-.784445 1.310751-1.111199 2.081781-.732542.775703.378657 1.099302 1.318811.724301 2.100896-1.692762 3.53177-3.40071 7.055283-5.108659 10.581155-4.412396 9.101917-8.974325 18.514073-13.168262 27.89202-1.056078 2.361592-1.434583 5.074708-1.835285 7.947073-.186917 1.334146-.378506 2.711937-.64603 4.0567-.148365.749056-.7979 1.264548-1.525705 1.264548"/><path d="m712.568127 587c-.453384 0-.903243-.197058-1.21333-.574654-.547349-.671414-.451034-1.664964.217296-2.216018 8.68711-7.163709 18.885891-11.444707 28.749919-15.585286 4.448092-1.869101 9.048878-3.799562 13.419448-5.961301 10.033167-4.96421 21.782378-8.487655 32.82215 3.06325.59903.626574.579062 1.622484-.045808 2.224278-.621347.600614-1.612683.582914-2.215237-.04602-9.081766-9.498905-18.231656-7.832762-29.177463-2.416616-4.456313 2.204219-9.101733 4.153559-13.594458 6.04036-9.654956 4.05208-19.639965 8.245759-27.968832 15.115651-.292468.238357-.644838.356356-.993685.356356"/><path d="m623.582461 475c-.4753 0-.944673-.212775-1.256404-.617049-.531008-.690338-.399441-1.679743.292766-2.210499 15.880473-12.155385 31.687459-23.788288 50.360467-32.50144l3.865221-37.255788c.090082-.866468.881853-1.49061 1.73526-1.407864.87.089839 1.501758.866469 1.411676 1.730574l-3.958858 38.14708c-.058079.553216-.404182 1.036688-.911485 1.270741-18.733459 8.617403-34.613932 20.298772-50.57856 32.517989-.28684.219868-.624646.326256-.960083.326256"/><path d="m458.553336 543c-.054696 0-.109392-.003519-.164088-.009384-.853024-.090325-1.472135-.859848-1.380199-1.718522l4.895869-46.870485c.089608-.859848.858843-1.49095 1.704885-1.391241.853024.089152 1.472135.859848 1.381363 1.718522l-4.895869 46.870485c-.08379.803541-.756434 1.400625-1.541961 1.400625"/><path d="m572.430376 268c-.129558.001123-.259115-.015428-.389851-.048529-18.237021-4.661427-36.528222-10.197684-54.216389-15.553065-11.094856-3.358639-22.567784-6.830769-33.898199-10.047544-2.712468-.770796-5.512094-1.755571-8.218673-2.708427-8.390632-2.950779-17.065113-6.00441-25.337965-3.625817-6.501444 1.869063-13.198402 3.355092-19.675112 4.792651-11.194969 2.483809-22.771543 5.052736-33.504815 9.660964-.796191.340475-1.72194-.028373-2.062324-.829906-.341561-.801534.029445-1.727199.826814-2.070038 11.002988-4.724084 22.726787-7.324931 34.061913-9.840659 6.431954-1.426919 13.080623-2.902308 19.487843-4.744181 9.230401-2.657592 18.387779.566276 27.242463 3.681381 2.784314.980046 5.415515 1.905711 8.037293 2.649317 11.355148 3.223868 22.841033 6.700727 33.947666 10.062913 17.657545 5.34474 35.913411 10.871539 54.085654 15.516415.840947.213979 1.348578 1.072259 1.134219 1.916352-.181381.71405-.819747 1.188173-1.520537 1.188173"/><path d="m487.635448 292c-.088249 0-.178949-.007107-.269649-.021322-.88984-.143333-1.491646-.957132-1.343339-1.818314l7.73033-44.839487c.147081-.859997.992797-1.445174 1.881411-1.298288.88984.143333 1.491646.957132 1.343339 1.818313l-7.731556 44.839488c-.132373.772339-.823653 1.31961-1.610536 1.31961"/><path d="m254.446076 183c-.581559.001169-1.138644-.329352-1.404366-.89194-5.813259-12.301938-14.566944-22.88798-23.031599-33.125921-5.711864-6.910464-11.619524-14.054167-16.618134-21.703028-.255233-.389124-.323995-.872012-.187637-1.317395.814648-2.662919 2.743466-4.240512 4.447352-5.631746 1.523242-1.2459 2.496391-2.090955 2.677036-3.190347-.823972-3.375531-2.98588-5.433668-5.271325-7.609011-1.920659-1.828413-3.90775-3.720117-4.949661-6.395929-.313506-.804033.080416-1.711207.879914-2.026491.800663-.315284 1.702721.082044 2.015061.886077.789009 2.025319 2.441615 3.599395 4.192119 5.266064 2.456766 2.339431 5.242189 4.99063 6.224662 9.447972.032633.14768.044287.300048.033798.451243-.188802 2.611349-2.129275 4.197146-3.841319 5.597757-1.29831 1.059542-2.53252 2.068685-3.185172 3.469297 4.810973 7.256221 10.483212 14.116285 15.973642 20.756003 8.588192 10.386792 17.468911 21.126375 23.448829 33.783446.368282.77942.03846 1.711207-.736564 2.08275-.215608.103141-.44287.151199-.666636.151199"/><path d="m384.40575 252c-.468042 0-.92719-.23192-1.216242-.666477-1.658714-2.49724-1.209572-5.02962-.849368-7.065363.152308-.863257.296834-1.678492.291275-2.438674-.028905-4.234298.870492-8.401831 1.739871-12.43232 1.495289-6.924805 2.906085-13.464247-.13452-20.160646-.354645-.777752-.042246-1.710117.69706-2.082595.734859-.373649 1.623139-.043338 1.976671.734414 3.487525 7.676787 1.893291 15.060747.352422 22.201073-.870492 4.034003-1.693178 7.845457-1.665385 11.717819.00667 1.060039-.170096 2.063854-.342415 3.034873-.360204 2.032229-.534747 3.346442.363538 4.700481.469154.706302.30684 1.679663-.36465 2.175128-.257924.190925-.554758.282287-.848257.282287"/><path d="m438.023496 381c-.45827 0-.910952-.22139-1.203797-.642974-.486214-.699499-.344262-1.681624.321907-2.193884 1.141204-.882028.982486-2.133826.587927-4.089833l-.101714-.500483c-2.410948-12.567434-3.15424-24.060889-2.265643-35.136294.070417-.864364.813709-1.49674 1.610652-1.431971.820415.071834 1.429579.832569 1.359162 1.695755-.861771 10.773937-.136363 21.976523 2.219816 34.249555l.09389.469866c.386735 1.918323 1.037255 5.129661-1.742545 7.27644-.264902.206082-.573396.303823-.879655.303823"/><path d="m458.566302 282c-.122013 0-.246373-.015308-.36956-.044746-.841189-.203713-1.356227-1.053888-1.152089-1.895822l9.870189-40.859075c.200618-.843111 1.048847-1.361224 1.887689-1.155156.84119.203712 1.356227 1.052711 1.153263 1.895822l-9.870189 40.857898c-.173635.71947-.815379 1.201079-1.519303 1.201079"/><path d="m498.779971 445c-.16843 0-.340229-.028329-.507536-.093249-.77927-.296274-1.181257-1.196897-.90054-2.013715 1.778622-5.187733 1.010581-10.410878.069618-15.320044-2.941912-15.337751-1.39011-28.664148 4.740745-40.739351.388512-.768422 1.299158-1.057613 2.025653-.646844.728741.408409 1.004966 1.360969.615331 2.129391-5.788381 11.404752-7.242494 24.042992-4.444308 38.635928 1.022932 5.343543 1.851608 11.058903-.190888 17.006796-.218959.643303-.79499 1.041088-1.408075 1.041088"/><path d="m596.430985 358c-.04119 0-.084734-.001173-.125925-.005865-17.494077-1.40414-32.269599-7.64476-42.728386-18.047358-14.295362-14.215006-31.091559-22.61169-45.634063-28.9485-.79556-.34605-1.158034-1.268066-.810859-2.059874s1.274543-1.153107 2.066573-.807058c14.812005 6.454115 31.930663 15.017372 46.594383 29.600716 9.925668 9.871207 24.02214 15.799796 40.763024 17.14411.863818.06921 1.507563.82348 1.439305 1.684498-.065905.818788-.75437 1.439331-1.564052 1.439331"/><path d="m499.419924 446h-.034339c-16.051732-.366957-27.64057-9.657693-38.848127-18.640468l-1.9443-1.557502c-.683229-.541586-.790983-1.532724-.246294-2.211181.544688-.676098 1.538152-.791731 2.219013-.244245l1.951405 1.561042c11.293997 9.052391 21.960417 17.604493 36.938165 17.944312.87387.020059 1.565387.740993 1.544073 1.609419-.02013.857806-.722304 1.538623-1.579596 1.538623"/><path d="m499.486914 501c-.181767 0-.364649-.03406-.54084-.109227-.766096-.314761-1.144127-1.222635-.841926-2.028329 6.006109-16.150291 4.146066-31.996392 1.089486-51.034733-.137162-.855022.409254-1.661891 1.218841-1.807526.816277-.13624 1.576798.431034 1.715075 1.283708 2.463329 15.353993 5.529946 34.459279-1.256756 52.700147-.228602.617777-.789514.99596-1.38388.99596"/><path d="m507.436332 301c-.172276 0-.348068-.029663-.520344-.091363-8.006724-2.860724-16.015792-5.708396-24.027203-8.556069-19.60663-6.968491-39.880096-14.175475-59.751585-21.469076-.998496-.366638-2.002853-.726157-3.008381-1.086862-10.322486-3.700787-20.98718-7.524974-26.401563-18.59886-9.277112.462747-12.953501 5.603982-15.79781 13.687812-3.032992 8.620141-7.384422 16.862966-11.592874 24.834076-1.796591 3.401782-3.652951 6.918657-5.374537 10.404683-.38557.77955-1.324297 1.099913-2.096609.708358-.773483-.391555-1.086392-1.341965-.699651-2.123889 1.740338-3.523994 3.607245-7.061041 5.413212-10.481807 4.155714-7.867882 8.450891-16.005105 11.405362-24.403366 2.854857-8.115866 7.216834-15.650332 19.69687-15.823637.575424-.005861 1.189523.35959 1.446179.93387 4.708873 10.588595 14.587192 14.129201 25.044451 17.878637 1.01256.363078 2.02512.726156 3.030649 1.096354 19.856253 7.287668 40.12386 14.491092 59.722285 21.457211 8.011412 2.848859 16.023996 5.696531 24.031892 8.558442.813329.2907 1.241089 1.194836.953963 2.019474-.228529.649032-.829737 1.056012-1.474306 1.056012"/><path d="m441.673344 237c-.830068 0-1.52951-.642155-1.579386-1.474839-.83363-13.776922 4.023277-26.240133 8.884933-36.615752.365753-.786816 1.309822-1.127887 2.103077-.763294s1.13882 1.297247.770692 2.082886c-4.694218 10.021612-9.387249 22.028492-8.597556 35.109159.053438.864439-.611566 1.607739-1.485572 1.658312-.03325.002352-.064126.003528-.096188.003528"/><path d="m597.439722 349c-.712618 0-1.355142-.497501-1.519862-1.226068-1.598133-7.150099-2.807247-14.512402-3.978978-21.630671-3.06893-18.655098-6.243-37.943271-16.70096-54.734509-.459113-.735641-.239487-1.707064.489487-2.168019.726636-.460954 1.689254-.240733 2.148367.495143 10.793241 17.325285 14.017545 36.931765 17.136709 55.894559 1.163553 7.073469 2.367994 14.388616 3.947436 21.450297.188084.847637-.338786 1.68938-1.17874 1.880364-.114486.025936-.228973.038904-.343459.038904"/><path d="m590.435625 317c-.021143 0-.039936 0-.061079-.001163-13.137774-.484895-27.012015-2.307031-39.453258-12.277034-11.267829-9.026958-22.217344-13.811954-33.471078-14.624764-.862148-.06163-1.509347-.804671-1.445919-1.658179.062253-.855834.788149-1.486082 1.676138-1.436081 11.912678.861649 23.42952 5.868744 35.212993 15.308502 11.727093 9.396733 24.999945 11.123518 37.598583 11.587483.863323.032559 1.537536.752343 1.506997 1.60934-.030539.836067-.724721 1.491896-1.563377 1.491896"/><path d="m519.57516 364c-.187625 0-.379969-.033138-.565234-.105331-.81068-.313628-1.21779-1.226105-.903903-2.039169 4.519513-11.787646 9.643201-25.148162 20.226885-35.411462.626596-.607135 1.622541-.588199 2.224356.035505.605355.627254.586475 1.626127-.035401 2.233262-9.342293 9.058498-14.156813 20.395232-19.478746 34.275304-.240726.627254-.837821 1.011891-1.467957 1.011891"/><path d="m577.559008 268c-.493533 0-.978899-.233289-1.281086-.668373-.490033-.705699-.315021-1.675015.390859-2.164922 9.91033-6.878526 20.848563-12.152024 31.426271-17.251721 9.226617-4.447655 18.77059-9.048114 27.507175-14.668046.721048-.463079 1.682445-.256618 2.15031.466578.464365.723196.256684 1.685513-.467865 2.149758-8.897595 5.723746-18.525573 10.366197-27.836196 14.855844-10.470368 5.047207-21.295426 10.265882-31.003909 17.003268-.270685.187798-.579872.277614-.885559.277614"/><path d="m546.562124 300c-.356204 0-.715923-.122996-1.008854-.372535-.65968-.565307-.740529-1.559915-.182789-2.223382 2.652782-3.158859 4.97045-6.773038 7.2143-10.26777 4.921238-7.671852 10.012375-15.606252 19.183453-19.984423.786226-.373718 1.713059-.033114 2.082152.750983.367921.787645.03398 1.729034-.746388 2.100387-8.366104 3.994992-12.995582 11.210341-17.895729 18.847896-2.297749 3.579883-4.670488 7.279212-7.452159 10.591816-.309335.367804-.749903.557028-1.193986.557028"/><path d="m478.556458 370c-.295434 0-.595538-.083739-.859443-.261832-.716981-.481205-.913158-1.45659-.436728-2.179577 10.803757-16.452973 17.982908-35.038346 24.922675-53.013956 1.112838-2.877796 2.225677-5.755592 3.352528-8.629849 2.314423-5.901841 4.315898-12.064335 6.251979-18.025146 3.609427-11.114898 7.343799-22.610749 13.303849-33.099372.427386-.753652 1.376743-1.014305 2.12642-.580277.746174.432849 1.003073 1.39408.575687 2.147732-5.803575 10.20792-9.4854 21.548087-13.04695 32.513198-1.951262 6.00563-3.965581 12.212941-6.315036 18.202059-1.125684 2.86954-2.235019 5.743798-3.344354 8.615697-7.001657 18.128935-14.243864 36.875889-25.233289 53.608386-.298936.455258-.792882.702937-1.297338.702937"/><path d="m556.571555 386c-.358734 0-.716288-.121823-1.0113-.370199-.665546-.561803-.749329-1.556489-.191167-2.224739 8.390128-9.976438 14.814299-19.634718 19.641868-29.52245.382335-.781793 1.325191-1.102317 2.106382-.723839.78001.383209 1.104523 1.328221.722188 2.111197-4.943213 10.123097-11.50663 19.991906-20.063144 30.16941-.309172.369016-.75523.56062-1.204827.56062"/><path d="m433.532295 272c-.236895 0-.47724-.057204-.702636-.17638-.752085-.402815-1.046479-1.362181-.658937-2.142784 4.712606-9.457802 5.0047-19.475732 4.667757-28.027797-.034499-.877135.622138-1.616026 1.468521-1.651779.821083-.034561 1.561669.645934 1.596168 1.523069.332343 8.442423.064399 19.438787-5.00585 29.615221-.272545.547017-.809584.86045-1.365023.86045"/><path d="m467.596784 398c-.184287 0-.369771-.031-.551665-.09777-.828094-.305231-1.250518-1.218542-.946565-2.043622l8.807482-23.818817c.30515-.82508 1.224192-1.243581 2.049893-.941926.828095.301654 1.249322 1.21735.945368 2.041238l-8.806284 23.820009c-.239334.643848-.848438 1.040888-1.498229 1.040888"/><path d="m450.566499 314c-.044586 0-.090345-.001183-.136104-.005913-.860039-.074506-1.499495-.83849-1.424403-1.706545 1.085315-12.693242 4.313101-22.425161 10.157375-30.630295.502178-.7084 1.478375-.869239 2.183536-.359522.702815.507351.863559 1.49367.359034 2.200887-5.50284 7.722619-8.547588 16.956648-9.582451 29.059754-.070399.823115-.753267 1.441634-1.556987 1.441634"/><path d="m410.564739 295c-.212368 0-.428256-.042834-.634757-.133131-.789633-.347299-1.145144-1.259539-.795499-2.038646l9.869822-21.911103c.351991-.779108 1.27538-1.12988 2.066186-.783739.789633.346142 1.145144 1.258381.794326 2.038646l-9.868649 21.911103c-.260473.574202-.831872.91687-1.431429.91687"/><path d="m324.559477 616c-.469649 0-.933457-.20936-1.239547-.609471-.522221-.679257-.391374-1.653944.292071-2.173855l20.883031-15.898574c.684613-.518748 1.662465-.389642 2.184687.289615.522221.679257.392542 1.655108-.292071 2.175019l-20.883031 15.89741c-.282724.215176-.615685.319856-.94514.319856"/><path d="m520.381757 392h-.042416c-.891942-.023861-1.597254-.754022-1.57544-1.63093.053322-2.086683-.609574-4.197228-1.310039-6.429466-1.242174-3.955035-2.651587-8.437407.272672-13.175097.462937-.751636 1.455464-.989057 2.220159-.53211.763482.455753 1.004646 1.434073.540497 2.185708-2.166836 3.510019-1.137953 6.786195.054534 10.578972.747728 2.381372 1.520906 4.843873 1.454253 7.451929-.021814.864977-.741669 1.550994-1.61422 1.550994"/><path d="m540.592008 325c-.36428 0-.72856-.12095-1.027151-.367503-.672425-.552418-.756031-1.532815-.188709-2.18525l13.815183-15.898009c.566127-.653598 1.572974-.73617 2.244206-.181426.671231.552418.756031 1.531652.188709 2.185249l-13.813989 15.896847c-.316505.364014-.765585.550092-1.218249.550092"/><path d="m26.4237667 438h-24.84871501c-.86964594 0-1.57505169-.672414-1.57505169-1.5 0-.828711.70540575-1.5 1.57505169-1.5h24.84871501c.8708276 0 1.5762333.671289 1.5762333 1.5 0 .827586-.7054057 1.5-1.5762333 1.5"/><path d="m832.425264 532c-.279656 0-.565212-.072078-.818908-.229023-5.432637-3.273749-11.640521-4.810644-19.003608-4.660674-.877907.0186-1.587076-.666143-1.602416-1.521782-.017699-.855639.67377-1.561309 1.543417-1.578747 7.951898-.154619 14.745053 1.524107 20.702782 5.117558.742209.44642.975845 1.400876.521552 2.130959-.296176.477809-.814188.741709-1.342819.741709"/><path d="m363.537522 465c-.819377 0-1.501421-.65712-1.536043-1.497296-.036929-.863644.622034-1.594691 1.471416-1.631067 2.922059-.125557 4.188053-1.897435 6.011455-4.777031 1.11943-1.770705 2.278097-3.600082 4.13035-4.836876.71205-.475239 1.664143-.274583 2.132687.44825.466237.721659.268894 1.690911-.442001 2.167324-1.307541.871858-2.243477 2.350379-3.232499 3.913387-1.784163 2.817404-3.803754 6.007959-8.467276 6.212136-.023081.001173-.045008.001173-.068089.001173"/><path d="m60.6959274 354c-.7395189 0-1.3987068-.517351-1.545193-1.264636-.6379237-3.255442.8730104-5.645112 2.2079249-7.752058.6343797-1.003028 1.2333191-1.950918 1.5770891-2.930484.2870657-.815327 1.1825216-1.251732 2.0059157-.964314.8222128.283898 1.256946 1.175478.9698803 1.991978-.4607227 1.316254-1.1837029 2.461231-1.885419 3.568668-1.1707081 1.850029-2.1819353 3.447835-1.7826423 5.486739.1665689.849348-.3910236 1.67054-1.2439513 1.835952-.1027765.01877-.2031905.028155-.3036044.028155"/></g><path d="m21.6740741 28.600163c-4.562963 0-8.2296297-3.6666667-8.2296297-8.2296297 0-4.4814814 3.6666667-8.1481481 8.2296297-8.1481481 4.5629629 0 8.2296296 3.6666667 8.2296296 8.1481481 0 4.562963-3.6666667 8.2296297-8.2296296 8.2296297m0-28.60000004c-11.9777778 0-21.6740741 9.6962963-21.6740741 21.67407404 0 8.8814815 11.8962963 27.1325186 18.0888889 35.9333334 1.7111111 2.5259259 5.4592592 2.5259259 7.1703704 0 6.1925926-8.8008148 18.0888888-27.0518519 18.0888888-35.9333334 0-11.97777774-9.6962962-21.67407404-21.674074-21.67407404" mask="url(#c)" transform="translate(785 78)"/></g></svg>