<svg height="60" viewBox="0 0 44 60" width="44" xmlns="http://www.w3.org/2000/svg" xmlns:xlink="http://www.w3.org/1999/xlink"><mask id="a" fill="#fff"><path d="m0 .00016296h43.3481481v59.50168894h-43.3481481z" fill="#fff" fill-rule="evenodd"/></mask><path d="m21.6740741 28.600163c-4.562963 0-8.2296297-3.6666667-8.2296297-8.2296297 0-4.4814814 3.6666667-8.1481481 8.2296297-8.1481481 4.5629629 0 8.2296296 3.6666667 8.2296296 8.1481481 0 4.562963-3.6666667 8.2296297-8.2296296 8.2296297m0-28.60000004c-11.9777778 0-21.6740741 9.6962963-21.6740741 21.67407404 0 8.8814815 11.8962963 27.1325186 18.0888889 35.9333334 1.7111111 2.5259259 5.4592592 2.5259259 7.1703704 0 6.1925926-8.8008148 18.0888888-27.0518519 18.0888888-35.9333334 0-11.97777774-9.6962962-21.67407404-21.674074-21.67407404" fill="#fff" fill-rule="evenodd" mask="url(#a)" opacity=".2"/></svg>