<svg height="7" viewBox="0 0 10 7" width="10" xmlns="http://www.w3.org/2000/svg"><path d="m8.10210219.75090989c-.18292518.07552083-.37281569.13510024-.56766423.17823364.21470073-.18995142.37612773-.42754021.4671989-.69273213.02599453-.07570771-.06232664-.14117405-.13575365-.10063837-.27106569.14969607-.56304744.26199616-.86785584.33381664-.0176843.00416757-.03593065.00627938-.05423722.00627938-.0555219 0-.10949818-.01919324-.15195256-.05402888-.32429927-.26610766-.74139598-.41266404-1.17443066-.41266404-.18738138 0-.37656934.02719198-.56232481.0808284-.57553285.16619815-1.01960767.60820337-1.15893431 1.15353813-.05227007.20454726-.06642153.4092814-.04209307.60850239.00279015.0228936-.00883211.03887239-.01599817.04636654-.01258577.01313812-.03043066.02066965-.04895803.02066965-.00206752 0-.00419526-.00009345-.00630292-.00028033-1.25982117-.10897351-2.39587226-.67406217-3.19889233-1.59115153-.04094891-.04677768-.11947446-.04104027-.15211314.01108237-.15725183.25117544-.24035402.53845734-.24035402.83078518 0 .44800428.19332299.87019953.52912409 1.17798288-.1412135-.03117266-.27789051-.08026774-.40485219-.14592097-.06142336-.0317707-.13699818.009064-.13786131.07447427-.00879197.66554014.40972992 1.25774603 1.03668978 1.52441436-.01262592.00028033-.02525183.00041115-.03789781.00041115-.09938139 0-.2000073-.00893318-.29904745-.02655657-.06917153-.01229713-.12728285.04879606-.10580474.11123483.2035.59151441.75052919 1.02752058 1.40514963 1.12651435-.54329562.33955405-1.17597628.51866606-1.8344708.51866606l-.2052865-.00011213c-.06325 0-.11674452.03838648-.13286314.09542424-.01587773.05617807.01336862.11543978.06730475.14465013.74201825.4020489 1.58839598.61453883 2.44800182.61453883.75243613 0 1.45627555-.13902486 2.09198723-.41318733.5827792-.25134363 1.0977719-.6106329 1.53066606-1.06788805.40326642-.42595168.71861314-.91766871.93724817-1.461471.20841789-.51836704.31857847-1.07147627.31857847-1.59954272v-.02515492c-.00002007-.0847904.04116971-.16457224.11303102-.21888145.27269161-.20613579.51015511-.44878921.70576643-.72121363.05164781-.07193261-.0298084-.16208665-.11479745-.12698937z" fill-rule="evenodd" transform="translate(.875 .193965)"/></svg>