<svg height="34" viewBox="0 0 231 34" width="231" xmlns="http://www.w3.org/2000/svg"><g fill="none"><g><g fill="#000"><path d="m13.6250867 13.0182043c-.2543506.3805862-.5616863.7400233-.9220164 1.0783221-.36033.3382989-.7771761.6343059-1.2505509.88803-.4733747.2537242-.9961986.4545861-1.56848751.6025918-.57228886.1480058-1.19755805.2220075-1.87582633.2220075-1.13044714 0-2.17609505-.197338-3.13697512-.59202-.96088006-.394682-1.78750713-.9408854-2.479906-1.6386268-.69239886-.6977413-1.23288579-1.5258563-1.621477-2.4843696-.3885912-.9585134-.58288388-2.00863359-.58288388-3.15039216 0-1.14175856.19782528-2.19187878.59348177-3.15039214.3956565-.95851336.94320862-1.7866283 1.64267278-2.48436964.69946417-.69774135 1.52609123-1.24394482 2.479906-1.63862679s1.9888649-.59202 3.10518145-.59202c.55109297 0 1.0915799.0563823 1.621477.16914857.52989704.11276628 1.02799284.27134148 1.49430234.47573036.4663094.20438888.8902207.45106141 1.2717467.740025.3815259.28896359.6994594.61668567.95381.98317607l-1.2717467.93031714c-.1554365-.23962834-.3638596-.47925308-.6252755-.71888142-.2614159-.23962835-.5687516-.45106195-.9220163-.63430715s-.7383175-.33124872-1.15516988-.444015-.86549185-.16914857-1.34593189-.16914857c-.97501065 0-1.84756144.17619467-2.61767855.52858929s-1.42364706.82812022-1.96060945 1.42719107-.94674332 1.29327784-1.22935511 2.08264178c-.28261178.78936395-.42391555 1.62100278-.42391555 2.49494143 0 .87393866.14483636 1.70557748.43451344 2.49494146.28967708.7893639.70299061 1.4835709 1.239953 2.0826418.53696239.5990708 1.19049234 1.0747964 1.96060945 1.427191s1.63560271.5285893 2.59648277.5285893c.86196594 0 1.68152782-.1761947 2.45871027-.5285893.7771824-.3523946 1.4271797-.9162175 1.9500115-1.6914857z"/><path d="m30.857254 7.94374714c0 1.14175857-.1978253 2.19187876-.5934818 3.15039216-.3956565.9585133-.9432086 1.7866283-1.6426728 2.4843696-.6994641.6977414-1.5260912 1.2439448-2.479906 1.6386268-.9538147.394682-1.9888649.59202-3.1051814.59202s-2.1513667-.197338-3.1051814-.59202c-.9538148-.394682-1.7804419-.9408854-2.479906-1.6386268-.6994642-.6977413-1.2470163-1.5258563-1.6426728-2.4843696-.3956565-.9585134-.5934818-2.00863359-.5934818-3.15039216 0-1.14175856.1978253-2.19187878.5934818-3.15039214s.9432086-1.7866283 1.6426728-2.48436964c.6994641-.69774135 1.5260912-1.24394482 2.479906-1.63862679.9538147-.39468197 1.9888649-.59202 3.1051814-.59202s2.1513667.19733803 3.1051814.59202c.9538148.39468197 1.7804419.94088544 2.479906 1.63862679.6994642.69774134 1.2470163 1.52585628 1.6426728 2.48436964s.5934818 2.00863358.5934818 3.15039214zm-1.6108791 0c0-.87393865-.1413038-1.70557748-.4239156-2.49494143-.2826118-.78936394-.6923927-1.48357093-1.2293551-2.08264178s-1.1904923-1.07479645-1.9606094-1.42719107-1.6356027-.52858929-2.5964828-.52858929-1.8263657.17619467-2.5964828.52858929-1.423647.82812022-1.9606094 1.42719107-.9467433 1.29327784-1.2293551 2.08264178c-.2826118.78936395-.4239156 1.62100278-.4239156 2.49494143 0 .87393866.1413038 1.70557748.4239156 2.49494146.2826118.7893639.6923927 1.480047 1.2293551 2.07207.5369624.5920229 1.1904923 1.0642246 1.9606094 1.4166193.7701171.3523946 1.6356027.5285892 2.5964828.5285892s1.8263657-.1761946 2.5964828-.5285892c.7701171-.3523947 1.423647-.8245964 1.9606094-1.4166193.5369624-.592023.9467433-1.2827061 1.2293551-2.07207.2826118-.78936398.4239156-1.6210028.4239156-2.49494146zm12.208768 4.90530856h.0211958l5.0233993-12.39013284h2.3315356v14.96964854h-1.526096v-13.0032964h-.0423916l-5.4261191 13.0032964h-.8054396l-5.4261191-13.0032964h-.0423915v13.0032964h-1.526096v-14.96964854h2.3315355zm11.3609369-12.39013284h4.2391555c.7630518 0 1.4554403.08104954 2.0771863.24315107.6217459.16210152 1.1551676.40877406 1.6002812.740025.4451135.33125094.7877752.74707035 1.0279952 1.24747071s.3603282 1.08889055.3603282 1.76548822-.1236408 1.26508785-.3709261 1.76548821-.5934795.91621977-1.0385931 1.24747072c-.4451136.33125094-.9820679.58144736-1.6108791.75059678s-1.3247323.25372286-2.0877841.25372286h-2.670668v6.95623497h-1.526096zm1.526096 6.72365571h2.5858849c1.2011 0 2.1125094-.23257696 2.7342553-.69773786.6217459-.46516089.9326142-1.14174841.9326142-2.02978285 0-.9303218-.3214661-1.61043321-.9644079-2.04035465-.6429418-.42992143-1.5437533-.64487892-2.7024616-.64487892h-2.5858849z"/><path d="m69.8150936 15.4285714h-1.526096v-13.61645997h-5.0233994v-1.35318857h11.5728947v1.35318857h-5.0233993z"/><path d="m91.2864164 7.94374714c0 1.14175857-.1978252 2.19187876-.5934817 3.15039216-.3956565.9585133-.9432086 1.7866283-1.6426728 2.4843696-.6994642.6977414-1.5260912 1.2439448-2.479906 1.6386268s-1.9888649.59202-3.1051815.59202c-1.1163165 0-2.1513666-.197338-3.1051814-.59202s-1.7804418-.9408854-2.479906-1.6386268c-.6994642-.6977413-1.2470163-1.5258563-1.6426728-2.4843696-.3956565-.9585134-.5934818-2.00863359-.5934818-3.15039216 0-1.14175856.1978253-2.19187878.5934818-3.15039214s.9432086-1.7866283 1.6426728-2.48436964c.6994642-.69774135 1.5260912-1.24394482 2.479906-1.63862679s1.9888649-.59202 3.1051814-.59202c1.1163166 0 2.1513667.19733803 3.1051815.59202s1.7804418.94088544 2.479906 1.63862679c.6994642.69774134 1.2470163 1.52585628 1.6426728 2.48436964s.5934817 2.00863358.5934817 3.15039214zm-1.6108791 0c0-.87393865-.1413037-1.70557748-.4239155-2.49494143-.2826118-.78936394-.6923927-1.48357093-1.2293551-2.08264178s-1.1904924-1.07479645-1.9606095-1.42719107-1.6356027-.52858929-2.5964828-.52858929c-.96088 0-1.8263656.17619467-2.5964827.52858929s-1.4236471.82812022-1.9606095 1.42719107-.9467433 1.29327784-1.2293551 2.08264178c-.2826118.78936395-.4239155 1.62100278-.4239155 2.49494143 0 .87393866.1413037 1.70557748.4239155 2.49494146.2826118.7893639.6923927 1.480047 1.2293551 2.07207.5369624.5920229 1.1904924 1.0642246 1.9606095 1.4166193.7701171.3523946 1.6356027.5285892 2.5964827.5285892.9608801 0 1.8263657-.1761946 2.5964828-.5285892.7701171-.3523947 1.4236471-.8245964 1.9606095-1.4166193.5369624-.592023.9467433-1.2827061 1.2293551-2.07207.2826118-.78936398.4239155-1.6210028.4239155-2.49494146zm6.3163418 7.48482426h-1.526096v-14.96964854h1.526096zm5.5109019 0h-1.5260957v-14.96964854h4.4087217c.734791 0 1.416581.07047786 2.045393.21143571.628811.14095785 1.17283.37001092 1.632075.68716607.459244.31715516.816036.72945068 1.070386 1.23689893.254351.50744825.381524 1.12765348.381524 1.86063429 0 .5497356-.098912 1.05012846-.296741 1.50119357-.197828.45106511-.466305.84221727-.805439 1.17346821s-.74185.59554294-1.208159.79288393c-.46631.19734099-.975003.32420115-1.526096.38058429l4.387526 7.12538354h-1.865229l-4.154372-6.99852211h-2.543494zm0-8.30942354h2.649473c1.229361 0 2.176096-.22200528 2.840234-.6660225.664137-.44401722.996201-1.11003306.996201-1.9980675 0-.49335247-.091847-.90917188-.275545-1.24747072-.183697-.33829883-.438044-.61316251-.763048-.82459928-.325003-.21143677-.720654-.36648808-1.186963-.46515857-.46631-.0986705-.982069-.148005-1.547292-.148005h-2.71306zm16.46912-6.660225h4.981007c.932619 0 1.868757.1550513 2.808441.46515857.939684.31010726 1.787507.77878508 2.543493 1.4060475.755987.62726242 1.367126 1.40956674 1.833435 2.34693643.46631.93736968.699461 2.02625272.699461 3.26668178 0 1.25452485-.233151 2.34693176-.699461 3.27725356-.466309.9303218-1.077448 1.7091022-1.833435 2.3363647-.755986.6272624-1.603809 1.0959402-2.543493 1.4060475-.939684.3101072-1.875822.4651585-2.808441.4651585h-4.981007zm1.526096 13.61646004h3.030996c1.130447 0 2.116041-.1761947 2.956811-.5285893s1.536691-.8140247 2.087784-1.384904c.551093-.5708792.964407-1.2227995 1.239953-1.9557803.275546-.73298082.413318-1.487094.413318-2.26236216s-.137772-1.52938133-.413318-2.26236214-.68886-1.38490107-1.239953-1.95578036c-.551093-.57087928-1.247014-1.03250931-2.087784-1.38490393-.84077-.35239461-1.826364-.52858928-2.956811-.52858928h-3.030996zm16.045203 0h8.0332v1.3531885h-9.559296v-14.96964854h9.304947v1.35318857h-7.778851v5.15903143h7.270152v1.332045h-7.270152zm17.846845 0h6.994607v1.3531885h-8.520703v-14.96964854h1.526096z"/><path d="m161.274875 5.42766214h-1.20816l1.420117-4.96873928h1.504901z"/></g><g transform="translate(165.28493 .458923)"><path d="m2.05193689 14.9696486h-1.526096v-14.9696486h1.526096z" fill="#2f3485"/><path d="m13.4552653 12.3901329h.0211958l5.0233993-12.3901329h2.3315356v14.9696486h-1.526096v-13.00329646h-.0423916l-5.4261191 13.00329646h-.8054395l-5.42611913-13.00329646h-.04239156v13.00329646h-1.526096v-14.9696486h2.33153556zm11.254958 2.5795157h-1.6744664l6.485908-14.9696486h1.4837044l6.4435165 14.9696486h-1.6956622l-1.6532707-3.9327043h-7.7576547zm2.2043609-5.32818003h6.6130827l-3.3065413-7.94998286z" fill="#2c3a84"/></g><path d="m215.938786 3.14415643c-.522832-.54973561-1.144569-.9761267-1.865229-1.27918607-.72066-.30305938-1.547287-.45458679-2.479906-.45458679-.96088 0-1.826366.17619467-2.596483.52858929s-1.423647.82812022-1.960609 1.42719107-.950276 1.29327784-1.239953 2.08264178c-.289677.78936395-.434514 1.62100278-.434514 2.49494143 0 .87393866.144837 1.70557748.434514 2.49494146.289677.7893639.702991 1.480047 1.239953 2.07207.536962.5920229 1.190492 1.0642246 1.960609 1.4166193.770117.3523946 1.635603.5285892 2.596483.5285892.847835 0 1.625006-.0916212 2.331536-.2748664.706529-.1832452 1.278809-.4158221 1.716858-.6977378v-4.5458679h-3.497304v-1.332045h5.0234v6.7447993c-.819575.4933525-1.702723.8598374-2.649473 1.0994657-.946749.2396283-1.92881.3594407-2.946213.3594407-1.130447 0-2.176095-.197338-3.136975-.59202s-1.787507-.9408854-2.479906-1.6386268c-.692399-.6977413-1.232886-1.5258563-1.621477-2.4843696-.388591-.9585134-.582884-2.00863359-.582884-3.15039216 0-1.14175856.197826-2.19187878.593482-3.15039214.395657-.95851336.943209-1.7866283 1.642673-2.48436964.699464-.69774135 1.526091-1.24394482 2.479906-1.63862679s1.988865-.59202 3.105181-.59202c1.2011 0 2.246748.17619467 3.136975.52858929.890228.35239462 1.653268.84573968 2.289144 1.48005zm6.655474 10.93122647h8.0332v1.3531885h-9.559296v-14.96964854h9.304946v1.35318857h-7.77885v5.15903143h7.270152v1.332045h-7.270152z" fill="#2c3a84"/></g><g fill="#2c3a84" transform="translate(152 25)"><path d="m4.78893239 2.51121387c0 .34711373-.06158377.65372627-.18475316.9198468s-.28925896.48788431-.49827368.665298c-.20901472.17741368-.45348363.31240033-.73341407.404964-.27993043.09256366-.57665223.1388448-.89017432.1388448h-2.04908051v4.0264992h-.24633755v-8.1918432h2.14985496c.28366284 0 .57105377.03278247.86218142.0983484.29112765.06556592.55425831.17548363.78939987.3297564.23514157.15427277.42735758.36253789.57665381.6248016s.22394323.59008843.22394323.983484zm-.24633755 0c0-.34711374-.06344995-.63637085-.19035174-.86778-.1269018-.23140916-.29112519-.41653371-.4926751-.5553792-.20154991-.1388455-.42735707-.23912129-.67742826-.3008304-.25007118-.06170911-.49827244-.0925632-.74461122-.0925632h-2.00429187v3.7256688h2.06027767c.24633878 0 .49267387-.03471086.73901265-.1041336.24633878-.06942275.46654741-.18126883.66063251-.3355416s.35084379-.35289599.47028078-.5958756c.11943698-.24297962.17915458-.53416511.17915458-.8735652z"/><path d="m11.9327213 8.66666667-.9405616-2.3487912h-4.60203325l-.97415303 2.3487912h-.26873187l3.43752851-8.1918432h.31352052l3.30316262 8.1918432zm-3.20238814-8.0298576-2.25062942 5.4612288h4.43407586z"/><path d="m18.4270748 8.66666667-2.3961925-4.1306328h-1.8587288v4.1306328h-.2463375v-8.1918432h2.1946436c.2911277 0 .5859833.02699733.8845758.0809928.2985924.05399547.5654554.15619965.800597.3066156.2351415.15041595.4273576.35675269.5766538.6190164s.2239432.60165871.2239432 1.0181952c0 .38568193-.0709146.70579312-.212746.9603432-.1418315.25455007-.3247166.46088681-.5486609.6190164-.2239444.15812959-.4721457.27190405-.7446113.3413268-.2724656.06942274-.5393286.1041336-.800597.1041336l2.4073897 4.1422032zm-.0671829-6.1670232c0-.35482738-.0671823-.64986963-.2015489-.8851356-.1343666-.23526598-.3116533-.42039053-.5318652-.5553792-.2202119-.13498868-.4740117-.22947933-.761407-.2834748-.2873952-.05399547-.5803847-.0809928-.8789771-.0809928h-1.8139402v3.6215352h1.937109c.7315515 0 1.2895378-.15812722 1.6739756-.4743864s.5766538-.76364351.5766538-1.3421664z"/><path d="m20.9128446 8.66666667v-8.1918432h.2463376v8.1918432z"/><path d="m28.2581825 6.69969867c0 .34711373-.0653162.65758303-.1959504.9314172s-.3041884.50523985-.520668.694224c-.2164795.18898414-.4721455.33168431-.7670055.4281048-.2948601.09642048-.6027789.14463-.9237658.14463-.4926776 0-.9424257-.0906339-1.349258-.2719044-.4068322-.18127051-.7446098-.42617486-1.0133431-.7347204l.1903518-.173556c.2836628.31625918.6139758.55345001.9909488.7115796.3769729.15812959.7670035.2371932 1.1701033.2371932.2911277 0 .5673215-.04435276.8285899-.1330596.2612685-.08870685.4926741-.21597997.694224-.3818232.20155-.16584323.3601748-.37025159.4758794-.6132312.1157046-.24297962.173556-.52259482.173556-.838854s-.0634499-.58237572-.1903517-.7983576-.2911252-.40110643-.4926751-.5553792-.4310895-.28347428-.6886255-.3876084-.5169343-.19862478-.7782027-.2834748c-.3284517-.10799094-.6289058-.22176541-.9013714-.3413268-.2724657-.1195614-.5076037-.26611834-.7054212-.4396752-.1978175-.17355687-.3508439-.38182199-.4590836-.6248016-.1082398-.24297962-.1623589-.53802187-.1623589-.8851356 0-.3394001.0653162-.64215587.1959504-.9082764s.3079208-.4898127.5318651-.6710832c.2239444-.18127051.4833427-.32011392.7782027-.4165344.2948601-.09642048.6065113-.14463.934963-.14463.4030998 0 .7856657.07906361 1.147709.2371932.3620434.15812959.6587652.38375013.8901744.6768684l-.1903518.173556c-.2090147-.26997735-.4758777-.48017085-.800597-.6305868s-.6774264-.2256228-1.0581318-.2256228c-.2687332 0-.5318638.03856761-.7893998.115704-.257536.07713638-.4908079.19476761-.6998226.3528972s-.3769705.3567528-.5038723.5958756c-.1269018.23912279-.1903517.52066638-.1903517.8446392 0 .31625918.0559852.5843041.1679574.8041428s.2612662.40689163.4478865.5611644c.1866202.15427277.397498.2815459.6326396.3818232.2351415.1002773.4758781.19283957.7222169.2776896.3359165.11570458.6494339.2333358.9405615.3528972.2911277.11956139.5467936.26418995.7670056.43389.2202119.16970005.3919.37603678.5150694.6190164.1231694.24297961.1847532.53802186.1847532.8851356zm4.4321543-.8562096v-.231408h2.015489v.231408z"/><path d="m45.1546988 2.51121387c0 .34711373-.0615837.65372627-.1847531.9198468s-.289259.48788431-.4982737.665298c-.2090147.17741368-.4534836.31240033-.7334141.404964-.2799304.09256366-.5766522.1388448-.8901743.1388448h-2.0490805v4.0264992h-.2463376v-8.1918432h2.149855c.2836629 0 .5710538.03278247.8621814.0983484.2911277.06556592.5542583.17548363.7893999.3297564s.4273576.36253789.5766538.6248016.2239432.59008843.2239432.983484zm-.2463375 0c0-.34711374-.06345-.63637085-.1903518-.86778-.1269017-.23140916-.2911251-.41653371-.492675-.5553792-.20155-.1388455-.4273571-.23912129-.6774283-.3008304s-.4982725-.0925632-.7446112-.0925632h-2.0042919v3.7256688h2.0602777c.2463388 0 .4926738-.03471086.7390126-.1041336.2463388-.06942275.4665474-.18126883.6606325-.3355416s.3508438-.35289599.4702808-.5958756c.119437-.24297962.1791546-.53416511.1791546-.8735652z"/><path d="m52.3096849 8.66666667-.9405615-2.3487912h-4.6020333l-.9741531 2.3487912h-.2687318l3.4375285-8.1918432h.3135205l3.3031626 8.1918432zm-3.2023881-8.0298576-2.2506294 5.4612288h4.4340758zm10.9050743 8.0298576-5.6881579-7.867872h-.0335915v7.867872h-.2463376v-8.1918432h.347112l5.6993551 7.8563016h.0335915v-7.8563016h.2463376v8.1918432zm4.7690299-7.9604352v7.9604352h-.2463375v-7.9604352h-2.6985159v-.231408h5.6433693v.231408zm4.1643833 7.9604352v-8.1918432h.2463375v8.1918432zm8.665642 0-5.6881579-7.867872h-.0335915v7.867872h-.2463375v-8.1918432h.347112l5.6993551 7.8563016h.0335914v-7.8563016h.2463376v8.1918432z"/></g></g></svg>