<svg height="34" viewBox="0 0 231 34" width="231" xmlns="http://www.w3.org/2000/svg" xmlns:xlink="http://www.w3.org/1999/xlink"><mask id="a" fill="#fff"><path d="m0 .320075h12.9885167v15.831h-12.9885167z" fill="#fff" fill-rule="evenodd"/></mask><mask id="b" fill="#fff"><path d="m0 34h231v-34h-231z" fill="#fff" fill-rule="evenodd"/></mask><g fill="#fefefe" fill-rule="evenodd"><path d="m12.9885167 13.320575c-.247.38025-.5416667.747-.8905 1.08675-.3488334.342-.7518334.639-1.209.9-.4571667.261-.9641667.4635-1.5166667.6165-.5525.15075-1.157.22725-1.81133333.22725-1.09416667 0-2.106-.20025-3.03333334-.59625-.9295-.39825-1.729-.94725-2.3985-1.6515-.66733333-.702-1.1895-1.53225-1.5665-2.4975-.37483333-.96525-.56333333-2.02275-.56333333-3.1725 0-1.1475.19066667-2.20275.57633333-3.168.38133334-.96525.91-1.79775 1.586-2.502.676-.69975 1.4755-1.24875 2.39633334-1.647.923-.396 1.924-.59625 3.003-.59625.53083333 0 1.053.0585 1.5665.1755.51133333.1125.99233333.2745 1.44300003.48375.4506666.20925.8623333.46125 1.2306666.75375.3683334.2925.676.62325.9208334.9945l-1.2285.93375c-.1516667-.24075-.3531667-.48375-.6045-.72225-.2535-.243-.5503334-.4545-.89050003-.639-.34233334-.1845-.715-.33525-1.118-.44775-.403-.11025-.83633334-.16875-1.3-.16875-.9425 0-1.78533334.1755-2.53066667.52875-.74316667.3555-1.37583333.8325-1.89583333 1.431-.51783334.60075-.91433334 1.29825-1.18733334 2.088-.273.79425-.4095 1.629-.4095 2.502 0 .8775.14083334 1.71225.42033334 2.5065.2795.78975.67816666 1.48725 1.19816666 2.08575.51783334.60075 1.1505 1.07775 1.89583334 1.43325.74316666.35325 1.5795.52875 2.509.52875.832 0 1.625-.1755 2.37683333-.531.7496667-.3555 1.378-.9225 1.8828333-1.701z" mask="url(#a)" transform="translate(0 4)"/><path d="m29.3516263 12.0113701c0-.8891416-.1444333-1.7305287-.4332999-2.53325754-.2888666-.80272882-.7084109-1.50767481-1.258633-2.11483797-.5479295-.60716316-1.2173664-1.09152928-2.0037255-1.45082433-.7886517-.35702104-1.6735922-.53439455-2.6571142-.53439455s-1.8661699.17737351-2.6548216.53439455c-.7863591.35929505-1.455796.84366117-2.0060181 1.45082433-.5479295.60716316-.9674738 1.31210915-1.2563404 2.11483797-.2888666.80272884-.4332999 1.64411594-.4332999 2.53325754 0 .8868675.1444333 1.7305287.4332999 2.5332575.2888666.7981808.7084109 1.5008528 1.2563404 2.1011939.5502221.6026151 1.219659 1.0801592 2.0060181 1.4394542.7886517.3592951 1.6712996.5366686 2.6548216.5366686s1.8684625-.1773735 2.6571142-.5366686c.7863591-.359295 1.455796-.8368391 2.0037255-1.4394542.5502221-.6003411.9697664-1.3030131 1.258633-2.1011939.2888666-.8027288.4332999-1.64639.4332999-2.5332575m1.6483737-.0136441c0 1.1620239-.2040407 2.2308129-.6075369 3.2063672-.4057888.9755543-.9651813 1.8146675-1.68047 2.5241615-.7152887.711768-1.5589626 1.2666288-2.5356068 1.6691302-.9766442.4002274-2.0335292.6026151-3.1775326.6026151-1.1417108 0-2.1985958-.2023877-3.17524-.6026151-.9766442-.4025014-1.8203181-.9573622-2.5356068-1.6691302-.7152887-.709494-1.2746812-1.5486072-1.68047-2.5241615-.4034962-.9755543-.6075369-2.0443433-.6075369-3.2063672 0-1.1597499.2040407-2.22626494.6075369-3.20181923.4057888-.9755543.9651813-1.81694145 1.68047-2.5287095.7152887-.70722001 1.5589626-1.26435475 2.5356068-1.66458215s2.0335292-.60261512 3.17524-.60261512c1.1440034 0 2.2008884.20238772 3.1775326.60261512s1.8203181.95736214 2.5356068 1.66458215c.7152887.71176805 1.2746812 1.5531552 1.68047 2.5287095.4034962.97555429.6075369 2.04206933.6075369 3.20181923"/><path d="m41.5204545 17.416343h.0227273l5.0909091-12.416343h2.3659091v15h-1.5477273v-13.03032566h-.0431818l-5.5022727 13.03032566h-.8159091l-5.5022727-13.03032566h-.0431819v13.03032566h-1.5454545v-15h2.3613636z"/><path d="m54.4743435 11.7358829h2.5020477c1.1621296 0 2.0423995-.2330445 2.6451458-.6991336.6005782-.466089.9019513-1.14281443.9019513-2.03465787 0-.92993726-.3122139-1.61114431-.9323055-2.04362116-.6222596-.43247684-1.4938569-.64535405-2.6147916-.64535405h-2.5020477zm-1.4743435-6.7358829h4.0999759c.7371718 0 1.4071308.07842844 2.007709.24424858.6027463.1590977 1.1187666.40558709 1.5502289.73946818.4292941.33164028.7610214.74843143.9930137 1.25037347.2319923.49970123.3490725 1.09127577.3490725 1.7680012 0 .67896623-.1214165 1.26829997-.3599133 1.77024197-.2384967.4997013-.5745603.9164924-1.0038545 1.2503735-.4314623.3316403-.9518188.5803705-1.5589014.7506722-.6092508.1703018-1.281378.2554527-2.0185498.2554527h-2.5844375v6.9711682h-1.4743435z"/><path d="m69.7914003 20h-1.5828006v-13.64430834h-5.2085997v-1.35569166h12v1.35569166h-5.2085997z"/><path d="m89.3516263 12.0113701c0-.8891416-.1444333-1.7305287-.4332999-2.53325754-.2888666-.80272882-.7084109-1.50767481-1.258633-2.11483797-.5479295-.60716316-1.2173664-1.09152928-2.0037255-1.45082433-.7886517-.35702104-1.6735922-.53439455-2.6571142-.53439455s-1.8661699.17737351-2.6548216.53439455c-.7863591.35929505-1.455796.84366117-2.0060181 1.45082433-.5479295.60716316-.9674738 1.31210915-1.2563404 2.11483797-.2888666.80272884-.4332999 1.64411594-.4332999 2.53325754 0 .8868675.1444333 1.7305287.4332999 2.5332575.2888666.7981808.7084109 1.5008528 1.2563404 2.1011939.5502221.6026151 1.219659 1.0801592 2.0060181 1.4394542.7886517.3592951 1.6712996.5366686 2.6548216.5366686s1.8684625-.1773735 2.6571142-.5366686c.7863591-.359295 1.455796-.8368391 2.0037255-1.4394542.5502221-.6003411.9697664-1.3030131 1.258633-2.1011939.2888666-.8027288.4332999-1.64639.4332999-2.5332575m1.6483737-.0136441c0 1.1620239-.2040407 2.2308129-.6075369 3.2063672-.4057888.9755543-.9651813 1.8146675-1.68047 2.5241615-.7152887.711768-1.5589626 1.2666288-2.5356068 1.6691302-.9766442.4002274-2.0335292.6026151-3.1775326.6026151-1.1417108 0-2.1985958-.2023877-3.17524-.6026151-.9766442-.4025014-1.8203181-.9573622-2.5356068-1.6691302-.7152887-.709494-1.2746812-1.5486072-1.68047-2.5241615-.4034962-.9755543-.6075369-2.0443433-.6075369-3.2063672 0-1.1597499.2040407-2.22626494.6075369-3.20181923.4057888-.9755543.9651813-1.81694145 1.68047-2.5287095.7152887-.70722001 1.5589626-1.26435475 2.5356068-1.66458215s2.0335292-.60261512 3.17524-.60261512c1.1440034 0 2.2008884.20238772 3.1775326.60261512s1.8203181.95736214 2.5356068 1.66458215c.7152887.71176805 1.2746812 1.5531552 1.68047 2.5287095.4034962.97555429.6075369 2.04206933.6075369 3.20181923"/><path d="m94.32 20h1.36v-15h-1.36z" mask="url(#b)"/><path d="m101.515219 11.6731401h2.626083c1.217507 0 2.157298-.2218404 2.812708-.6655213.659854-.4481626.988669-1.11368393.988669-2.00328656 0-.4952196-.088869-.91201076-.27105-1.25261428-.184404-.3361219-.435459-.61174186-.75761-.82461907-.324372-.21063639-.715396-.36749327-1.177516-.46608903s-.973117-.14789364-1.535214-.14789364h-2.68607zm0 8.3268599h-1.515219v-15h4.372362c.728727 0 1.40191.06946519 2.026216.21063639s1.161964.36973409 1.61964.6901703c.453233.31595459.808709.73050493 1.059765 1.23916941.251055.50642366.375472 1.12712877.375472 1.86435614 0 .5489991-.095535 1.05094116-.291047 1.50358526-.195512.4526442-.464341.8425456-.7976 1.1741859-.337703.3338811-.737614.598297-1.199734.7954885-.462119.1994323-.966451.3249178-1.512997.3831789l4.347923 7.1392292h-1.848478l-4.116863-7.0137437h-2.51944z" mask="url(#b)"/><path d="m119.544599 18.6443083h3.062021c1.141464 0 2.135714-.1770242 2.985018-.5288318.849303-.3562892 1.553658-.8178966 2.113066-1.3893038.557143-.5714072.973867-1.2257245 1.250174-1.9584703.278571-.7372273.416725-1.4923812.416725-2.2699432 0-.7730804-.138154-1.5304751-.416725-2.2654616-.276307-.73274576-.693031-1.38706306-1.250174-1.95847029-.559408-.57364804-1.263763-1.03749627-2.113066-1.38930386-.849304-.35180759-1.843554-.52883179-2.985018-.52883179h-3.062021zm-1.544599-13.6443083h5.034669c.944425 0 1.886585.15461607 2.837805.46608903.948955.31147297 1.805052.77980281 2.568293 1.40947117.76324.62742755 1.381533 1.40947117 1.852613 2.3528533.473345.9366597.70662 2.0301763.70662 3.2693457 0 1.2593367-.233275 2.3550941-.70662 3.2850314-.47108.9344188-1.089373 1.7142216-1.852613 2.34389-.763241.6274276-1.619338 1.0957574-2.568293 1.4072304-.95122.3114729-1.89338.466089-2.837805.466089h-5.034669z" mask="url(#b)"/><path d="m135.599062 18.6443083h8.400938v1.3556917h-10v-15h9.735053v1.35569166h-8.135991v5.14938754h7.606096v1.3556916h-7.606096z" mask="url(#b)"/><path d="m153.614413 18.6443083h7.385587v1.3556917h-9v-15h1.614413z" mask="url(#b)"/><path d="m161.23908 10h-1.23908l1.455172-5h1.544828z" mask="url(#b)"/><path d="m165.318 20h1.364v-15h-1.364z" mask="url(#b)"/><path d="m178.519315 17.416343h.022724l5.090138-12.416343h2.367823v15h-1.549765v-13.03032566h-.043175l-5.499167 13.03032566h-.815786l-5.499167-13.03032566h-.043175v13.03032566h-1.549765v-15h2.365551z" mask="url(#b)"/><path d="m191.766719 14.6601434h6.423017l-3.209332-7.96608902zm-2.142458 5.3398566h-1.624261l6.301089-15h1.439191l6.25972 15h-1.648212l-1.606842-3.9393487h-7.533437z" mask="url(#b)"/><path d="m215.809691 7.13859275c-.506099-.55721393-1.109942-.99161336-1.807185-1.30092395s-1.498747-.46169154-2.402339-.46169154c-.931829 0-1.770259.17967306-2.51746.53674484-.747202.35707179-1.37711.8437811-1.898413 1.45103057-.521303.60724946-.923141 1.31229566-1.20117 2.11286425-.282372.80284288-.423558 1.64662398-.423558 2.53589198 0 .8847192.141186 1.7307747.423558 2.5313433.278029.8005686.679867 1.5033404 1.20117 2.1037668.521303.6027008 1.151211 1.0803128 1.898413 1.4396589.747201.3570718 1.585631.5367448 2.51746.5367448.821053 0 1.572598-.0955223 2.258981-.2820184.68421-.1864961 1.238095-.4207534 1.663826-.7095949v-4.6214641h-3.388471v-1.3759773h4.865497v6.8753376c-.792815.5049041-1.648622.8778962-2.565246 1.1235252-.918797.245629-1.870176.3661692-2.856308.3661692-1.096909 0-2.106934-.2024165-3.040936-.6027008-.927485-.4002843-1.731161-.9574982-2.402339-1.6670931s-1.194653-1.5511016-1.570426-2.5267946c-.375773-.9756929-.564745-2.0423596-.564745-3.2045487 0-1.1599147.191145-2.22658135.575606-3.20227431.382289-.97569297.914452-1.81947406 1.592147-2.52906894.677694-.70732055 1.477026-1.26453448 2.402339-1.66481877.925313-.40255863 1.92665-.60270078 3.008354-.60270078 1.162072 0 2.178613.18422175 3.040936.54584222.862322.36616915 1.600835.8710732 2.217711 1.51926084z" mask="url(#b)"/><path d="m222.599062 18.6443083h8.400938v1.3556917h-10v-15h9.735053v1.35569166h-8.135991v5.14938754h7.603752v1.3556916h-7.603752z" mask="url(#b)"/><path d="m167.815011 1.966h-1.815011l1.203184-1.932h1.796816z" mask="url(#b)"/><path d="m156.731707 27.9881121c0-.3373903-.068292-.6204359-.204878-.8468724-.141463-.2264364-.317073-.4075856-.536585-.5411831-.219512-.1381262-.463415-.2332295-.736585-.2943674-.270732-.0588735-.541464-.0905746-.807318-.0905746h-2.180487v3.6365695h2.239024c.268293 0 .536585-.0317011.802439-.1018964.268293-.0656666.509756-.1743561.719512-.3238041.212195-.1539768.382927-.3464478.509756-.5842061.131708-.2377583.195122-.5208038.195122-.8536654m.268293 0c0 .341919-.065854.6385508-.2.8989527s-.314634.4777809-.541463.6498726c-.229269.1720918-.492683.3056893-.797561.3962638-.304878.0883103-.62683.1358619-.965854.1358619h-2.229268v3.9309369h-.265854v-8h2.336585c.309756 0 .619513.0339655.934147.0973677.319512.0634022.602439.1720917.858536.3215397.256098.1517125.465854.3532409.62683.6113785.163414.2536088.243902.5751486.243902.9578262" mask="url(#b)"/><path d="m160.556793 26.1607699-2.233853 5.3325785h4.398664zm3.175946 7.8392301-.933184-2.2938013h-4.565702l-.966592 2.2938013h-.267261l3.412027-8h.309577l3.278396 8z" mask="url(#b)"/><path d="m169.63615 27.9790546c0-.3464478-.068075-.6362864-.211267-.8649872-.138498-.2287009-.323944-.4075857-.556338-.5411832-.2277-.1313331-.495306-.2241721-.795775-.2762524-.30047-.0543448-.605634-.0792528-.920188-.0792528h-1.894366v3.5346731h2.023474c.767606 0 1.349765-.1539768 1.753521-.4619304.401409-.3102179.600939-.7449759.600939-1.3110671zm.070423 6.0209454-2.507042-4.0328333h-1.941315v4.0328333h-.258216v-8h2.295775c.302817 0 .612676.0294367.924882.0792528.312207.0543447.589202.1539767.835681.2988961.248826.149448.448357.3509765.603286.6068497.159625.2558732.234742.5864704.234742.994056 0 .3781489-.07277.6883669-.220657.9397113-.150235.2445514-.340376.4483442-.575117.602321-.234742.1539768-.492958.2649306-.776996.3328616-.288732.0679309-.565727.1018964-.838028.1018964l2.516432 4.0441551z" mask="url(#b)"/><path d="m172.89 34h.22v-8h-.22z" mask="url(#b)"/><path d="m180 31.96839c0 .3193143-.068203.6064828-.206961.8593625-.136407.2550227-.31985.4671845-.545626.6429145-.228128.17573-.493885.3043129-.804327.3943209-.308091.087865-.630292.1350121-.968956.1350121-.515052 0-.987771-.0835789-1.413453-.2528797-.42333-.1671578-.778457-.3921779-1.060677-.6793464l.197554-.1585856c.298683.2914546.644403.5100456 1.041863.6579159.392756.1457273.801975.218591 1.225305.218591.303387 0 .592663-.040718.867827-.1221538.272813-.0835789.515052-.2014466.726717-.3557461.211665-.1500134.378646-.3407447.500941-.5657648.119944-.222877.181091-.4821859.181091-.7736405 0-.2935976-.065851-.5379051-.202258-.7393517-.131702-.1993035-.303386-.3707474-.515051-.5121886-.209314-.1414412-.449201-.2635949-.719662-.3578891-.272812-.0964372-.545625-.1843021-.816086-.2635949-.34572-.0985803-.660866-.2035896-.945438-.3150282-.284572-.1114385-.531514-.2443075-.740827-.4050361-.20461-.1607287-.366887-.353603-.479775-.5786231-.112888-.2228771-.169332-.4950442-.169332-.8186445 0-.3128851.068203-.5914814.202258-.837932.138758-.2485936.326905-.4521832.559737-.619341.232831-.1693008.505644-.2978838.813734-.3857487.310442-.0900081.637347-.1350121.980715-.1350121.42333 0 .823142.0750067 1.204139.220734.378646.1457273.69144.353603.933679.6236271l-.202258.1607286c-.218721-.2507366-.496237-.4414679-.837253-.5807661-.338664-.1414412-.710254-.2100188-1.110066-.2100188-.28222 0-.555033.0364319-.825494.1071525s-.515052.1821591-.733772.3257433c-.218721.1457273-.39746.3300295-.529163.5507635s-.199906.4821859-.199906.7800697c0 .2935976.061148.5421912.176388.7436378.117591.2057326.275164.3750335.470367.5207608.195202.1414412.416274.2593088.663217.3514599.244591.0942941.498589.177873.754939.2571658.355127.1050094.682032.2164479.98777.3236004.305739.1114385.573848.2464505.804328.4028931.228128.1564425.409219.3471738.53857.5721939s.195202.4971873.195202.8186445" mask="url(#b)"/><path d="m185.103 31.1h1.794v-.2h-1.794z" mask="url(#b)"/><path d="m196.731707 27.9881121c0-.3373903-.068292-.6204359-.204878-.8468724-.141463-.2264364-.317073-.4075856-.536585-.5411831-.219512-.1381262-.463415-.2332295-.736585-.2943674-.273171-.0588735-.541464-.0905746-.809757-.0905746h-2.178048v3.6365695h2.239024c.268293 0 .536585-.0317011.802439-.1018964.268293-.0656666.509756-.1743561.719512-.3238041.212195-.1539768.380488-.3464478.509756-.5842061.131708-.2377583.195122-.5208038.195122-.8536654m.268293 0c0 .341919-.065854.6385508-.2.8989527s-.314634.4777809-.541463.6498726c-.229269.1720918-.492683.3056893-.797561.3962638-.304878.0883103-.62683.1358619-.965854.1358619h-2.229268v3.9309369h-.265854v-8h2.334146c.309756 0 .621952.0339655.936586.0973677.319512.0634022.602439.1720917.858536.3215397.256098.1517125.465854.3532409.62683.6113785.160975.2536088.243902.5751486.243902.9578262" mask="url(#b)"/><path d="m200.556793 26.1607699-2.233853 5.3325785h4.398664zm3.175946 7.8392301-.933184-2.2938013h-4.565702l-.966592 2.2938013h-.267261l3.412027-8h.309577l3.278396 8z" mask="url(#b)"/><path d="m211.659454 34-5.395531-7.682989h-.029797v7.682989h-.234126v-8h.329904l5.404044 7.6716671h.034055v-7.6716671h.231997v8z" mask="url(#b)"/><path d="m217.13002 26.2264365v7.7735635h-.26004v-7.7735635h-2.86998v-.2264365h6v.2264365z" mask="url(#b)"/><path d="m220.89 34h.22v-8h-.22z" mask="url(#b)"/><path d="m229.661582 34-5.39553-7.682989h-.029798v7.682989h-.236254v-8h.332033l5.404044 7.6716671h.031926v-7.6716671h.231997v8z" mask="url(#b)"/></g></svg>