<svg height="20" viewBox="0 0 10 20" width="10" xmlns="http://www.w3.org/2000/svg"><path d="m.3274292 9.98624268h2.05528564v8.46134032c0 .1670654.13535157.302417.302417.302417h3.48482666c.16706543 0 .30241699-.1353516.30241699-.302417v-8.42146h2.36275635c.15362548 0 .28289795-.11528316.30043945-.26788325l.3588501-3.11502686c.00985107-.08569336-.01728516-.1715332-.07463379-.23583984-.05738526-.06434326-.13952637-.10118409-.22573242-.10118409h-2.72153321v-1.95267334c0-.58861083.31691895-.88710937.94211426-.88710937h1.77941895c.16706543 0 .30241699-.1354248.30241699-.30241699v-2.85933838c0-.16706543-.13535156-.30241699-.30241699-.30241699h-2.45233155c-.01728515-.00084229-.05570068-.00223389-.11231689-.00223389-.42550049 0-1.9045166.08353271-3.07283936 1.1583252-1.29448242 1.19106445-1.11452636 2.61712646-1.0715332 2.86439209v2.28339843h-2.1576416c-.16706543 0-.30241699.13535157-.30241699.30241699v3.07525635c0 .16702881.13538818.30245362.30245361.30245362z" fill="#385c8e" fill-rule="evenodd" transform="translate(.3125 .625)"/></svg>