<?xml version="1.0" encoding="UTF-8"?>
<svg width="231px" height="34px" viewBox="0 0 231 34" version="1.1" xmlns="http://www.w3.org/2000/svg" xmlns:xlink="http://www.w3.org/1999/xlink">
    <title>logo/color</title>
    <g id="Symbols" stroke="none" stroke-width="1" fill="none" fill-rule="evenodd">
        <g id="menu/base/blanc-copy" transform="translate(-74.000000, -51.000000)" fill-rule="nonzero">
            <g id="Group" transform="translate(74.000000, 36.000000)">
                <g id="Group-5" transform="translate(0.000000, 15.000000)">
                    <g id="Group">
                        <path d="M13.6250867,13.0182043 C13.3707361,13.3987905 13.0634004,13.7582276 12.7030703,14.0965264 C12.3427403,14.4348253 11.9258942,14.7308323 11.4525194,14.9845564 C10.9791447,15.2382806 10.4563208,15.4391425 9.88403189,15.5871482 C9.31174303,15.735154 8.68647384,15.8091557 8.00820556,15.8091557 C6.87775842,15.8091557 5.83211051,15.6118177 4.87123044,15.2171357 C3.91035038,14.8224537 3.08372331,14.2762503 2.39132444,13.5785089 C1.69892558,12.8807676 1.15843865,12.0526526 0.769847444,11.0941393 C0.381256242,10.1356259 0.186963556,9.08550571 0.186963556,7.94374714 C0.186963556,6.80198858 0.384788837,5.75186836 0.780445333,4.793355 C1.17610183,3.83484164 1.72365395,3.0067267 2.42311811,2.30898536 C3.12258228,1.61124401 3.94920934,1.06504054 4.90302411,0.670358571 C5.85683888,0.275676598 6.89188901,0.0783385714 8.00820556,0.0783385714 C8.55929853,0.0783385714 9.09978546,0.134720865 9.62968256,0.247487143 C10.1595796,0.360253421 10.6576754,0.518828621 11.1239849,0.7232175 C11.5902943,0.927606379 12.0142056,1.17427891 12.3957316,1.4632425 C12.7772575,1.75220609 13.095191,2.07992817 13.3495416,2.44641857 L12.0777949,3.37673571 C11.9223584,3.13710737 11.7139353,2.89748263 11.4525194,2.65785429 C11.1911035,2.41822594 10.8837678,2.20679234 10.5305031,2.02354714 C10.1772384,1.84030194 9.7921856,1.69229842 9.37533322,1.57953214 C8.95848084,1.46676586 8.50984137,1.41038357 8.02940133,1.41038357 C7.05439068,1.41038357 6.18183989,1.58657824 5.41172278,1.93897286 C4.64160567,2.29136748 3.98807572,2.76709308 3.45111333,3.36616393 C2.91415094,3.96523478 2.50437001,4.65944177 2.22175822,5.44880571 C1.93914644,6.23816966 1.79784267,7.06980849 1.79784267,7.94374714 C1.79784267,8.8176858 1.94267903,9.64932462 2.23235611,10.4386886 C2.52203319,11.2280525 2.93534672,11.9222595 3.47230911,12.5213304 C4.0092715,13.1204012 4.66280145,13.5961268 5.43291856,13.9485214 C6.20303567,14.300916 7.06852127,14.4771107 8.02940133,14.4771107 C8.89136727,14.4771107 9.71092915,14.300916 10.4881116,13.9485214 C11.265294,13.5961268 11.9152913,13.0323039 12.4381231,12.2570357 L13.6250867,13.0182043 Z" id="C" fill="#000000"></path>
                        <path d="M30.857254,7.94374714 C30.857254,9.08550571 30.6594287,10.1356259 30.2637722,11.0941393 C29.8681157,12.0526526 29.3205636,12.8807676 28.6210994,13.5785089 C27.9216353,14.2762503 27.0950082,14.8224537 26.1411934,15.2171357 C25.1873787,15.6118177 24.1523285,15.8091557 23.036012,15.8091557 C21.9196955,15.8091557 20.8846453,15.6118177 19.9308306,15.2171357 C18.9770158,14.8224537 18.1503887,14.2762503 17.4509246,13.5785089 C16.7514604,12.8807676 16.2039083,12.0526526 15.8082518,11.0941393 C15.4125953,10.1356259 15.21477,9.08550571 15.21477,7.94374714 C15.21477,6.80198858 15.4125953,5.75186836 15.8082518,4.793355 C16.2039083,3.83484164 16.7514604,3.0067267 17.4509246,2.30898536 C18.1503887,1.61124401 18.9770158,1.06504054 19.9308306,0.670358571 C20.8846453,0.275676598 21.9196955,0.0783385714 23.036012,0.0783385714 C24.1523285,0.0783385714 25.1873787,0.275676598 26.1411934,0.670358571 C27.0950082,1.06504054 27.9216353,1.61124401 28.6210994,2.30898536 C29.3205636,3.0067267 29.8681157,3.83484164 30.2637722,4.793355 C30.6594287,5.75186836 30.857254,6.80198858 30.857254,7.94374714 Z M29.2463749,7.94374714 C29.2463749,7.06980849 29.1050711,6.23816966 28.8224593,5.44880571 C28.5398475,4.65944177 28.1300666,3.96523478 27.5931042,3.36616393 C27.0561418,2.76709308 26.4026119,2.29136748 25.6324948,1.93897286 C24.8623777,1.58657824 23.9968921,1.41038357 23.036012,1.41038357 C22.0751319,1.41038357 21.2096463,1.58657824 20.4395292,1.93897286 C19.6694121,2.29136748 19.0158822,2.76709308 18.4789198,3.36616393 C17.9419574,3.96523478 17.5321765,4.65944177 17.2495647,5.44880571 C16.9669529,6.23816966 16.8256491,7.06980849 16.8256491,7.94374714 C16.8256491,8.8176858 16.9669529,9.64932462 17.2495647,10.4386886 C17.5321765,11.2280525 17.9419574,11.9187356 18.4789198,12.5107586 C19.0158822,13.1027815 19.6694121,13.5749832 20.4395292,13.9273779 C21.2096463,14.2797725 22.0751319,14.4559671 23.036012,14.4559671 C23.9968921,14.4559671 24.8623777,14.2797725 25.6324948,13.9273779 C26.4026119,13.5749832 27.0561418,13.1027815 27.5931042,12.5107586 C28.1300666,11.9187356 28.5398475,11.2280525 28.8224593,10.4386886 C29.1050711,9.64932462 29.2463749,8.8176858 29.2463749,7.94374714 Z M41.4551429,12.8490557 L41.4763387,12.8490557 L46.499738,0.458922857 L48.8312736,0.458922857 L48.8312736,15.4285714 L47.3051776,15.4285714 L47.3051776,2.425275 L47.262786,2.425275 L41.8366669,15.4285714 L41.0312273,15.4285714 L35.6051082,2.425275 L35.5627167,2.425275 L35.5627167,15.4285714 L34.0366207,15.4285714 L34.0366207,0.458922857 L36.3681562,0.458922857 L41.4551429,12.8490557 Z M52.8160798,0.458922857 L57.0552353,0.458922857 C57.8182871,0.458922857 58.5106756,0.539972404 59.1324216,0.702073929 C59.7541675,0.864175453 60.2875892,1.11084799 60.7327028,1.44209893 C61.1778163,1.77334987 61.520478,2.18916928 61.760698,2.68956964 C62.000918,3.18997 62.1210262,3.77846019 62.1210262,4.45505786 C62.1210262,5.13165553 61.9973854,5.72014571 61.7501001,6.22054607 C61.5028148,6.72094643 61.1566206,7.13676584 60.711507,7.46801679 C60.2663934,7.79926773 59.7294391,8.04946415 59.1006279,8.21861357 C58.4718167,8.38776299 57.7758956,8.47233643 57.0128438,8.47233643 L54.3421758,8.47233643 L54.3421758,15.4285714 L52.8160798,15.4285714 L52.8160798,0.458922857 Z M54.3421758,7.18257857 L56.9280607,7.18257857 C58.1291607,7.18257857 59.0405701,6.95000161 59.662316,6.48484071 C60.2840619,6.01967982 60.5949302,5.3430923 60.5949302,4.45505786 C60.5949302,3.52473606 60.2734641,2.84462465 59.6305223,2.41470321 C58.9875805,1.98478178 58.086769,1.76982429 56.9280607,1.76982429 L54.3421758,1.76982429 L54.3421758,7.18257857 Z" id="OMP" fill="#000000"></path>
                        <polygon id="T" fill="#000000" points="69.8150936 15.4285714 68.2889976 15.4285714 68.2889976 1.81211143 63.2655982 1.81211143 63.2655982 0.458922857 74.8384929 0.458922857 74.8384929 1.81211143 69.8150936 1.81211143"></polygon>
                        <path d="M91.2864164,7.94374714 C91.2864164,9.08550571 91.0885912,10.1356259 90.6929347,11.0941393 C90.2972782,12.0526526 89.7497261,12.8807676 89.0502619,13.5785089 C88.3507977,14.2762503 87.5241707,14.8224537 86.5703559,15.2171357 C85.6165411,15.6118177 84.581491,15.8091557 83.4651744,15.8091557 C82.3488579,15.8091557 81.3138078,15.6118177 80.359993,15.2171357 C79.4061782,14.8224537 78.5795512,14.2762503 77.880087,13.5785089 C77.1806228,12.8807676 76.6330707,12.0526526 76.2374142,11.0941393 C75.8417577,10.1356259 75.6439324,9.08550571 75.6439324,7.94374714 C75.6439324,6.80198858 75.8417577,5.75186836 76.2374142,4.793355 C76.6330707,3.83484164 77.1806228,3.0067267 77.880087,2.30898536 C78.5795512,1.61124401 79.4061782,1.06504054 80.359993,0.670358571 C81.3138078,0.275676598 82.3488579,0.0783385714 83.4651744,0.0783385714 C84.581491,0.0783385714 85.6165411,0.275676598 86.5703559,0.670358571 C87.5241707,1.06504054 88.3507977,1.61124401 89.0502619,2.30898536 C89.7497261,3.0067267 90.2972782,3.83484164 90.6929347,4.793355 C91.0885912,5.75186836 91.2864164,6.80198858 91.2864164,7.94374714 Z M89.6755373,7.94374714 C89.6755373,7.06980849 89.5342336,6.23816966 89.2516218,5.44880571 C88.96901,4.65944177 88.5592291,3.96523478 88.0222667,3.36616393 C87.4853043,2.76709308 86.8317743,2.29136748 86.0616572,1.93897286 C85.2915401,1.58657824 84.4260545,1.41038357 83.4651744,1.41038357 C82.5042944,1.41038357 81.6388088,1.58657824 80.8686917,1.93897286 C80.0985746,2.29136748 79.4450446,2.76709308 78.9080822,3.36616393 C78.3711198,3.96523478 77.9613389,4.65944177 77.6787271,5.44880571 C77.3961153,6.23816966 77.2548116,7.06980849 77.2548116,7.94374714 C77.2548116,8.8176858 77.3961153,9.64932462 77.6787271,10.4386886 C77.9613389,11.2280525 78.3711198,11.9187356 78.9080822,12.5107586 C79.4450446,13.1027815 80.0985746,13.5749832 80.8686917,13.9273779 C81.6388088,14.2797725 82.5042944,14.4559671 83.4651744,14.4559671 C84.4260545,14.4559671 85.2915401,14.2797725 86.0616572,13.9273779 C86.8317743,13.5749832 87.4853043,13.1027815 88.0222667,12.5107586 C88.5592291,11.9187356 88.96901,11.2280525 89.2516218,10.4386886 C89.5342336,9.64932462 89.6755373,8.8176858 89.6755373,7.94374714 Z M95.9918791,15.4285714 L94.4657831,15.4285714 L94.4657831,0.458922857 L95.9918791,0.458922857 L95.9918791,15.4285714 Z M101.502781,15.4285714 L99.9766853,15.4285714 L99.9766853,0.458922857 L104.385407,0.458922857 C105.120198,0.458922857 105.801988,0.529400724 106.4308,0.670358571 C107.059611,0.811316419 107.60363,1.04036949 108.062875,1.35752464 C108.522119,1.6746798 108.878911,2.08697532 109.133261,2.59442357 C109.387612,3.10187182 109.514785,3.72207705 109.514785,4.45505786 C109.514785,5.00479346 109.415873,5.50518632 109.218044,5.95625143 C109.020216,6.40731654 108.751739,6.7984687 108.412605,7.12971964 C108.073471,7.46097058 107.670755,7.72526258 107.204446,7.92260357 C106.738136,8.11994456 106.229443,8.24680472 105.67835,8.30318786 L110.065876,15.4285714 L108.200647,15.4285714 L104.046275,8.43004929 L101.502781,8.43004929 L101.502781,15.4285714 Z M101.502781,7.11914786 L104.152254,7.11914786 C105.381615,7.11914786 106.32835,6.89714258 106.992488,6.45312536 C107.656625,6.00910814 107.988689,5.3430923 107.988689,4.45505786 C107.988689,3.96170539 107.896842,3.54588598 107.713144,3.20758714 C107.529447,2.86928831 107.2751,2.59442463 106.950096,2.38298786 C106.625093,2.17155109 106.229442,2.01649978 105.763133,1.91782929 C105.296823,1.81915879 104.781064,1.76982429 104.215841,1.76982429 L101.502781,1.76982429 L101.502781,7.11914786 Z M117.971901,0.458922857 L122.952908,0.458922857 C123.885527,0.458922857 124.821665,0.613974164 125.761349,0.924081429 C126.701033,1.23418869 127.548856,1.70286651 128.304842,2.33012893 C129.060829,2.95739135 129.671968,3.73969567 130.138277,4.67706536 C130.604587,5.61443504 130.837738,6.70331808 130.837738,7.94374714 C130.837738,9.19827199 130.604587,10.2906789 130.138277,11.2210007 C129.671968,12.1513225 129.060829,12.9301029 128.304842,13.5573654 C127.548856,14.1846278 126.701033,14.6533056 125.761349,14.9634129 C124.821665,15.2735201 123.885527,15.4285714 122.952908,15.4285714 L117.971901,15.4285714 L117.971901,0.458922857 Z M119.497997,14.0753829 L122.528993,14.0753829 C123.65944,14.0753829 124.645034,13.8991882 125.485804,13.5467936 C126.326574,13.194399 127.022495,12.7327689 127.573588,12.1618896 C128.124681,11.5910104 128.537995,10.9390901 128.813541,10.2061093 C129.089087,9.47312848 129.226859,8.7190153 129.226859,7.94374714 C129.226859,7.16847898 129.089087,6.41436581 128.813541,5.681385 C128.537995,4.94840419 128.124681,4.29648393 127.573588,3.72560464 C127.022495,3.15472536 126.326574,2.69309533 125.485804,2.34070071 C124.645034,1.9883061 123.65944,1.81211143 122.528993,1.81211143 L119.497997,1.81211143 L119.497997,14.0753829 Z M135.5432,14.0753829 L143.5764,14.0753829 L143.5764,15.4285714 L134.017104,15.4285714 L134.017104,0.458922857 L143.322051,0.458922857 L143.322051,1.81211143 L135.5432,1.81211143 L135.5432,6.97114286 L142.813352,6.97114286 L142.813352,8.30318786 L135.5432,8.30318786 L135.5432,14.0753829 Z M153.390045,14.0753829 L160.384652,14.0753829 L160.384652,15.4285714 L151.863949,15.4285714 L151.863949,0.458922857 L153.390045,0.458922857 L153.390045,14.0753829 Z" id="OIRDEL" fill="#000000"></path>
                        <polygon id="’" fill="#000000" points="161.274875 5.42766214 160.066715 5.42766214 161.486832 0.458922857 162.991733 0.458922857"></polygon>
                        <g id="IMA" transform="translate(165.284930, 0.458923)">
                            <polygon id="I" fill="#2F3485" points="2.05193689 14.9696486 0.525840889 14.9696486 0.525840889 -1.77635684e-15 2.05193689 -1.77635684e-15"></polygon>
                            <path d="M13.4552653,12.3901329 L13.4764611,12.3901329 L18.4998604,-1.77635684e-15 L20.831396,-1.77635684e-15 L20.831396,14.9696486 L19.3053,14.9696486 L19.3053,1.96635214 L19.2629084,1.96635214 L13.8367893,14.9696486 L13.0313498,14.9696486 L7.60523067,1.96635214 L7.56283911,1.96635214 L7.56283911,14.9696486 L6.03674311,14.9696486 L6.03674311,-1.77635684e-15 L8.36827867,-1.77635684e-15 L13.4552653,12.3901329 Z M24.7102233,14.9696486 L23.0357569,14.9696486 L29.5216649,-1.77635684e-15 L31.0053693,-1.77635684e-15 L37.4488858,14.9696486 L35.7532236,14.9696486 L34.0999529,11.0369443 L26.3422982,11.0369443 L24.7102233,14.9696486 Z M26.9145842,9.64146857 L33.5276669,9.64146857 L30.2211256,1.69148571 L26.9145842,9.64146857 Z" id="MA" fill="#2C3A84"></path>
                        </g>
                        <path d="M215.938786,3.14415643 C215.415954,2.59442082 214.794217,2.16802973 214.073557,1.86497036 C213.352897,1.56191098 212.52627,1.41038357 211.593651,1.41038357 C210.632771,1.41038357 209.767285,1.58657824 208.997168,1.93897286 C208.227051,2.29136748 207.573521,2.76709308 207.036559,3.36616393 C206.499597,3.96523478 206.086283,4.65944177 205.796606,5.44880571 C205.506929,6.23816966 205.362092,7.06980849 205.362092,7.94374714 C205.362092,8.8176858 205.506929,9.64932462 205.796606,10.4386886 C206.086283,11.2280525 206.499597,11.9187356 207.036559,12.5107586 C207.573521,13.1027815 208.227051,13.5749832 208.997168,13.9273779 C209.767285,14.2797725 210.632771,14.4559671 211.593651,14.4559671 C212.441486,14.4559671 213.218657,14.3643459 213.925187,14.1811007 C214.631716,13.9978555 215.203996,13.7652786 215.642045,13.4833629 L215.642045,8.937495 L212.144741,8.937495 L212.144741,7.60545 L217.168141,7.60545 L217.168141,14.3502493 C216.348566,14.8436018 215.465418,15.2100867 214.518668,15.449715 C213.571919,15.6893433 212.589858,15.8091557 211.572455,15.8091557 C210.442008,15.8091557 209.39636,15.6118177 208.43548,15.2171357 C207.4746,14.8224537 206.647973,14.2762503 205.955574,13.5785089 C205.263175,12.8807676 204.722688,12.0526526 204.334097,11.0941393 C203.945506,10.1356259 203.751213,9.08550571 203.751213,7.94374714 C203.751213,6.80198858 203.949039,5.75186836 204.344695,4.793355 C204.740352,3.83484164 205.287904,3.0067267 205.987368,2.30898536 C206.686832,1.61124401 207.513459,1.06504054 208.467274,0.670358571 C209.421089,0.275676598 210.456139,0.0783385714 211.572455,0.0783385714 C212.773555,0.0783385714 213.819203,0.254533238 214.70943,0.606927857 C215.599658,0.959322476 216.362698,1.45266754 216.998574,2.08697786 L215.938786,3.14415643 Z M222.59426,14.0753829 L230.62746,14.0753829 L230.62746,15.4285714 L221.068164,15.4285714 L221.068164,0.458922857 L230.37311,0.458922857 L230.37311,1.81211143 L222.59426,1.81211143 L222.59426,6.97114286 L229.864412,6.97114286 L229.864412,8.30318786 L222.59426,8.30318786 L222.59426,14.0753829 Z" id="GE" fill="#2C3A84"></path>
                    </g>
                    <g id="Group-2" transform="translate(152.000000, 25.000000)" fill="#2C3A84">
                        <path d="M4.78893239,2.51121387 C4.78893239,2.8583276 4.72734862,3.16494014 4.60417923,3.43106067 C4.48100984,3.6971812 4.31492027,3.91894498 4.10590555,4.09635867 C3.89689083,4.27377235 3.65242192,4.408759 3.37249148,4.50132267 C3.09256105,4.59388633 2.79583925,4.64016747 2.48231716,4.64016747 L0.433236645,4.64016747 L0.433236645,8.66666667 L0.186899097,8.66666667 L0.186899097,0.474823467 L2.33675406,0.474823467 C2.6204169,0.474823467 2.90780783,0.507605939 3.19893548,0.573171867 C3.49006313,0.638737794 3.75319379,0.748655495 3.98833535,0.902928267 C4.22347692,1.05720104 4.41569293,1.26546616 4.56498916,1.52772987 C4.71428539,1.78999358 4.78893239,2.1178183 4.78893239,2.51121387 Z M4.54259484,2.51121387 C4.54259484,2.16410013 4.47914489,1.87484302 4.3522431,1.64343387 C4.2253413,1.41202471 4.06111791,1.22690016 3.859568,1.08805467 C3.65801809,0.949209172 3.43221093,0.848933375 3.18213974,0.787224267 C2.93206856,0.725515158 2.6838673,0.694661067 2.43752852,0.694661067 L0.433236645,0.694661067 L0.433236645,4.42032987 L2.49351432,4.42032987 C2.7398531,4.42032987 2.98618819,4.38561901 3.23252697,4.31619627 C3.47886575,4.24677352 3.69907438,4.13492744 3.89315948,3.98065467 C4.08724458,3.8263819 4.24400327,3.62775868 4.36344026,3.38477907 C4.48287724,3.14179945 4.54259484,2.85061396 4.54259484,2.51121387 Z" id="P"></path>
                        <path d="M11.9327213,8.66666667 L10.9921597,6.31787547 L6.39012645,6.31787547 L5.41597342,8.66666667 L5.14724155,8.66666667 L8.58477006,0.474823467 L8.89829058,0.474823467 L12.2014532,8.66666667 L11.9327213,8.66666667 Z M8.73033316,0.636809067 L6.47970374,6.09803787 L10.9137796,6.09803787 L8.73033316,0.636809067 Z" id="A"></path>
                        <path d="M18.4270748,8.66666667 L16.0308823,4.53603387 L14.1721535,4.53603387 L14.1721535,8.66666667 L13.925816,8.66666667 L13.925816,0.474823467 L16.1204596,0.474823467 C16.4115873,0.474823467 16.7064429,0.501820797 17.0050354,0.555816267 C17.3036278,0.609811737 17.5704908,0.712015915 17.8056324,0.862431867 C18.0407739,1.01284782 18.23299,1.21918456 18.3822862,1.48144827 C18.5315824,1.74371198 18.6062294,2.08310698 18.6062294,2.49964347 C18.6062294,2.8853254 18.5353148,3.20543659 18.3934834,3.45998667 C18.2516519,3.71453674 18.0687668,3.92087348 17.8448225,4.07900307 C17.6208781,4.23713266 17.3726768,4.35090712 17.1002112,4.42032987 C16.8277456,4.48975261 16.5608826,4.52446347 16.2996142,4.52446347 L18.7070039,8.66666667 L18.4270748,8.66666667 Z M18.3598919,2.49964347 C18.3598919,2.14481609 18.2927096,1.84977384 18.158343,1.61450787 C18.0239764,1.37924189 17.8466897,1.19411734 17.6264778,1.05912867 C17.4062659,0.924139992 17.1524661,0.829649337 16.8650708,0.775653867 C16.5776756,0.721658397 16.2846861,0.694661067 15.9860937,0.694661067 L14.1721535,0.694661067 L14.1721535,4.31619627 L16.1092625,4.31619627 C16.840814,4.31619627 17.3988003,4.15806905 17.7832381,3.84180987 C18.1676759,3.52555069 18.3598919,3.07816636 18.3598919,2.49964347 Z" id="R"></path>
                        <polygon id="I" points="20.9128446 8.66666667 20.9128446 0.474823467 21.1591822 0.474823467 21.1591822 8.66666667"></polygon>
                        <path d="M28.2581825,6.69969867 C28.2581825,7.0468124 28.1928663,7.3572817 28.0622321,7.63111587 C27.9315979,7.90495004 27.7580437,8.13635572 27.5415641,8.32533987 C27.3250846,8.51432401 27.0694186,8.65702418 26.7745586,8.75344467 C26.4796985,8.84986515 26.1717797,8.89807467 25.8507928,8.89807467 C25.3581152,8.89807467 24.9083671,8.80744077 24.5015348,8.62617027 C24.0947026,8.44489976 23.756925,8.19999541 23.4881917,7.89144987 L23.6785435,7.71789387 C23.9622063,8.03415305 24.2925193,8.27134388 24.6694923,8.42947347 C25.0464652,8.58760306 25.4364958,8.66666667 25.8395956,8.66666667 C26.1307233,8.66666667 26.4069171,8.62231391 26.6681855,8.53360707 C26.929454,8.44490022 27.1608596,8.3176271 27.3624095,8.15178387 C27.5639595,7.98594064 27.7225843,7.78153228 27.8382889,7.53855267 C27.9539935,7.29557305 28.0118449,7.01595785 28.0118449,6.69969867 C28.0118449,6.38343949 27.948395,6.11732295 27.8214932,5.90134107 C27.6945914,5.68535919 27.530368,5.50023464 27.3288181,5.34596187 C27.1272682,5.1916891 26.8977286,5.06248759 26.6401926,4.95835347 C26.3826566,4.85421935 26.1232583,4.75972869 25.8619899,4.67487867 C25.5335382,4.56688773 25.2330841,4.45311326 24.9606185,4.33355187 C24.6881528,4.21399047 24.4530148,4.06743353 24.2551973,3.89387667 C24.0573798,3.7203198 23.9043534,3.51205468 23.7961137,3.26907507 C23.6878739,3.02609545 23.6337548,2.7310532 23.6337548,2.38393947 C23.6337548,2.04453937 23.699071,1.7417836 23.8297052,1.47566307 C23.9603394,1.20954254 24.137626,0.985850373 24.3615703,0.804579867 C24.5855147,0.62330936 24.844913,0.484465949 25.139773,0.388045467 C25.4346331,0.291624985 25.7462843,0.243415467 26.074736,0.243415467 C26.4778358,0.243415467 26.8604017,0.322479076 27.222445,0.480608667 C27.5844884,0.638738257 27.8812102,0.864358801 28.1126194,1.15747707 L27.9222676,1.33103307 C27.7132529,1.06105572 27.4463899,0.850862219 27.1216706,0.700446267 C26.7969513,0.550030315 26.4442442,0.474823467 26.0635388,0.474823467 C25.7948056,0.474823467 25.531675,0.513391081 25.274139,0.590527467 C25.016603,0.667663852 24.7833311,0.785295076 24.5743164,0.943424667 C24.3653017,1.10155426 24.1973459,1.30017747 24.0704441,1.53930027 C23.9435423,1.77842306 23.8800924,2.05996665 23.8800924,2.38393947 C23.8800924,2.70019865 23.9360776,2.96824357 24.0480498,3.18808227 C24.160022,3.40792097 24.309316,3.5949739 24.4959363,3.74924667 C24.6825565,3.90351944 24.8934343,4.03079257 25.1285759,4.13106987 C25.3637174,4.23134717 25.604454,4.32390944 25.8507928,4.40875947 C26.1867093,4.52446405 26.5002267,4.64209527 26.7913543,4.76165667 C27.082482,4.88121806 27.3381479,5.02584662 27.5583599,5.19554667 C27.7785718,5.36524672 27.9502599,5.57158345 28.0734293,5.81456307 C28.1965987,6.05754268 28.2581825,6.35258493 28.2581825,6.69969867 Z M32.6903368,5.84348907 L32.6903368,5.61208107 L34.7058258,5.61208107 L34.7058258,5.84348907 L32.6903368,5.84348907 Z" id="S-"></path>
                        <path d="M45.1546988,2.51121387 C45.1546988,2.8583276 45.0931151,3.16494014 44.9699457,3.43106067 C44.8467763,3.6971812 44.6806867,3.91894498 44.471672,4.09635867 C44.2626573,4.27377235 44.0181884,4.408759 43.7382579,4.50132267 C43.4583275,4.59388633 43.1616057,4.64016747 42.8480836,4.64016747 L40.7990031,4.64016747 L40.7990031,8.66666667 L40.5526655,8.66666667 L40.5526655,0.474823467 L42.7025205,0.474823467 C42.9861834,0.474823467 43.2735743,0.507605939 43.5647019,0.573171867 C43.8558296,0.638737794 44.1189602,0.748655495 44.3541018,0.902928267 C44.5892434,1.05720104 44.7814594,1.26546616 44.9307556,1.52772987 C45.0800518,1.78999358 45.1546988,2.1178183 45.1546988,2.51121387 Z M44.9083613,2.51121387 C44.9083613,2.16410013 44.8449113,1.87484302 44.7180095,1.64343387 C44.5911078,1.41202471 44.4268844,1.22690016 44.2253345,1.08805467 C44.0237845,0.949209172 43.7979774,0.848933375 43.5479062,0.787224267 C43.297835,0.725515158 43.0496337,0.694661067 42.803295,0.694661067 L40.7990031,0.694661067 L40.7990031,4.42032987 L42.8592808,4.42032987 C43.1056196,4.42032987 43.3519546,4.38561901 43.5982934,4.31619627 C43.8446322,4.24677352 44.0648408,4.13492744 44.2589259,3.98065467 C44.453011,3.8263819 44.6097697,3.62775868 44.7292067,3.38477907 C44.8486437,3.14179945 44.9083613,2.85061396 44.9083613,2.51121387 Z" id="P"></path>
                        <path d="M52.3096849,8.66666667 L51.3691234,6.31787547 L46.7670901,6.31787547 L45.792937,8.66666667 L45.5242052,8.66666667 L48.9617337,0.474823467 L49.2752542,0.474823467 L52.5784168,8.66666667 L52.3096849,8.66666667 Z M49.1072968,0.636809067 L46.8566674,6.09803787 L51.2907432,6.09803787 L49.1072968,0.636809067 Z M60.0123711,8.66666667 L54.3242132,0.798794667 L54.2906217,0.798794667 L54.2906217,8.66666667 L54.0442841,8.66666667 L54.0442841,0.474823467 L54.3913961,0.474823467 L60.0907512,8.33112507 L60.1243427,8.33112507 L60.1243427,0.474823467 L60.3706803,0.474823467 L60.3706803,8.66666667 L60.0123711,8.66666667 Z M64.781401,0.706231467 L64.781401,8.66666667 L64.5350635,8.66666667 L64.5350635,0.706231467 L61.8365476,0.706231467 L61.8365476,0.474823467 L67.4799169,0.474823467 L67.4799169,0.706231467 L64.781401,0.706231467 Z M68.9457843,8.66666667 L68.9457843,0.474823467 L69.1921218,0.474823467 L69.1921218,8.66666667 L68.9457843,8.66666667 Z M77.6114263,8.66666667 L71.9232684,0.798794667 L71.8896769,0.798794667 L71.8896769,8.66666667 L71.6433394,8.66666667 L71.6433394,0.474823467 L71.9904514,0.474823467 L77.6898065,8.33112507 L77.7233979,8.33112507 L77.7233979,0.474823467 L77.9697355,0.474823467 L77.9697355,8.66666667 L77.6114263,8.66666667 Z" id="ANTIN"></path>
                    </g>
                </g>
            </g>
        </g>
    </g>
</svg>