<?xml version="1.0" encoding="UTF-8"?>
<svg width="231px" height="34px" viewBox="0 0 231 34" version="1.1" xmlns="http://www.w3.org/2000/svg" xmlns:xlink="http://www.w3.org/1999/xlink">
    <title>logo/color</title>
    <defs>
        <polygon id="path-1" points="0 0.320075 12.9885167 0.320075 12.9885167 16.151075 0 16.151075"></polygon>
        <polygon id="path-3" points="0 34 231 34 231 0 0 0"></polygon>
    </defs>
    <g id="Symbols" stroke="none" stroke-width="1" fill="none" fill-rule="evenodd">
        <g id="menu/base/blanc" transform="translate(-74.000000, -44.000000)">
            <g id="Group" transform="translate(74.000000, 36.000000)">
                <g id="Group-39" transform="translate(0.000000, 8.000000)">
                    <g id="Group-3" transform="translate(0.000000, 4.000000)">
                        <mask id="mask-2" fill="white">
                            <use xlink:href="#path-1"></use>
                        </mask>
                        <g id="Clip-2"></g>
                        <path d="M12.9885167,13.320575 C12.7415167,13.700825 12.44685,14.067575 12.0980167,14.407325 C11.7491833,14.749325 11.3461833,15.046325 10.8890167,15.307325 C10.43185,15.568325 9.92485,15.770825 9.37235,15.923825 C8.81985,16.074575 8.21535,16.151075 7.56101667,16.151075 C6.46685,16.151075 5.45501667,15.950825 4.52768333,15.554825 C3.59818333,15.156575 2.79868333,14.607575 2.12918333,13.903325 C1.46185,13.201325 0.939683333,12.371075 0.562683333,11.405825 C0.18785,10.440575 -0.00065,9.383075 -0.00065,8.233325 C-0.00065,7.085825 0.190016667,6.030575 0.575683333,5.065325 C0.957016667,4.100075 1.48568333,3.267575 2.16168333,2.563325 C2.83768333,1.863575 3.63718333,1.314575 4.55801667,0.916325 C5.48101667,0.520325 6.48201667,0.320075 7.56101667,0.320075 C8.09185,0.320075 8.61401667,0.378575 9.12751667,0.495575 C9.63885,0.608075 10.11985,0.770075 10.5705167,0.979325 C11.0211833,1.188575 11.43285,1.440575 11.8011833,1.733075 C12.1695167,2.025575 12.4771833,2.356325 12.7220167,2.727575 L11.4935167,3.661325 C11.34185,3.420575 11.14035,3.177575 10.8890167,2.939075 C10.6355167,2.696075 10.3386833,2.484575 9.99851667,2.300075 C9.65618333,2.115575 9.28351667,1.964825 8.88051667,1.852325 C8.47751667,1.742075 8.04418333,1.683575 7.58051667,1.683575 C6.63801667,1.683575 5.79518333,1.859075 5.04985,2.212325 C4.30668333,2.567825 3.67401667,3.044825 3.15401667,3.643325 C2.63618333,4.244075 2.23968333,4.941575 1.96668333,5.731325 C1.69368333,6.525575 1.55718333,7.360325 1.55718333,8.233325 C1.55718333,9.110825 1.69801667,9.945575 1.97751667,10.739825 C2.25701667,11.529575 2.65568333,12.227075 3.17568333,12.825575 C3.69351667,13.426325 4.32618333,13.903325 5.07151667,14.258825 C5.81468333,14.612075 6.65101667,14.787575 7.58051667,14.787575 C8.41251667,14.787575 9.20551667,14.612075 9.95735,14.256575 C10.7070167,13.901075 11.33535,13.334075 11.8401833,12.555575 L12.9885167,13.320575 Z" id="Fill-1" fill="#FEFEFE" mask="url(#mask-2)"></path>
                    </g>
                    <path d="M29.3516263,12.0113701 C29.3516263,11.1222285 29.207193,10.2808414 28.9183264,9.47811256 C28.6294598,8.67538374 28.2099155,7.97043775 27.6596934,7.36327459 C27.1117639,6.75611143 26.442327,6.27174531 25.6559679,5.91245026 C24.8673162,5.55542922 23.9823757,5.37805571 22.9988537,5.37805571 C22.0153317,5.37805571 21.1326838,5.55542922 20.3440321,5.91245026 C19.557673,6.27174531 18.8882361,6.75611143 18.338014,7.36327459 C17.7900845,7.97043775 17.3705402,8.67538374 17.0816736,9.47811256 C16.792807,10.2808414 16.6483737,11.1222285 16.6483737,12.0113701 C16.6483737,12.8982376 16.792807,13.7418988 17.0816736,14.5446276 C17.3705402,15.3428084 17.7900845,16.0454804 18.338014,16.6458215 C18.8882361,17.2484366 19.557673,17.7259807 20.3440321,18.0852757 C21.1326838,18.4445708 22.0153317,18.6219443 22.9988537,18.6219443 C23.9823757,18.6219443 24.8673162,18.4445708 25.6559679,18.0852757 C26.442327,17.7259807 27.1117639,17.2484366 27.6596934,16.6458215 C28.2099155,16.0454804 28.6294598,15.3428084 28.9183264,14.5446276 C29.207193,13.7418988 29.3516263,12.8982376 29.3516263,12.0113701 M31,11.997726 C31,13.1597499 30.7959593,14.2285389 30.3924631,15.2040932 C29.9866743,16.1796475 29.4272818,17.0187607 28.7119931,17.7282547 C27.9967044,18.4400227 27.1530305,18.9948835 26.1763863,19.3973849 C25.1997421,19.7976123 24.1428571,20 22.9988537,20 C21.8571429,20 20.8002579,19.7976123 19.8236137,19.3973849 C18.8469695,18.9948835 18.0032956,18.4400227 17.2880069,17.7282547 C16.5727182,17.0187607 16.0133257,16.1796475 15.6075369,15.2040932 C15.2040407,14.2285389 15,13.1597499 15,11.997726 C15,10.8379761 15.2040407,9.77146106 15.6075369,8.79590677 C16.0133257,7.82035247 16.5727182,6.97896532 17.2880069,6.26719727 C18.0032956,5.55997726 18.8469695,5.00284252 19.8236137,4.60261512 C20.8002579,4.20238772 21.8571429,4 22.9988537,4 C24.1428571,4 25.1997421,4.20238772 26.1763863,4.60261512 C27.1530305,5.00284252 27.9967044,5.55997726 28.7119931,6.26719727 C29.4272818,6.97896532 29.9866743,7.82035247 30.3924631,8.79590677 C30.7959593,9.77146106 31,10.8379761 31,11.997726" id="Fill-4" fill="#FEFEFE"></path>
                    <polygon id="Fill-6" fill="#FEFEFE" points="41.5204545 17.416343 41.5431818 17.416343 46.6340909 5 49 5 49 20 47.4522727 20 47.4522727 6.96967434 47.4090909 6.96967434 41.9068182 20 41.0909091 20 35.5886364 6.96967434 35.5454545 6.96967434 35.5454545 20 34 20 34 5 36.3613636 5"></polygon>
                    <path d="M54.4743435,11.7358829 L56.9763912,11.7358829 C58.1385208,11.7358829 59.0187907,11.5028384 59.621537,11.0367493 C60.2221152,10.5706603 60.5234883,9.89393487 60.5234883,9.00209143 C60.5234883,8.07215417 60.2112744,7.39094712 59.5911828,6.95847027 C58.9689232,6.52599343 58.0973259,6.31311622 56.9763912,6.31311622 L54.4743435,6.31311622 L54.4743435,11.7358829 Z M53,5 L57.0999759,5 C57.8371477,5 58.5071067,5.07842844 59.1076849,5.24424858 C59.7104312,5.40334628 60.2264515,5.64983567 60.6579138,5.98371676 C61.0872079,6.31535704 61.4189352,6.73214819 61.6509275,7.23409023 C61.8829198,7.73379146 62,8.325366 62,9.00209143 C62,9.68105766 61.8785835,10.2703914 61.6400867,10.7723334 C61.40159,11.2720347 61.0655264,11.6888258 60.6362322,12.0227069 C60.2047699,12.3543472 59.6844134,12.6030774 59.0773308,12.7733791 C58.46808,12.9436809 57.7959528,13.0288318 57.058781,13.0288318 L54.4743435,13.0288318 L54.4743435,20 L53,20 L53,5 Z" id="Fill-8" fill="#FEFEFE"></path>
                    <polygon id="Fill-10" fill="#FEFEFE" points="69.7914003 20 68.2085997 20 68.2085997 6.35569166 63 6.35569166 63 5 75 5 75 6.35569166 69.7914003 6.35569166"></polygon>
                    <path d="M89.3516263,12.0113701 C89.3516263,11.1222285 89.207193,10.2808414 88.9183264,9.47811256 C88.6294598,8.67538374 88.2099155,7.97043775 87.6596934,7.36327459 C87.1117639,6.75611143 86.442327,6.27174531 85.6559679,5.91245026 C84.8673162,5.55542922 83.9823757,5.37805571 82.9988537,5.37805571 C82.0153317,5.37805571 81.1326838,5.55542922 80.3440321,5.91245026 C79.557673,6.27174531 78.8882361,6.75611143 78.338014,7.36327459 C77.7900845,7.97043775 77.3705402,8.67538374 77.0816736,9.47811256 C76.792807,10.2808414 76.6483737,11.1222285 76.6483737,12.0113701 C76.6483737,12.8982376 76.792807,13.7418988 77.0816736,14.5446276 C77.3705402,15.3428084 77.7900845,16.0454804 78.338014,16.6458215 C78.8882361,17.2484366 79.557673,17.7259807 80.3440321,18.0852757 C81.1326838,18.4445708 82.0153317,18.6219443 82.9988537,18.6219443 C83.9823757,18.6219443 84.8673162,18.4445708 85.6559679,18.0852757 C86.442327,17.7259807 87.1117639,17.2484366 87.6596934,16.6458215 C88.2099155,16.0454804 88.6294598,15.3428084 88.9183264,14.5446276 C89.207193,13.7418988 89.3516263,12.8982376 89.3516263,12.0113701 M91,11.997726 C91,13.1597499 90.7959593,14.2285389 90.3924631,15.2040932 C89.9866743,16.1796475 89.4272818,17.0187607 88.7119931,17.7282547 C87.9967044,18.4400227 87.1530305,18.9948835 86.1763863,19.3973849 C85.1997421,19.7976123 84.1428571,20 82.9988537,20 C81.8571429,20 80.8002579,19.7976123 79.8236137,19.3973849 C78.8469695,18.9948835 78.0032956,18.4400227 77.2880069,17.7282547 C76.5727182,17.0187607 76.0133257,16.1796475 75.6075369,15.2040932 C75.2040407,14.2285389 75,13.1597499 75,11.997726 C75,10.8379761 75.2040407,9.77146106 75.6075369,8.79590677 C76.0133257,7.82035247 76.5727182,6.97896532 77.2880069,6.26719727 C78.0032956,5.55997726 78.8469695,5.00284252 79.8236137,4.60261512 C80.8002579,4.20238772 81.8571429,4 82.9988537,4 C84.1428571,4 85.1997421,4.20238772 86.1763863,4.60261512 C87.1530305,5.00284252 87.9967044,5.55997726 88.7119931,6.26719727 C89.4272818,6.97896532 89.9866743,7.82035247 90.3924631,8.79590677 C90.7959593,9.77146106 91,10.8379761 91,11.997726" id="Fill-12" fill="#FEFEFE"></path>
                    <mask id="mask-4" fill="white">
                        <use xlink:href="#path-3"></use>
                    </mask>
                    <g id="Clip-15"></g>
                    <polygon id="Fill-14" fill="#FEFEFE" mask="url(#mask-4)" points="94.32 20 95.68 20 95.68 5 94.32 5"></polygon>
                    <path d="M101.515219,11.6731401 L104.141302,11.6731401 C105.358809,11.6731401 106.2986,11.4512997 106.95401,11.0076188 C107.613864,10.5594562 107.942679,9.89393487 107.942679,9.00433224 C107.942679,8.50911264 107.85381,8.09232148 107.671629,7.75171796 C107.487225,7.41559606 107.23617,7.1399761 106.914019,6.92709889 C106.589647,6.7164625 106.198623,6.55960562 105.736503,6.46100986 C105.274383,6.3624141 104.763386,6.31311622 104.201289,6.31311622 L101.515219,6.31311622 L101.515219,11.6731401 Z M101.515219,20 L100,20 L100,5 L104.372362,5 C105.101089,5 105.774272,5.06946519 106.398578,5.21063639 C107.022884,5.35180759 107.560542,5.58037048 108.018218,5.90080669 C108.471451,6.21676128 108.826927,6.63131162 109.077983,7.1399761 C109.329038,7.64639976 109.453455,8.26710487 109.453455,9.00433224 C109.453455,9.55333134 109.35792,10.0552734 109.162408,10.5079175 C108.966896,10.9605617 108.698067,11.3504631 108.364808,11.6821034 C108.027105,12.0159845 107.627194,12.2804004 107.165074,12.4775919 C106.702955,12.6770242 106.198623,12.8025097 105.652077,12.8607708 L110,20 L108.151522,20 L104.034659,12.9862563 L101.515219,12.9862563 L101.515219,20 Z" id="Fill-16" fill="#FEFEFE" mask="url(#mask-4)"></path>
                    <path d="M119.544599,18.6443083 L122.60662,18.6443083 C123.748084,18.6443083 124.742334,18.4672841 125.591638,18.1154765 C126.440941,17.7591873 127.145296,17.2975799 127.704704,16.7261727 C128.261847,16.1547655 128.678571,15.5004482 128.954878,14.7677024 C129.233449,14.0304751 129.371603,13.2753212 129.371603,12.4977592 C129.371603,11.7246788 129.233449,10.9672841 128.954878,10.2322976 C128.678571,9.49955184 128.261847,8.84523454 127.704704,8.27382731 C127.145296,7.70017927 126.440941,7.23633104 125.591638,6.88452345 C124.742334,6.53271586 123.748084,6.35569166 122.60662,6.35569166 L119.544599,6.35569166 L119.544599,18.6443083 Z M118,5 L123.034669,5 C123.979094,5 124.921254,5.15461607 125.872474,5.46608903 C126.821429,5.777562 127.677526,6.24589184 128.440767,6.8755602 C129.204007,7.50298775 129.8223,8.28503137 130.29338,9.2284135 C130.766725,10.1650732 131,11.2585898 131,12.4977592 C131,13.7570959 130.766725,14.8528533 130.29338,15.7827906 C129.8223,16.7172094 129.204007,17.4970122 128.440767,18.1266806 C127.677526,18.7541082 126.821429,19.222438 125.872474,19.533911 C124.921254,19.8453839 123.979094,20 123.034669,20 L118,20 L118,5 Z" id="Fill-17" fill="#FEFEFE" mask="url(#mask-4)"></path>
                    <polygon id="Fill-18" fill="#FEFEFE" mask="url(#mask-4)" points="135.599062 18.6443083 144 18.6443083 144 20 134 20 134 5 143.735053 5 143.735053 6.35569166 135.599062 6.35569166 135.599062 11.5050792 143.205158 11.5050792 143.205158 12.8607708 135.599062 12.8607708"></polygon>
                    <polygon id="Fill-19" fill="#FEFEFE" mask="url(#mask-4)" points="153.614413 18.6443083 161 18.6443083 161 20 152 20 152 5 153.614413 5"></polygon>
                    <polygon id="Fill-20" fill="#FEFEFE" mask="url(#mask-4)" points="161.23908 10 160 10 161.455172 5 163 5"></polygon>
                    <polygon id="Fill-21" fill="#FEFEFE" mask="url(#mask-4)" points="165.318 20 166.682 20 166.682 5 165.318 5"></polygon>
                    <polygon id="Fill-22" fill="#FEFEFE" mask="url(#mask-4)" points="178.519315 17.416343 178.542039 17.416343 183.632177 5 186 5 186 20 184.450235 20 184.450235 6.96967434 184.40706 6.96967434 178.907893 20 178.092107 20 172.59294 6.96967434 172.549765 6.96967434 172.549765 20 171 20 171 5 173.365551 5"></polygon>
                    <path d="M191.766719,14.6601434 L198.189736,14.6601434 L194.980404,6.69405438 L191.766719,14.6601434 Z M189.624261,20 L188,20 L194.301089,5 L195.74028,5 L202,20 L200.351788,20 L198.744946,16.0606513 L191.211509,16.0606513 L189.624261,20 Z" id="Fill-23" fill="#FEFEFE" mask="url(#mask-4)"></path>
                    <path d="M215.809691,7.13859275 C215.303592,6.58137882 214.699749,6.14697939 214.002506,5.8376688 C213.305263,5.52835821 212.503759,5.37597726 211.600167,5.37597726 C210.668338,5.37597726 209.829908,5.55565032 209.082707,5.9127221 C208.335505,6.26979389 207.705597,6.7565032 207.184294,7.36375267 C206.662991,7.97100213 206.261153,8.67604833 205.983124,9.47661692 C205.700752,10.2794598 205.559566,11.1232409 205.559566,12.0125089 C205.559566,12.8972281 205.700752,13.7432836 205.983124,14.5438522 C206.261153,15.3444208 206.662991,16.0471926 207.184294,16.647619 C207.705597,17.2503198 208.335505,17.7279318 209.082707,18.0872779 C209.829908,18.4443497 210.668338,18.6240227 211.600167,18.6240227 C212.42122,18.6240227 213.172765,18.5285004 213.859148,18.3420043 C214.543358,18.1555082 215.097243,17.9212509 215.522974,17.6324094 L215.522974,13.0109453 L212.134503,13.0109453 L212.134503,11.634968 L217,11.634968 L217,18.5103056 C216.207185,19.0152097 215.351378,19.3882018 214.434754,19.6338308 C213.515957,19.8794598 212.564578,20 211.578446,20 C210.481537,20 209.471512,19.7975835 208.53751,19.3972992 C207.610025,18.9970149 206.806349,18.439801 206.135171,17.7302061 C205.463993,17.0206112 204.940518,16.1791045 204.564745,15.2034115 C204.188972,14.2277186 204,13.1610519 204,11.9988628 C204,10.8389481 204.191145,9.77228145 204.575606,8.79658849 C204.957895,7.82089552 205.490058,6.97711443 206.167753,6.26751955 C206.845447,5.560199 207.644779,5.00298507 208.570092,4.60270078 C209.495405,4.20014215 210.496742,4 211.578446,4 C212.740518,4 213.757059,4.18422175 214.619382,4.54584222 C215.481704,4.91201137 216.220217,5.41691542 216.837093,6.06510306 L215.809691,7.13859275 Z" id="Fill-24" fill="#FEFEFE" mask="url(#mask-4)"></path>
                    <polygon id="Fill-25" fill="#FEFEFE" mask="url(#mask-4)" points="222.599062 18.6443083 231 18.6443083 231 20 221 20 221 5 230.735053 5 230.735053 6.35569166 222.599062 6.35569166 222.599062 11.5050792 230.202814 11.5050792 230.202814 12.8607708 222.599062 12.8607708"></polygon>
                    <polygon id="Fill-26" fill="#FEFEFE" mask="url(#mask-4)" points="167.815011 1.966 166 1.966 167.203184 0.034 169 0.034"></polygon>
                    <path d="M156.731707,27.9881121 C156.731707,27.6507218 156.663415,27.3676762 156.526829,27.1412397 C156.385366,26.9148033 156.209756,26.7336541 155.990244,26.6000566 C155.770732,26.4619304 155.526829,26.3668271 155.253659,26.3056892 C154.982927,26.2468157 154.712195,26.2151146 154.446341,26.2151146 L152.265854,26.2151146 L152.265854,29.8516841 L154.504878,29.8516841 C154.773171,29.8516841 155.041463,29.819983 155.307317,29.7497877 C155.57561,29.6841211 155.817073,29.5754316 156.026829,29.4259836 C156.239024,29.2720068 156.409756,29.0795358 156.536585,28.8417775 C156.668293,28.6040192 156.731707,28.3209737 156.731707,27.9881121 M157,27.9881121 C157,28.3300311 156.934146,28.6266629 156.8,28.8870648 C156.665854,29.1474667 156.485366,29.3648457 156.258537,29.5369374 C156.029268,29.7090292 155.765854,29.8426267 155.460976,29.9332012 C155.156098,30.0215115 154.834146,30.0690631 154.495122,30.0690631 L152.265854,30.0690631 L152.265854,34 L152,34 L152,26 L154.336585,26 C154.646341,26 154.956098,26.0339655 155.270732,26.0973677 C155.590244,26.1607699 155.873171,26.2694594 156.129268,26.4189074 C156.385366,26.5706199 156.595122,26.7721483 156.756098,27.0302859 C156.919512,27.2838947 157,27.6054345 157,27.9881121" id="Fill-27" fill="#FEFEFE" mask="url(#mask-4)"></path>
                    <path d="M160.556793,26.1607699 L158.32294,31.4933484 L162.721604,31.4933484 L160.556793,26.1607699 Z M163.732739,34 L162.799555,31.7061987 L158.233853,31.7061987 L157.267261,34 L157,34 L160.412027,26 L160.721604,26 L164,34 L163.732739,34 Z" id="Fill-28" fill="#FEFEFE" mask="url(#mask-4)"></path>
                    <path d="M169.63615,27.9790546 C169.63615,27.6326068 169.568075,27.3427682 169.424883,27.1140674 C169.286385,26.8853665 169.100939,26.7064817 168.868545,26.5728842 C168.640845,26.4415511 168.373239,26.3487121 168.07277,26.2966318 C167.7723,26.242287 167.467136,26.217379 167.152582,26.217379 L165.258216,26.217379 L165.258216,29.7520521 L167.28169,29.7520521 C168.049296,29.7520521 168.631455,29.5980753 169.035211,29.2901217 C169.43662,28.9799038 169.63615,28.5451458 169.63615,27.9790546 L169.63615,27.9790546 Z M169.706573,34 L167.199531,29.9671667 L165.258216,29.9671667 L165.258216,34 L165,34 L165,26 L167.295775,26 C167.598592,26 167.908451,26.0294367 168.220657,26.0792528 C168.532864,26.1335975 168.809859,26.2332295 169.056338,26.3781489 C169.305164,26.5275969 169.504695,26.7291254 169.659624,26.9849986 C169.819249,27.2408718 169.894366,27.571469 169.894366,27.9790546 C169.894366,28.3572035 169.821596,28.6674215 169.673709,28.9187659 C169.523474,29.1633173 169.333333,29.3671101 169.098592,29.5210869 C168.86385,29.6750637 168.605634,29.7860175 168.321596,29.8539485 C168.032864,29.9218794 167.755869,29.9558449 167.483568,29.9558449 L170,34 L169.706573,34 Z" id="Fill-29" fill="#FEFEFE" mask="url(#mask-4)"></path>
                    <polygon id="Fill-30" fill="#FEFEFE" mask="url(#mask-4)" points="172.89 34 173.11 34 173.11 26 172.89 26"></polygon>
                    <path d="M180,31.96839 C180,32.2877043 179.931797,32.5748728 179.793039,32.8277525 C179.656632,33.0827752 179.473189,33.294937 179.247413,33.470667 C179.019285,33.646397 178.753528,33.7749799 178.443086,33.8649879 C178.134995,33.9528529 177.812794,34 177.47413,34 C176.959078,34 176.486359,33.9164211 176.060677,33.7471203 C175.637347,33.5799625 175.28222,33.3549424 175,33.0677739 L175.197554,32.9091883 C175.496237,33.2006429 175.841957,33.4192339 176.239417,33.5671042 C176.632173,33.7128315 177.041392,33.7856952 177.464722,33.7856952 C177.768109,33.7856952 178.057385,33.7449772 178.332549,33.6635414 C178.605362,33.5799625 178.847601,33.4620948 179.059266,33.3077953 C179.270931,33.1577819 179.437912,32.9670506 179.560207,32.7420305 C179.680151,32.5191535 179.741298,32.2598446 179.741298,31.96839 C179.741298,31.6747924 179.675447,31.4304849 179.53904,31.2290383 C179.407338,31.0297348 179.235654,30.8582909 179.023989,30.7168497 C178.814675,30.5754085 178.574788,30.4532548 178.304327,30.3589606 C178.031515,30.2625234 177.758702,30.1746585 177.488241,30.0953657 C177.142521,29.9967854 176.827375,29.8917761 176.542803,29.7803375 C176.258231,29.668899 176.011289,29.53603 175.801976,29.3753014 C175.597366,29.2145727 175.435089,29.0216984 175.322201,28.7966783 C175.209313,28.5738012 175.152869,28.3016341 175.152869,27.9780338 C175.152869,27.6651487 175.221072,27.3865524 175.355127,27.1401018 C175.493885,26.8915082 175.682032,26.6879186 175.914864,26.5207608 C176.147695,26.35146 176.420508,26.222877 176.728598,26.1350121 C177.03904,26.045004 177.365945,26 177.709313,26 C178.132643,26 178.532455,26.0750067 178.913452,26.220734 C179.292098,26.3664613 179.604892,26.574337 179.847131,26.8443611 L179.644873,27.0050897 C179.426152,26.7543531 179.148636,26.5636218 178.80762,26.4243236 C178.468956,26.2828824 178.097366,26.2143048 177.697554,26.2143048 C177.415334,26.2143048 177.142521,26.2507367 176.87206,26.3214573 C176.601599,26.3921779 176.357008,26.5036164 176.138288,26.6472006 C175.919567,26.7929279 175.740828,26.9772301 175.609125,27.1979641 C175.477422,27.4186981 175.409219,27.68015 175.409219,27.9780338 C175.409219,28.2716314 175.470367,28.520225 175.585607,28.7216716 C175.703198,28.9274042 175.860771,29.0967051 176.055974,29.2424324 C176.251176,29.3838736 176.472248,29.5017412 176.719191,29.5938923 C176.963782,29.6881864 177.21778,29.7717653 177.47413,29.8510581 C177.829257,29.9560675 178.156162,30.067506 178.4619,30.1746585 C178.767639,30.286097 179.035748,30.421109 179.266228,30.5775516 C179.494356,30.7339941 179.675447,30.9247254 179.804798,31.1497455 C179.934149,31.3747656 180,31.6469328 180,31.96839" id="Fill-31" fill="#FEFEFE" mask="url(#mask-4)"></path>
                    <polygon id="Fill-32" fill="#FEFEFE" mask="url(#mask-4)" points="185.103 31.1 186.897 31.1 186.897 30.9 185.103 30.9"></polygon>
                    <path d="M196.731707,27.9881121 C196.731707,27.6507218 196.663415,27.3676762 196.526829,27.1412397 C196.385366,26.9148033 196.209756,26.7336541 195.990244,26.6000566 C195.770732,26.4619304 195.526829,26.3668271 195.253659,26.3056892 C194.980488,26.2468157 194.712195,26.2151146 194.443902,26.2151146 L192.265854,26.2151146 L192.265854,29.8516841 L194.504878,29.8516841 C194.773171,29.8516841 195.041463,29.819983 195.307317,29.7497877 C195.57561,29.6841211 195.817073,29.5754316 196.026829,29.4259836 C196.239024,29.2720068 196.407317,29.0795358 196.536585,28.8417775 C196.668293,28.6040192 196.731707,28.3209737 196.731707,27.9881121 M197,27.9881121 C197,28.3300311 196.934146,28.6266629 196.8,28.8870648 C196.665854,29.1474667 196.485366,29.3648457 196.258537,29.5369374 C196.029268,29.7090292 195.765854,29.8426267 195.460976,29.9332012 C195.156098,30.0215115 194.834146,30.0690631 194.495122,30.0690631 L192.265854,30.0690631 L192.265854,34 L192,34 L192,26 L194.334146,26 C194.643902,26 194.956098,26.0339655 195.270732,26.0973677 C195.590244,26.1607699 195.873171,26.2694594 196.129268,26.4189074 C196.385366,26.5706199 196.595122,26.7721483 196.756098,27.0302859 C196.917073,27.2838947 197,27.6054345 197,27.9881121" id="Fill-33" fill="#FEFEFE" mask="url(#mask-4)"></path>
                    <path d="M200.556793,26.1607699 L198.32294,31.4933484 L202.721604,31.4933484 L200.556793,26.1607699 Z M203.732739,34 L202.799555,31.7061987 L198.233853,31.7061987 L197.267261,34 L197,34 L200.412027,26 L200.721604,26 L204,34 L203.732739,34 Z" id="Fill-34" fill="#FEFEFE" mask="url(#mask-4)"></path>
                    <polygon id="Fill-35" fill="#FEFEFE" mask="url(#mask-4)" points="211.659454 34 206.263923 26.317011 206.234126 26.317011 206.234126 34 206 34 206 26 206.329904 26 211.733948 33.6716671 211.768003 33.6716671 211.768003 26 212 26 212 34"></polygon>
                    <polygon id="Fill-36" fill="#FEFEFE" mask="url(#mask-4)" points="217.13002 26.2264365 217.13002 34 216.86998 34 216.86998 26.2264365 214 26.2264365 214 26 220 26 220 26.2264365"></polygon>
                    <polygon id="Fill-37" fill="#FEFEFE" mask="url(#mask-4)" points="220.89 34 221.11 34 221.11 26 220.89 26"></polygon>
                    <polygon id="Fill-38" fill="#FEFEFE" mask="url(#mask-4)" points="229.661582 34 224.266052 26.317011 224.236254 26.317011 224.236254 34 224 34 224 26 224.332033 26 229.736077 33.6716671 229.768003 33.6716671 229.768003 26 230 26 230 34"></polygon>
                </g>
            </g>
        </g>
    </g>
</svg>