<svg height="160pt" preserveAspectRatio="xMidYMid meet" viewBox="0 0 160 160" width="160pt" xmlns="http://www.w3.org/2000/svg"><g transform="matrix(.1 0 0 -.1 0 160)"><path d="m615 1446c-255-62-403-341-340-639 38-179 158-317 314-361 42-12 59-21 54-29-3-7-46-70-93-142-93-140-109-166-93-150 9 9 197 289 218 325 8 13 6 13-8 1-26-21-112 32-158 97-94 133-124 410-69 627 23 89 50 143 96 194 45 50 94 73 174 81l65 7-55 1c-30 0-78-5-105-12z"/><path d="m1000 1425c-36-37-57-42-93-24-14 7-6-6 20-32 37-39 61-80 101-169 8-20 11 5 11 118 1 78 0 142-2 142s-18-16-37-35z"/><path d="m1290 1420-20-40h33c28 0 36 5 50 35 22 46 22 45-13 45-24 0-33-7-50-40z"/><path d="m798 1443c7-3 16-2 19 1 4 3-2 6-13 5-11 0-14-3-6-6z"/><path d="m850 1426c0-2 7-7 16-10 8-3 12-2 9 4-6 10-25 14-25 6z"/><path d="m1192 1248c-75-113-91-139-75-123s154 225 148 225c-2 0-35-46-73-102z"/><path d="m1066 1005c-3-9 9-36 28-63 49-67 77-159 77-248 0-122-30-202-109-286-68-73-144-107-269-122l-53-7v76c0 73-1 75-25 75h-25v-100-100h58c250 1 435 153 473 388 20 125-21 274-101 365-35 41-45 45-54 22z"/><path d="m888 788c-91-138-115-176-101-163 19 18 187 275 180 275-2 0-38-51-79-112z"/></g></svg>