<svg height="17" viewBox="0 0 20 17" width="20" xmlns="http://www.w3.org/2000/svg"><path d="m18.4138686 1.8330292c-.415739.18435219-.8473084.32979014-1.290146.43508211.4879562-.46368613.8548358-1.04365876 1.0618157-1.69101277.0590785-.18480839-.1416514-.34461679-.308531-.24566606-.6160584.36541971-1.2796533.63955292-1.9723996.81487226-.0401916.01017336-.0816606.01532847-.1232665.01532847-.1261861 0-.2488594-.04685219-.3453467-.13188868-.7370438-.64958942-1.6849909-1.00734489-2.6691606-1.00734489-.4258667 0-.8558394.06637773-1.2780109.19730839-1.3080292.40570255-2.31729015 1.48467153-2.63394161 2.81587591-.11879562.4993157-.15095803.99908759-.09566606 1.48540146.00634124.05588504-.02007299.09489051-.03635949.11318431-.02860402.03207117-.06916058.0504562-.11126825.0504562-.0046989 0-.00953467-.0002281-.01432482-.0006843-2.86322992-.26601278-5.44516423-1.64543796-7.27020985-3.88412409-.09306569-.11418796-.27153285-.10018248-.34571168.02705292-.35739051.61313868-.54625912 1.31441606-.54625912 2.02801095 0 1.09361314.43937044 2.12422445 1.20255474 2.87554744-.32093978-.07609489-.63156934-.19593978-.92011861-.35620438-.13959854-.07755474-.31135949.02212591-.31332117.18179745-.01998175 1.62463503.93120438 3.07025547 2.35611314 3.7212135-.02869526.00068431-.05739051.00100365-.08613139.00100365-.22586679 0-.45456204-.02180657-.67965328-.06482664-.15720803-.03001825-.2892792.11911496-.24046533.27153285.4625 1.44393244 1.70574817 2.50825734 3.1935219 2.74990874-1.23476278.8288778-2.67267336 1.266104-4.16925183 1.266104l-.46656022-.0002737c-.14375 0-.26532846.0937044-.30196168.232938-.03608576.137135.03038322.2817974.15296533.3531022 1.68640511.9814324 3.60999088 1.5001368 5.56364051 1.5001368 1.71008212 0 3.30971716-.3393704 4.75451647-1.0086222 1.3244981-.6135493 2.4949361-1.4906022 3.4787865-2.6067975.9165146-1.039781 1.6332116-2.24010036 2.1301094-3.56756386.473677-1.26537409.724042-2.61555657.724042-3.90460767v-.06140511c-.0000456-.20697992.0935675-.40173357.2568887-.53430657.6197536-.50319343 1.1594434-1.09552919 1.6040146-1.76053832.1173814-.17559306-.0677464-.39566606-.2609033-.30999087z" fill="#76a9ea" fill-rule="evenodd" transform="translate(.625 .625)"/></svg>